<svg width="26" height="26" viewBox="0 0 26 26" fill="none" xmlns="http://www.w3.org/2000/svg">
<g clip-path="url(#clip0_1087_480)">
<path d="M3.26559 0.856689C3.15177 0.960579 3.11383 1.19669 3.11383 1.75391V2.50002H2.08943C1.41599 2.50002 1.0271 2.5378 0.951223 2.61336C0.865858 2.69836 0.837402 4.88947 0.837402 11.9161C0.837402 20.8978 0.837402 21.1056 1.01762 21.2C1.14093 21.2661 3.52168 21.2945 8.07453 21.2945H14.9417L15.2642 21.9272C15.6531 22.6922 16.6396 23.7689 17.3604 24.2034C19.0583 25.2234 21.1165 25.2989 22.8902 24.4206C23.8482 23.9389 24.5122 23.3628 25.1098 22.4656C25.6884 21.6061 25.9729 20.7561 26.0393 19.67C26.1436 18.0361 25.622 16.6289 24.4648 15.42L23.7913 14.7117V8.71447C23.7913 4.18114 23.7629 2.69836 23.6775 2.61336C23.6016 2.5378 23.2127 2.50002 22.5393 2.50002H21.5149V1.75391C21.5149 0.715023 21.4959 0.70558 20.1016 0.70558C19.3618 0.70558 18.9539 0.743357 18.8781 0.818913C18.8117 0.885023 18.7642 1.23447 18.7642 1.71614V2.50002L16.2317 2.48113L13.6897 2.4528L13.6613 1.69724C13.6423 1.29113 13.5854 0.894466 13.5285 0.828356C13.4621 0.743357 13.1111 0.70558 12.3049 0.70558C10.939 0.70558 10.8916 0.743357 10.8916 1.81058V2.50002H8.37805H5.8645V1.69724C5.8645 1.0078 5.83605 0.885023 5.68429 0.800024C5.57995 0.752802 5.02981 0.70558 4.45122 0.70558C3.63551 0.70558 3.37941 0.733912 3.26559 0.856689ZM5.1057 2.83058V4.20002H4.48916H3.87263V2.89669C3.87263 2.17891 3.90109 1.55558 3.93903 1.52725C3.96748 1.48947 4.25204 1.46113 4.55556 1.46113H5.1057V2.83058ZM12.8835 2.83058V4.20002H12.2669H11.6504V2.89669C11.6504 2.17891 11.6789 1.55558 11.7168 1.52725C11.7453 1.48947 12.0298 1.46113 12.3333 1.46113H12.8835V2.83058ZM20.7371 2.84947L20.7656 4.20002H20.1396H19.523V2.83058V1.45169L20.1206 1.48002L20.7087 1.50836L20.7371 2.84947ZM3.11383 4.00169C3.11383 4.52113 3.15177 4.77613 3.24662 4.85169C3.33198 4.92725 3.77778 4.95558 4.5935 4.93669L5.81708 4.90836L5.84553 4.07725L5.87399 3.25558H8.37805H10.8916V3.94502C10.8916 4.96502 10.8916 4.96502 12.3618 4.93669L13.5949 4.90836L13.6233 4.07725L13.6518 3.25558H16.2033H18.7547L18.7832 4.07725L18.8117 4.90836L20.0352 4.93669C20.851 4.95558 21.2968 4.92725 21.3821 4.85169C21.477 4.77613 21.5149 4.52113 21.5149 4.00169V3.25558H22.2737H23.0325V5.09725V6.93891H12.3144H1.59621V5.09725V3.25558H2.35502H3.11383V4.00169ZM23.0325 10.9622C23.0325 14.0317 23.023 14.23 22.8713 14.1828C22.7764 14.1545 22.4445 14.0317 22.1314 13.9184C21.2683 13.6067 19.5515 13.6067 18.584 13.9184C17.7209 14.2017 16.6396 14.9006 16.061 15.5617C15.084 16.6667 14.5149 18.3856 14.6477 19.8495L14.7141 20.5389H8.15041H1.59621V14.1167V7.69447H12.3144H23.0325V10.9622ZM21.5434 14.5511C23.4024 15.0328 24.8916 16.5911 25.2236 18.4139C25.8496 21.7856 22.8333 24.8267 19.4946 24.1845C18.0908 23.9106 16.9621 23.1739 16.2033 22.0217C15.6626 21.2 15.4445 20.435 15.4445 19.3678C15.4445 17.8661 15.9092 16.7706 16.9621 15.7789C18.2331 14.5889 19.9309 14.1356 21.5434 14.5511Z" fill="#191D23"/>
<path d="M5.1057 2.83058V4.20002H4.48916H3.87263V2.89669C3.87263 2.17891 3.90109 1.55558 3.93903 1.52725C3.96748 1.48947 4.25204 1.46113 4.55556 1.46113H5.1057V2.83058Z" fill="#191D23"/>
<path d="M12.8835 2.83058V4.20002H12.2669H11.6504V2.89669C11.6504 2.17891 11.6789 1.55558 11.7168 1.52725C11.7453 1.48947 12.0298 1.46113 12.3333 1.46113H12.8835V2.83058Z" fill="#191D23"/>
<path d="M20.7371 2.84947L20.7656 4.20002H20.1396H19.523V2.83058V1.45169L20.1206 1.48002L20.7087 1.50836L20.7371 2.84947Z" fill="#191D23"/>
<path d="M6.44301 9.99893L5.54192 10.8961L5.22891 10.6128C5.0487 10.4617 4.86848 10.3389 4.82105 10.3389C4.68826 10.3389 4.44165 10.6223 4.44165 10.7828C4.44165 10.9623 5.31428 11.85 5.48501 11.85C5.66523 11.85 7.85628 9.66837 7.85628 9.48893C7.85628 9.30004 7.67607 9.11115 7.47688 9.11115C7.401 9.11115 6.92675 9.51726 6.44301 9.99893Z" fill="#191D23"/>
<path d="M20.3197 9.98948C19.4471 10.8584 19.4281 10.8773 19.2669 10.6884C18.897 10.2917 18.3848 10.3295 18.3848 10.7545C18.3848 10.9811 19.2195 11.85 19.4376 11.85C19.5894 11.85 21.6856 9.7817 21.7615 9.56448C21.8279 9.33781 21.6476 9.11115 21.401 9.11115C21.2872 9.11115 20.8414 9.47948 20.3197 9.98948Z" fill="#191D23"/>
<path d="M3.80629 9.30003C3.58813 9.38503 3.58813 9.41336 3.58813 11.0378C3.58813 12.5772 3.59762 12.7 3.76835 12.7945C3.87269 12.8417 4.58407 12.8889 5.38082 12.8889C6.68976 12.8889 6.83204 12.87 7.00277 12.7C7.21144 12.4922 7.25887 11.85 7.09762 11.425C7.02174 11.2267 6.94586 11.1795 6.73719 11.2078C6.51903 11.2361 6.4716 11.2928 6.39572 11.6328L6.30087 12.0389H5.32391H4.34694V11.0472V10.0556H4.83068C5.42824 10.0556 5.67486 9.9328 5.67486 9.62114C5.67486 9.46058 5.59898 9.36614 5.42824 9.30003C5.13421 9.18669 4.09084 9.18669 3.80629 9.30003Z" fill="#191D23"/>
<path d="M10.5122 11.0378C10.5122 9.41338 10.5122 9.38505 10.7304 9.30005C11.0718 9.15838 13.7751 9.22449 13.9553 9.38505C14.0976 9.48894 14.1165 9.73449 14.1165 11.0378C14.1165 11.8689 14.0691 12.6245 14.0217 12.7C13.9553 12.8134 13.6423 12.8512 12.4187 12.87C11.4417 12.8889 10.8347 12.8606 10.7114 12.7945C10.5217 12.7 10.5122 12.615 10.5122 11.0378Z" fill="#191D23"/>
<path d="M17.7209 9.32835C17.4837 9.45113 17.4837 9.45113 17.4553 11C17.4268 13.0022 17.313 12.8889 19.2575 12.8889C20.0542 12.8889 20.7561 12.8417 20.8604 12.7945C21.0122 12.7095 21.0407 12.5867 21.0407 12.0578C21.0407 11.3967 20.9458 11.1889 20.6423 11.1889C20.4431 11.1889 20.2818 11.4628 20.2818 11.7933V12.0389H19.2385H18.1951V11.0472V10.0556H18.7263C19.3713 10.0556 19.6179 9.93279 19.6179 9.62113C19.6179 9.46057 19.542 9.36613 19.3713 9.30001C19.0298 9.16779 18.0054 9.18668 17.7209 9.32835Z" fill="#191D23"/>
<path d="M13.3577 15.2972L12.4661 16.1945L12.1531 15.9017C11.8306 15.5806 11.6409 15.5806 11.4607 15.9111C11.3658 16.0906 11.4132 16.1756 11.8685 16.6289C12.1531 16.9122 12.4281 17.1389 12.485 17.1389C12.542 17.1389 13.0921 16.6478 13.6897 16.0528C14.6287 15.1272 14.7899 14.9195 14.7615 14.7022C14.7425 14.5134 14.6761 14.4378 14.4959 14.4189C14.3062 14.4 14.0785 14.57 13.3577 15.2972Z" fill="#191D23"/>
<path d="M3.65438 14.6551C3.53108 14.7684 3.5785 17.9417 3.70181 18.0645C3.77769 18.1401 4.2804 18.1778 5.35221 18.1778C7.30614 18.1778 7.19232 18.2912 7.19232 16.3551C7.19232 15.5712 7.1449 14.8723 7.09747 14.7684C7.00262 14.5984 6.87931 14.5889 5.35221 14.5889C4.45113 14.5889 3.68284 14.6173 3.65438 14.6551ZM6.33866 16.3834V17.4223H5.34273H4.34679V16.3834V15.3445H5.34273H6.33866V16.3834Z" fill="#191D23"/>
<path d="M6.33866 16.3834V17.4223H5.34273H4.34679V16.3834V15.3445H5.34273H6.33866V16.3834Z" fill="#191D23"/>
<path d="M10.5786 14.655C10.5407 14.6834 10.5122 15.4484 10.5122 16.3456C10.5122 17.8661 10.5217 17.9889 10.6924 18.0834C10.7968 18.14 11.5176 18.1778 12.3523 18.1778C14.126 18.1778 14.1355 18.1778 14.0976 17.2522C14.0786 16.7895 14.0312 16.61 13.9079 16.5345C13.6518 16.3739 13.4146 16.5722 13.3767 16.9878L13.3483 17.3278H12.3049H11.271V16.3361V15.3445H11.8212C12.4946 15.3445 12.7507 15.1934 12.6558 14.8439L12.5989 14.5889H11.6125C11.0813 14.5889 10.6071 14.6172 10.5786 14.655Z" fill="#191D23"/>
<path d="M19.2668 15.1083C17.7872 15.505 16.6964 16.5344 16.2032 17.9794C15.9755 18.6594 15.9376 19.7928 16.1083 20.4633C16.4213 21.6156 17.3983 22.7678 18.546 23.3061C19.1625 23.5894 19.2479 23.6083 20.3292 23.6083C21.6855 23.6083 22.1977 23.4478 23.0798 22.7394C24.0758 21.9272 24.6354 20.86 24.7113 19.5944C24.8061 18.2533 24.3319 17.1011 23.3265 16.1661C22.1882 15.1178 20.6896 14.7306 19.2668 15.1083ZM21.6286 15.9772C22.672 16.3833 23.4308 17.1861 23.7817 18.2533C24.3414 19.9439 23.5636 21.7478 21.9132 22.5789C21.42 22.8244 21.2872 22.8528 20.3766 22.8528C19.4376 22.8528 19.3427 22.8339 18.7452 22.5411C18.0053 22.1822 17.4362 21.5967 17.0663 20.8222C16.8481 20.3689 16.8197 20.18 16.8197 19.3111C16.8197 18.3856 16.8387 18.2817 17.1137 17.7528C17.4267 17.1578 18.1381 16.4211 18.6503 16.1567C19.5229 15.7033 20.7465 15.6278 21.6286 15.9772Z" fill="#191D23"/>
<path d="M20.1679 16.2984C20.0162 16.3834 19.9972 16.5534 19.9972 17.6584V18.9334H19.153C18.2424 18.9334 18.0622 19.0184 18.1191 19.4245C18.1476 19.6323 18.176 19.6417 19.3237 19.6701C20.1015 19.6889 20.5378 19.6606 20.6232 19.5851C20.8319 19.4151 20.8129 16.5534 20.6042 16.3456C20.4335 16.1662 20.3861 16.1662 20.1679 16.2984Z" fill="#191D23"/>
<path d="M26 19.5C26 22.5376 23.5376 25 20.5 25C17.4624 25 15 22.5376 15 19.5C15 16.4624 17.4624 14 20.5 14C23.5376 14 26 16.4624 26 19.5ZM16.5272 19.5C16.5272 21.6941 18.3059 23.4728 20.5 23.4728C22.6941 23.4728 24.4728 21.6941 24.4728 19.5C24.4728 17.3059 22.6941 15.5272 20.5 15.5272C18.3059 15.5272 16.5272 17.3059 16.5272 19.5Z" fill="#191D23"/>
</g>
<defs>
<clipPath id="clip0_1087_480">
<rect width="26" height="26" fill="white"/>
</clipPath>
</defs>
</svg>
