<svg width="45" height="46" viewBox="0 0 45 46" fill="none" xmlns="http://www.w3.org/2000/svg">
<path d="M22.5512 0H22.4488C10.0507 0 0 10.0536 0 22.4554V22.5579C0 34.9596 10.0507 45.0133 22.4488 45.0133H22.5512C34.9493 45.0133 45 34.9596 45 22.5579V22.4554C45 10.0536 34.9493 0 22.5512 0Z" fill="#191D23"/>
<path d="M29.4628 9.15784H15.5386C11.6917 9.15784 8.56226 12.2882 8.56226 16.1362V28.8786C8.56226 32.7266 11.6917 35.857 15.5386 35.857H29.4628C33.3097 35.857 36.4391 32.7266 36.4391 28.8786V16.1362C36.4391 12.2882 33.3097 9.15784 29.4628 9.15784ZM11.0233 16.1362C11.0233 13.6461 13.0492 11.6196 15.5386 11.6196H29.4628C31.9522 11.6196 33.9781 13.6461 33.9781 16.1362V28.8786C33.9781 31.3688 31.9522 33.3953 29.4628 33.3953H15.5386C13.0492 33.3953 11.0233 31.3688 11.0233 28.8786V16.1362Z" fill="white"/>
<path d="M22.5009 28.9969C26.0781 28.9969 28.99 26.0857 28.99 22.5058C28.99 18.926 26.0797 16.0148 22.5009 16.0148C18.9221 16.0148 16.0117 18.926 16.0117 22.5058C16.0117 26.0857 18.9221 28.9969 22.5009 28.9969ZM22.5009 18.4781C24.7223 18.4781 26.529 20.2854 26.529 22.5074C26.529 24.7295 24.7223 26.5367 22.5009 26.5367C20.2795 26.5367 18.4727 24.7295 18.4727 22.5074C18.4727 20.2854 20.2795 18.4781 22.5009 18.4781Z" fill="white"/>
<path d="M29.5907 17.0635C30.554 17.0635 31.3391 16.2797 31.3391 15.3146C31.3391 14.3495 30.5556 13.5657 29.5907 13.5657C28.6258 13.5657 27.8423 14.3495 27.8423 15.3146C27.8423 16.2797 28.6258 17.0635 29.5907 17.0635Z" fill="white"/>
</svg>
