<svg width="29" height="27" viewBox="0 0 29 27" fill="red" xmlns="http://www.w3.org/2000/svg">
<path d="M21.4628 0.157837H7.53857C3.69174 0.157837 0.562256 3.28825 0.562256 7.13621V19.8786C0.562256 23.7266 3.69174 26.857 7.53857 26.857H21.4628C25.3097 26.857 28.4391 23.7266 28.4391 19.8786V7.13621C28.4391 3.28825 25.3097 0.157837 21.4628 0.157837ZM3.02328 7.13621C3.02328 4.64607 5.04917 2.61959 7.53857 2.61959H21.4628C23.9522 2.61959 25.9781 4.64607 25.9781 7.13621V19.8786C25.9781 22.3688 23.9522 24.3953 21.4628 24.3953H7.53857C5.04917 24.3953 3.02328 22.3688 3.02328 19.8786V7.13621Z" fill="white"/>
</svg>
