<svg width="81" height="41" viewBox="0 0 81 41" fill="none" xmlns="http://www.w3.org/2000/svg">
<path d="M59.4341 18.2599C62.2959 18.2518 65.1537 18.2357 68.0155 18.2478C69.0327 18.2518 70.062 18.2639 71.2729 18.8976C64.407 19.3457 57.8155 19.4224 51.2403 20.2861C56.7943 20.6333 62.3524 20.9844 67.9065 21.3316C66.6512 22.0056 65.3555 22.264 64.0195 22.2155C62.0053 22.1429 59.9952 21.9572 57.981 21.9451C52.0556 21.9088 46.1625 21.2347 40.2411 21.1015C39.3814 21.0813 39.0019 21.2791 38.7315 22.1671C37.456 26.3609 36.0513 30.5144 34.7516 34.7041C34.3561 35.9756 33.6053 36.5609 32.3015 36.4882C32.4711 36.1451 31.7042 36.2622 31.9948 35.8626C32.2491 35.8262 32.4388 35.6971 32.58 35.4872C32.7738 35.3742 32.8424 35.2652 32.576 35.1602C32.576 35.0755 32.572 34.9947 32.572 34.91C32.794 34.8293 33.5246 35.2975 33.0483 34.466C33.0684 34.4054 33.0725 34.3449 33.0644 34.2843C33.5569 34.2803 33.4721 34.0381 33.2824 33.7556C33.2945 33.695 33.2985 33.6304 33.2985 33.5699C33.3994 33.0371 33.0281 33.2631 32.798 33.2631C32.7213 33.1784 32.6446 33.0936 32.5679 33.0088C32.572 32.8756 32.572 32.7384 32.576 32.6052C33.0039 32.032 33.7425 32.5003 34.2269 32.1128C34.2148 31.9715 34.2551 31.7737 34.1784 31.7011C34.0735 31.6042 34.0291 31.7656 34.0008 31.8625C33.8515 31.8221 33.7062 31.7818 33.5569 31.7414C33.6376 31.5356 33.7183 31.3297 33.8031 31.1198C34.0331 30.8736 34.0372 30.5668 34.0412 30.2601C34.0493 30.147 34.0574 30.034 34.0654 29.925C34.0574 29.812 34.0533 29.695 34.0453 29.582C34.0412 29.5335 34.0372 29.481 34.0291 29.4326C34.1784 29.4689 34.3278 29.5053 34.4812 29.5375C34.6588 29.6263 34.8767 29.6707 34.901 29.4245C34.9211 29.2106 34.6992 29.1581 34.5014 29.1743C34.4287 29.142 34.3561 29.1097 34.2834 29.0774C34.2834 28.9603 34.2834 28.8433 34.2834 28.7303C34.6507 28.4719 35.0221 28.2136 35.3894 27.9512C35.9181 27.5234 35.5226 27.2045 35.2602 26.8695C35.458 26.8816 35.797 27.0834 35.797 26.7605C35.797 26.4618 35.4136 26.4659 35.1432 26.4699C34.9938 26.1308 35.2118 26.1147 35.4499 26.1187C35.6719 26.2075 35.9504 26.4457 35.9666 25.9371C36.0392 25.7797 36.1119 25.6263 36.1845 25.4689C36.0473 25.154 35.8051 25.0128 35.462 25.037C35.3248 25.0168 35.1875 24.9966 35.0503 24.9724C34.8808 24.8352 34.7113 24.6979 34.5458 24.5566C35.014 24.0925 34.6346 23.9552 34.2632 23.8099C34.2673 23.7292 34.2753 23.6484 34.2794 23.5677C34.9211 23.5596 35.567 23.5758 36.2088 23.5354C36.6891 23.5031 37.2098 23.4466 37.4479 22.9461C37.7063 22.4053 38.1018 21.7554 37.8677 21.2508C37.6538 20.7867 36.9272 21.1015 36.4388 21.1257C33.6456 21.271 30.9978 21.8805 28.4468 23.156C25.5002 24.6253 22.3195 24.7302 19.1591 23.7897C17.71 23.3578 17.2176 22.6111 17.3185 21.3921C18.1419 20.7019 19.1106 20.3386 20.152 20.1207C22.3559 19.6605 24.5436 19.7695 26.7515 20.1489C28.5921 20.4637 30.4165 20.1691 32.4711 19.939C32.1603 19.713 32.1037 19.6403 32.0351 19.6282C29.355 19.0833 26.6748 18.5343 23.9946 18.0096C23.7726 17.9652 23.474 17.9814 23.3004 18.1025C21.4961 19.3578 19.4295 19.8341 17.3144 20.165C16.6686 20.1691 16.0268 20.1691 15.381 20.1731C14.8966 20.1045 14.4123 20.0359 13.9279 19.9673C13.7786 19.9309 13.6252 19.8906 13.4758 19.8543C13.1812 19.6242 12.8542 19.4789 12.4829 19.4304C12.3295 19.3295 12.1761 19.2326 12.0187 19.1317C11.7725 18.7241 11.2639 18.4213 11.3002 17.9168C11.3607 17.057 10.9208 16.8431 10.1902 16.718C9.13266 16.5363 8.26081 15.9591 7.506 15.2043L7.47371 15.3093L7.51004 15.2043C7.30418 14.8249 7.16695 14.1993 6.87633 14.1185C6.25472 13.945 6.09327 14.8612 5.41919 15.0792C5.57257 14.4011 5.93181 14.0055 6.32334 13.614C7.03374 12.9036 7.87331 12.3264 8.4263 11.4626C8.68059 11.4747 8.93085 11.4828 9.18514 11.4949C9.14881 11.6442 9.16092 11.8541 9.06405 11.9268C8.26081 12.5363 8.25273 12.8713 9.35467 12.944C9.613 12.9601 10.0287 13.0328 9.99645 13.3597C9.94398 13.8481 9.49594 13.5857 9.21339 13.61C8.97524 13.6301 8.73306 13.5656 8.49088 13.5575C8.29713 13.5534 8.0711 13.5413 7.96212 13.7472C7.85313 13.9571 7.99037 14.1226 8.11146 14.2881C8.99543 15.5515 11.4051 16.165 12.826 15.616C16.2529 14.2881 19.704 13.9006 23.0945 15.7291C23.5587 15.9793 23.8453 15.939 24.1359 15.616C25.8958 13.6463 27.7525 11.7774 27.9866 8.87931C28.1925 6.35657 28.693 3.84997 29.912 1.57749C30.3399 0.774245 30.8727 -0.311548 31.9423 0.0840177C33.0563 0.491693 32.6406 1.66628 32.4468 2.53411C31.8374 5.26674 30.6466 7.78141 29.3873 10.2638C28.5315 11.951 29.0401 13.5615 29.6375 15.1398C29.9039 15.838 30.6224 15.9672 31.2884 15.6443C32.8787 14.8653 34.0654 13.6544 34.3439 11.8783C34.8162 8.85105 35.2521 5.8278 36.4994 2.99425C36.7254 2.48567 37.0281 1.99727 37.3591 1.54923C37.7264 1.05275 38.2189 0.584528 38.8849 0.826712C39.5751 1.07697 39.5751 1.79141 39.5428 2.37668C39.4984 3.13552 39.3773 3.90245 39.1795 4.63304C38.4449 7.36971 37.3551 9.96107 35.8616 12.3748C35.2844 13.3072 35.5831 15.9551 36.342 16.7018C36.7214 17.0772 37.0968 17.0691 37.5367 16.8027C38.2875 16.3507 38.784 15.6685 39.2683 14.9783C41.0322 12.4636 41.9767 9.60586 42.6791 6.65526C42.7356 6.42115 42.6831 6.12649 42.8082 5.95293C43.0585 5.6058 43.3895 5.073 43.7972 5.21024C44.3502 5.39187 43.9142 5.91256 43.8133 6.23547C43.1958 8.20926 42.5297 10.171 41.8637 12.1851C42.6105 12.2618 43.0262 11.6564 43.5994 11.4303C44.2089 11.1881 44.8386 10.8854 45.4198 11.3738C45.9768 11.842 45.7629 12.4919 45.5934 13.0691C45.3148 13.9934 44.9677 14.8976 44.6892 15.8219C44.5762 16.1932 44.4147 16.6695 44.8264 16.9359C45.2301 17.1943 45.6095 16.8552 45.9203 16.6332C46.8487 15.9712 47.6721 15.2528 47.8658 14.0015C47.9829 13.2628 48.1888 12.4999 48.7175 11.9026C48.9678 11.6241 49.2544 11.3415 49.6459 11.503C50.1262 11.7007 50.0576 12.1649 49.9567 12.5524C49.771 13.2628 49.3795 13.8764 48.9436 14.4616C48.774 14.6877 48.5399 14.8814 48.4309 15.1317C48.1645 15.725 48.2856 16.3063 48.6085 16.8552C48.77 17.1297 49.0283 17.275 49.323 17.166C49.9042 16.944 50.4007 16.6332 50.429 15.8946C50.4491 15.3739 50.6752 14.9581 51.2524 14.8572C51.4946 14.8168 51.7811 14.8088 51.8942 15.0631C52.1121 15.5595 51.9547 15.9995 51.5874 16.387C51.4098 16.5767 51.0546 16.7583 51.3412 17.0691C51.5349 17.275 51.8659 17.2871 52.1444 17.2104C53.1333 16.9319 53.9568 16.3587 54.76 15.7412C55.1636 15.4304 54.9739 15.2487 54.6995 15.0065C53.8559 14.276 53.654 13.4081 54.2353 12.4233C54.7842 11.4989 56.201 10.9217 57.1899 11.2164C57.9245 11.4343 58.0779 11.9994 57.9124 12.6493C57.7348 13.3516 57.4886 14.062 57.0204 14.6191C56.3907 15.3698 56.4755 16.1125 57.1778 16.5848C57.7994 17.0005 58.6067 17.0247 59.2686 16.4072C59.6481 16.052 59.9992 15.4465 60.641 16.06C60.3625 16.1811 60.1849 16.391 60.0598 16.6615L60.0315 16.6897C59.8055 16.9319 59.5754 17.1741 59.3494 17.4163L59.3373 17.4284C58.7197 17.8845 58.0416 18.1065 57.2666 17.9854C56.8226 17.7069 56.4311 17.3678 56.2131 16.8794C55.9386 16.2619 55.652 16.2659 55.1757 16.7341C54.5461 17.3517 53.7348 17.715 52.9033 18.0016C52.2695 17.9935 51.5349 18.1792 51.0788 17.6504C50.5944 17.0893 50.2877 17.2669 49.8195 17.6181C49.0041 18.2276 48.3381 18.05 47.8901 17.1055C47.777 16.8673 47.8497 16.5202 47.4582 16.391C46.4571 17.17 45.6256 18.5344 43.9949 17.6706C43.5752 17.1701 43.555 16.605 43.6357 15.9793C43.7568 15.0146 44.2048 14.1468 44.3824 13.2104C44.4309 12.944 44.7054 12.4434 44.0111 12.4636C43.1635 12.4878 41.3955 13.731 41.1251 14.5746C40.7376 15.7896 40.3905 17.0167 40.0272 18.2397C39.8778 18.5666 39.9707 18.6998 40.3299 18.6191C40.7255 18.603 41.117 18.5828 41.5126 18.5666C45.3108 18.5182 49.1131 18.4698 52.9113 18.4173C54.3604 18.389 55.8054 18.3608 57.2545 18.3366C57.9851 18.4698 58.7076 18.3648 59.4341 18.2599ZM24.5557 16.9359C28.9594 17.7069 33.016 18.7119 37.2178 18.7119C39.0423 18.7119 39.45 18.2599 39.4459 16.2215C38.5095 17.2145 37.7345 18.5505 36.128 17.7069C34.8364 17.0288 34.8081 15.5676 34.3238 14.3284C33.0967 15.5878 32.0916 17.0368 30.1582 16.7987C27.9261 16.5242 28.1844 14.5787 27.8171 12.8834C26.9331 14.4374 25.9604 15.6524 24.5557 16.9359ZM16.0631 18.72C17.928 18.6474 19.712 18.2034 21.4275 17.4809C21.7585 17.3396 22.3397 17.2911 22.2873 16.8068C22.2429 16.3991 21.7383 16.2296 21.3508 16.1488C20.7494 16.0237 20.1964 15.7573 19.4941 15.9712C18.8321 16.1731 18.041 16.1287 17.3386 15.9995C15.8977 15.7331 14.6827 16.274 13.4718 16.8835C13.1247 17.057 12.7251 17.3194 12.8502 17.8038C12.9632 18.2478 13.383 18.3689 13.7907 18.4415C14.5414 18.5788 15.2841 18.7806 16.0631 18.72ZM23.2277 20.8593C21.8594 20.8956 20.479 20.8674 19.2035 21.4728C18.9653 21.5859 18.6343 21.715 18.6585 22.05C18.6828 22.4053 19.0662 22.4456 19.3044 22.4981C20.9189 22.8614 22.5536 23.1278 24.2126 23.0147C25.0481 22.9582 25.8796 22.7564 26.699 22.5546C27.03 22.4739 27.4659 22.2842 27.4821 21.9007C27.4982 21.4648 27.0139 21.4123 26.691 21.2952C25.5688 20.8956 24.3942 20.8956 23.2277 20.8593ZM35.8293 9.27891C37.0322 8.10836 38.562 3.56339 38.2915 2.22331C36.9474 4.39489 36.7254 6.76828 35.8293 9.27891ZM31.2521 1.72279C30.0492 3.3212 29.7949 5.22637 29.4317 7.09522C30.469 5.45241 31.1713 3.69255 31.2521 1.72279ZM56.7015 13.0126C56.6854 12.5968 56.5078 12.3183 56.1364 12.3425C55.4785 12.3869 55.1596 12.8269 55.1273 13.4445C55.1071 13.8723 55.3856 14.3526 55.7651 14.3082C56.4553 14.2316 56.4068 13.4404 56.7015 13.0126Z" fill="#1D1D1B"/>
<path d="M9.17696 11.495C8.92266 11.4829 8.67241 11.4748 8.41811 11.4627C8.53517 10.8693 8.71681 10.284 8.75718 9.68666C8.89845 7.68461 8.53517 5.83594 6.90447 4.44743C6.72687 4.29404 6.50487 4.0559 6.28287 4.23754C6.00839 4.46358 6.19406 4.73805 6.35552 4.98427C6.58963 5.33948 7.08611 5.60991 6.81971 6.19519C6.30709 6.12253 6.26672 5.44442 5.69759 5.50093C5.76217 7.53123 7.32022 9.21844 6.88833 11.3456C6.63807 10.5827 6.38781 9.81987 6.13756 9.05699C6.12141 8.43538 5.73392 7.95505 5.50788 7.41417C5.3989 7.15181 5.16882 7.03475 4.92664 7.15988C4.64813 7.30519 4.69657 7.57159 4.90242 7.75323C5.17286 7.99138 5.24148 8.27796 5.22937 8.60894C4.80959 8.78654 4.72078 8.04789 4.19202 8.22549C4.44227 9.02066 4.91453 9.57364 5.41908 10.1105L5.43522 10.1387L5.4433 10.1549C5.64512 10.8047 6.19003 11.3456 6.11737 12.1368C4.45438 11.3214 3.34841 11.4869 2.4039 12.6453C2.25052 12.718 2.11328 12.8512 2.21822 12.9965C2.33931 13.166 2.48463 13.0732 2.55728 12.8956C2.79543 12.8471 3.03357 12.7987 3.27172 12.7503C3.27172 12.8794 3.27576 13.0086 3.27576 13.1378C2.69856 13.4001 1.96393 13.4607 2.02851 14.4133C2.09713 15.3941 2.94881 14.2034 3.09816 14.8452C3.06587 15.0066 3.03761 15.164 3.00532 15.3255C2.97707 15.5435 3.11027 15.5677 3.27576 15.5515C3.61885 15.83 4.33733 15.0995 4.45842 15.9875C2.87615 16.4274 0.942728 15.83 0.337269 14.712C-0.352953 13.4365 0.0547176 11.5717 1.20912 10.5222C1.67331 10.0984 2.2707 9.99746 2.78332 9.83197C2.82368 9.44044 2.56939 9.32339 2.43215 9.14579C1.68138 8.17302 1.71368 7.47876 2.73892 6.82487C3.60271 6.27188 4.15972 5.6422 4.36154 4.59274C4.48667 3.93481 4.72886 3.12349 5.6209 2.99836C6.56541 2.8692 7.25564 3.36164 7.76019 4.09222C9.10834 6.03776 9.59674 8.17302 9.06394 10.5101C9.00743 10.7644 8.80157 11.0833 9.2375 11.1922C9.60481 11.2851 9.5362 10.9137 9.64518 10.7361C9.95195 10.7482 10.2708 10.724 10.5332 10.9299C10.1699 11.3537 9.58867 11.2165 9.17696 11.495ZM1.68542 11.6201C0.619815 12.5404 0.494687 13.3961 1.37058 14.6676C1.23335 13.4809 1.31811 12.5485 1.68542 11.6201Z" fill="#1D1D1B"/>
<path d="M51.2362 33.7031C51.6681 33.3923 52.0233 33.7394 52.3058 33.9251C53.1615 34.4983 53.6863 34.2722 54.0132 33.3681C54.2917 32.5971 54.9335 31.9594 54.8488 31.0593L54.8286 31.0754C55.0748 31.1562 55.0909 30.9342 55.1797 30.809C55.3452 30.4538 55.3089 30.0784 55.2766 29.7031C55.4582 29.2591 55.6762 28.8272 55.8134 28.367C55.9628 27.8826 56.1969 27.5274 56.7418 27.697C57.315 27.8786 57.0445 28.3872 56.984 28.7222C56.6651 30.4821 55.9265 32.0926 55.1192 33.6668C54.542 34.7889 54.5299 34.7849 55.652 35.1603C55.6278 35.2289 55.5914 35.3621 55.5753 35.358C54.3603 35.2248 53.6782 35.9918 52.8871 36.7546C51.0142 38.5589 48.8144 39.6245 46.1059 39.0998C45.6418 39.011 45.3753 39.2209 45.0565 39.4994C44.4752 40.0039 43.9586 40.6497 42.7598 40.8233C43.4338 40.2057 43.8617 39.79 44.3178 39.4025C44.7739 39.011 44.8224 38.7526 44.3138 38.2763C42.7638 36.8273 42.8526 35.1078 44.451 33.7233C44.6044 33.8 44.7578 33.8767 44.9112 33.9574C43.5025 35.3742 43.4217 36.7869 44.6528 37.792C45.0847 38.1472 45.3955 38.2118 45.7144 37.683C46.5459 36.2985 47.3168 34.8939 47.555 33.2632C47.5631 33.0936 47.5671 32.9241 47.5752 32.7546H47.5994C47.6761 32.6981 47.7528 32.6456 47.8295 32.5891C48.0636 31.366 48.4147 30.1511 48.4995 28.916C48.5641 27.9714 48.9153 27.7293 49.7427 27.8746C49.775 28.0158 49.8073 28.1612 49.8396 28.3024C49.7024 29.0249 49.4561 29.7353 49.549 30.4861C49.4602 30.6839 49.3714 30.8776 49.2826 31.0754L49.2906 31.0553C49.1251 31.253 49.0767 31.4791 49.105 31.7293C48.9233 32.4922 49.0848 32.9523 49.993 33.0694C50.4128 33.1219 51.0303 33.0573 51.2241 33.6829C50.7518 34.1794 50.3966 33.5699 49.9768 33.5497C49.8961 33.5296 49.8113 33.5094 49.7306 33.4852C49.3431 33.5336 48.8305 33.0896 48.6045 33.7516C48.0353 35.4186 47.2321 36.9605 46.118 38.3813C48.7094 39.128 51.4541 37.2269 52.8104 35.3661C53.1736 34.8656 52.7297 34.8131 52.4915 34.575C52.1161 34.2117 51.2887 34.5064 51.2362 33.7031Z" fill="#1D1D1B"/>
<path d="M68.3947 31.0069C67.9103 31.1199 68.0112 31.5477 67.9224 31.8747C67.0627 34.9908 65.88 37.9212 63.216 39.9918C63.0788 39.9071 62.9416 39.8223 62.8083 39.7376C65.654 36.9 66.6106 33.2592 67.204 29.4569C67.2726 29.025 67.3574 28.5931 67.4381 28.1612C67.8982 27.9271 68.2857 27.9069 68.4593 28.5124C68.5118 29.2026 68.1808 29.8807 68.4028 30.5709C68.3987 30.7162 68.3947 30.8615 68.3947 31.0069Z" fill="#1D1D1B"/>
<path d="M79.7775 27.7657C80.0196 27.7455 80.2618 27.7293 80.508 27.7091C80.5847 27.7778 80.6614 27.8464 80.7381 27.915C80.835 28.8918 80.0963 29.8525 80.6937 30.8414C80.8067 31.0271 80.6211 31.1118 80.4798 31.1804C80.2295 31.3056 80.0156 31.1804 79.7976 31.0674C79.3819 30.8535 79.5272 30.3288 79.2003 30.018C77.5817 31.0513 76.4434 32.5649 75.2083 33.9857C75.1033 33.8767 75.0024 33.7718 74.8975 33.6628C75.4787 32.5528 76.2577 31.5881 77.0771 30.6517C77.6018 30.0543 78.3486 29.7112 77.8925 28.5406C77.5655 27.7011 78.5585 27.58 79.2931 27.6849C79.2931 27.8181 79.2931 27.9554 79.2931 28.0886C79.1276 28.1935 78.9581 28.2944 78.7926 28.3994C78.7845 28.4801 78.7724 28.5568 78.7643 28.6375C78.7764 28.9322 78.8531 29.2833 79.168 29.2672C79.8098 29.2309 79.4667 28.5568 79.729 28.25C79.7411 28.0926 79.7613 27.9311 79.7775 27.7657Z" fill="#1D1D1B"/>
<path d="M61.2988 27.9634C60.4269 29.0209 59.4057 30.0986 61.432 31.1441C60.1161 31.4266 59.6802 30.6637 59.099 30.1834C58.7599 30.2843 58.8204 30.6193 58.7034 30.8494C58.5137 31.2248 58.1746 31.1804 57.8719 31.0996C57.5369 31.0108 57.6499 30.7162 57.6983 30.4942C57.8598 29.7071 58.0495 28.9281 58.2109 28.145C58.2796 27.806 58.4854 27.6768 58.8043 27.6728C59.0505 27.6687 59.3613 27.6808 59.3532 27.9876C59.3088 29.2389 59.8941 28.5325 60.33 28.3226C60.5682 28.2015 60.7135 27.9069 61.2988 27.9634Z" fill="#1D1D1B"/>
<path d="M47.4662 30.5144C46.1826 31.4548 45.1856 31.5113 44.5237 30.7888C43.9101 30.1188 43.9263 29.3196 44.3582 28.5527C44.7941 27.7777 46.0615 27.3579 46.9132 27.6647C47.6277 27.923 47.7931 28.6939 47.1958 29.1702C46.9253 29.3842 46.5499 29.4689 46.219 29.6142C45.896 29.7515 45.2502 29.5658 45.3915 30.1955C45.4964 30.6556 45.9485 30.8373 46.4611 30.696C46.6831 30.6274 46.9213 30.6072 47.4662 30.5144ZM45.7104 29.255C46.1301 29.1137 46.5459 28.9482 46.5984 28.4275C46.6226 28.1934 46.441 28.0522 46.223 28.0723C45.7184 28.1167 45.4561 28.4518 45.3754 28.924C45.339 29.1339 45.4319 29.3115 45.7104 29.255Z" fill="#1D1D1B"/>
<path d="M65.0124 30.9947C64.7299 30.813 64.4715 30.7161 64.1405 30.9624C63.4624 31.4669 62.7359 31.4306 62.195 30.7928C61.5936 30.0824 61.747 29.2711 62.2475 28.5607C62.865 27.6889 63.6925 27.3215 64.7541 27.7131C64.7541 27.8705 64.7541 28.0279 64.75 28.1853C63.5512 27.8866 63.3696 28.8433 63.087 29.594C62.9579 29.9371 62.8893 30.4376 63.2646 30.696C63.7248 31.0108 63.9347 30.4457 64.2657 30.2842L64.3464 30.2923L64.306 30.2156L64.3262 30.1874C64.6532 30.3771 64.9155 30.6193 65.0124 30.9947Z" fill="#1D1D1B"/>
<path d="M68.4553 28.5083C68.2817 27.9028 67.8942 27.923 67.4341 28.1571C67.7893 27.7252 69.9407 27.4548 70.4493 27.8301C71.2 28.3872 71.3009 29.1823 70.9982 30.0017C70.6228 31.0149 69.5936 31.3781 68.3947 31.0028C68.3947 30.8574 68.3988 30.7121 68.3988 30.5668C69.0284 30.809 69.4523 30.6395 69.6864 29.9816C69.8922 29.4003 70.0295 28.7868 69.5936 28.3065C69.2182 27.8947 68.8065 28.258 68.4553 28.5083Z" fill="#1D1D1B"/>
<path d="M49.8436 28.3146C49.8113 28.1733 49.7791 28.028 49.7468 27.8867C50.5217 27.5477 51.3169 27.362 51.9587 28.0885C52.5157 28.7182 52.5965 29.4609 52.1363 30.1996C51.6116 31.0432 50.8608 31.3661 49.88 31.132C49.6903 31.0876 49.4844 31.1037 49.2866 31.0916C49.3754 30.8938 49.4642 30.7001 49.553 30.5023C50.0293 30.7162 50.5137 30.801 50.8043 30.2561C51.1151 29.6748 51.2322 29.025 50.9052 28.4155C50.6428 27.9271 50.2109 28.2177 49.8436 28.3146Z" fill="#1D1D1B"/>
<path d="M55.2766 29.7071C55.3089 30.0825 55.3412 30.4538 55.1798 30.813C54.9618 30.7686 54.7802 30.7727 54.8286 31.0794L54.8488 31.0633C54.2675 30.813 53.3311 31.6566 53.0485 30.583C52.7862 29.59 53.1858 28.6778 53.763 27.8665C53.9769 27.5637 54.3765 27.596 54.6591 27.7292C54.9901 27.8826 54.8286 28.2136 54.7438 28.476C54.542 29.1097 54.0375 29.6586 54.207 30.4054C54.7681 30.4619 54.9093 29.9129 55.2766 29.7071Z" fill="#1D1D1B"/>
<path d="M40.5518 28.2621C40.7576 28.1531 40.9756 28.0643 41.1653 27.9351C41.6295 27.6284 42.1381 27.4629 42.6224 27.7777C43.1028 28.0926 42.9373 28.6092 42.905 29.0936C42.8687 29.6183 42.1663 30.365 43.3369 30.6032C43.5589 30.6476 43.353 30.9422 43.1835 31.023C42.8242 31.1925 42.469 31.362 42.0412 31.1521C41.6012 30.9382 41.5003 30.5871 41.5407 30.1632C41.5972 29.5739 41.6819 28.9846 41.7506 28.4114C41.2904 28.2298 41.1572 28.6617 40.8706 28.7586C40.7657 28.5931 40.6567 28.4276 40.5518 28.2621Z" fill="#1D1D1B"/>
<path d="M73.2707 29.0774C73.9609 29.247 74.4493 29.1178 74.5462 28.2903C74.6027 27.8181 74.9175 27.5638 75.3979 27.6768C76.0598 27.8342 75.6602 28.3226 75.636 28.6617C75.5795 29.4407 74.8651 30.2803 75.8984 30.9382C74.8408 31.4468 74.3363 31.2974 74.2354 30.2318C74.1547 29.3842 73.6541 29.6829 73.2424 29.6344C73.2505 29.4447 73.2586 29.2631 73.2707 29.0774Z" fill="#1D1D1B"/>
<path d="M40.5518 28.262C40.6568 28.4275 40.7657 28.593 40.8707 28.7585C40.681 29.3639 40.4549 29.9613 40.3177 30.5789C40.1966 31.1117 39.8576 31.1964 39.4297 31.1238C38.8202 31.0188 39.1229 30.5789 39.1835 30.2762C39.357 29.4447 39.7123 28.597 38.5659 28.0158C39.3772 27.7373 40.0796 27.1278 40.5518 28.262Z" fill="#1D1D1B"/>
<path d="M64.754 28.1894C64.754 28.032 64.754 27.8746 64.758 27.7172C65.1657 27.7172 65.5734 27.7131 65.9811 27.7131C66.0537 27.7818 66.1304 27.8504 66.2031 27.915C66.1466 29.029 65.416 30.0865 65.9407 31.2692C66.0174 31.4387 65.6703 31.4468 65.4846 31.3378C65.3675 31.2571 65.2545 31.1804 65.1375 31.0997C65.0648 31.0997 65.0245 31.0674 65.0164 30.9947C64.9195 30.6153 64.6571 30.3772 64.3342 30.1874C64.6773 29.5658 64.8428 28.9079 64.754 28.1894Z" fill="#1D1D1B"/>
<path d="M73.2708 29.0774C73.2627 29.2631 73.2506 29.4447 73.2426 29.6304C73.2183 29.6627 73.1941 29.691 73.1699 29.7232C72.8147 30.1915 73.1255 31.4145 72.1043 31.0633C71.2042 30.7525 72.0599 29.917 72.0357 29.3156C72.0276 29.1259 72.1245 28.9321 72.181 28.7424C72.3263 28.2419 72.2617 27.4387 73.1013 27.701C73.9126 27.9553 73.287 28.6011 73.2708 29.0774Z" fill="#1D1D1B"/>
<path d="M9.86304 10.3445C9.98817 9.98122 10.2586 9.67446 10.1335 9.22238C9.98009 8.6815 10.299 8.47161 10.8076 8.33437C11.9579 8.02357 11.6108 8.82681 11.631 9.36768C11.5906 9.50492 11.5462 9.64216 11.5059 9.78343L11.526 9.76326C10.8358 9.57354 10.5008 10.397 9.86304 10.3445Z" fill="#1D1D1B"/>
<path d="M35.256 26.8655C35.5184 27.2005 35.9139 27.5194 35.3852 27.9472C34.8322 27.927 34.3438 27.5557 33.7706 27.6606L33.7827 27.6849C33.6939 27.3256 33.1409 27.5436 33.1006 27.1319C32.7938 26.5022 34.5819 27.7131 33.6334 26.5183C33.9038 26.3569 34.1783 26.4901 34.4487 26.5022C34.4729 26.5628 34.5052 26.6233 34.5416 26.6758C34.6425 27.1278 35.0179 26.8332 35.2479 26.9341L35.256 26.8655Z" fill="#1D1D1B"/>
<path d="M47.5792 32.7666C47.5712 32.9361 47.5671 33.1057 47.5591 33.2752C46.5984 33.2106 45.7629 33.6143 44.9152 33.9695C44.7618 33.8928 44.6085 33.8161 44.4551 33.7353C45.3633 32.9846 46.4168 32.702 47.5792 32.7666Z" fill="#1D1D1B"/>
<path d="M62.8044 39.7374C62.9416 39.8222 63.0789 39.907 63.2121 39.9917C62.0092 41.0896 61.6581 41.2107 60.3906 40.7385C61.6056 40.8515 62.1101 40.1168 62.8044 39.7374Z" fill="#1D1D1B"/>
<path d="M9.863 10.3446C10.5007 10.3971 10.8358 9.56959 11.526 9.76334C11.5058 10.4213 10.9488 10.619 10.525 10.9299C10.2586 10.724 9.94373 10.7482 9.63696 10.7361C9.70962 10.611 9.78631 10.4778 9.863 10.3446Z" fill="#1D1D1B"/>
<path d="M74.8975 33.6667C75.0024 33.7757 75.1034 33.8807 75.2083 33.9897C74.8935 34.474 74.5786 34.9624 74.2678 35.4468C74.062 34.6395 74.4858 34.1552 74.8975 33.6667Z" fill="#1D1D1B"/>
<path d="M30.8159 35.9111C30.9854 35.7981 31.155 35.6891 31.3285 35.576C31.5748 35.6124 31.8331 35.6205 31.9945 35.8546C31.708 36.2542 32.4708 36.1371 32.3013 36.4802C31.7039 36.565 31.2276 36.3268 30.8159 35.9111Z" fill="#1D1D1B"/>
<path d="M32.2975 29.8605C32.2329 29.8524 32.1683 29.8403 32.1038 29.8242C32.4186 29.6708 32.7334 29.5174 33.0483 29.36C33.3389 29.6183 33.686 29.6183 34.0453 29.5739C34.0533 29.6869 34.0574 29.804 34.0654 29.917C33.4681 30.1753 32.8868 29.8645 32.2975 29.8605Z" fill="#1D1D1B"/>
<path d="M31.8332 34.9867C31.482 34.8373 30.9976 34.9342 30.8362 34.4418C30.9169 34.3812 31.0017 34.3247 31.0824 34.2642C31.4215 34.3933 31.7605 34.5185 32.0996 34.6476C32.2408 34.6759 32.3821 34.7001 32.5234 34.7284C32.5436 34.7849 32.5597 34.8454 32.5718 34.906C32.5718 34.9907 32.5759 35.0714 32.5759 35.1562C32.3296 35.0997 32.0794 35.0432 31.8332 34.9867Z" fill="#1D1D1B"/>
<path d="M34.2794 28.7222C34.2794 28.8393 34.2794 28.9563 34.2794 29.0694C34.1058 29.029 33.9322 28.9886 33.7587 28.9523C33.6779 28.9119 33.6013 28.8756 33.5205 28.8352C33.4358 28.6859 33.355 28.5365 33.2703 28.3872C33.3833 28.1087 33.3631 27.7373 33.7789 27.6808L33.7667 27.6566C33.6457 28.1531 33.6658 28.581 34.2794 28.7222Z" fill="#1D1D1B"/>
<path d="M32.5677 33.0048C32.0632 33.0331 31.6757 32.7667 31.2842 32.5084C31.4699 32.4357 31.6555 32.3631 31.8412 32.2904C32.0349 32.5164 32.2892 32.6012 32.5799 32.6012C32.5718 32.7344 32.5677 32.8676 32.5677 33.0048Z" fill="#1D1D1B"/>
<path d="M34.5457 26.6798C34.5094 26.6232 34.4771 26.5667 34.4529 26.5062C34.5457 26.4537 34.6386 26.3972 34.7314 26.3447C34.8686 26.3891 35.0059 26.4295 35.1471 26.4739C35.4176 26.4699 35.801 26.4658 35.801 26.7645C35.801 27.0834 35.462 26.8816 35.2642 26.8735L35.2602 26.9421C35.0947 26.6313 34.796 26.7282 34.5457 26.6798Z" fill="#1D1D1B"/>
<path d="M33.569 25.5576C33.795 25.6343 34.017 25.711 34.243 25.7877C34.1502 25.8603 34.0614 25.937 33.9686 26.0097C33.6699 26.0057 33.3752 25.9935 33.569 25.5576Z" fill="#1D1D1B"/>
<path d="M33.2743 28.3872C33.3591 28.5365 33.4398 28.6859 33.5246 28.8352C33.4115 28.8191 33.2985 28.803 33.1855 28.7868C33.0563 28.7505 32.9312 28.7142 32.802 28.6738C32.689 28.1329 33.129 28.5043 33.2743 28.3872Z" fill="#1D1D1B"/>
<path d="M79.7775 27.7655C79.7613 27.927 79.7452 28.0884 79.725 28.2499C79.5797 28.1974 79.4344 28.145 79.2891 28.0925C79.2891 27.9593 79.2891 27.822 79.2891 27.6888C79.4505 27.7171 79.616 27.7413 79.7775 27.7655Z" fill="#1D1D1B"/>
<path d="M11.5059 9.78745C11.5462 9.65021 11.5906 9.51298 11.631 9.3717C11.7359 9.48472 11.8409 9.60178 11.7359 9.76323C11.6713 9.85203 11.5987 9.96505 11.5059 9.78745Z" fill="#1D1D1B"/>
<path d="M33.7666 29.2872C33.8554 29.3357 33.9442 29.3801 34.0289 29.4285C34.037 29.4769 34.0451 29.5294 34.0451 29.5778C33.6858 29.6222 33.3387 29.6222 33.0481 29.3639C33.2701 29.1581 33.5204 29.259 33.7666 29.2872Z" fill="#1D1D1B"/>
<path d="M31.603 33.9856C31.4375 33.9977 31.272 34.0098 31.1025 34.0219C30.9209 33.8928 30.8805 33.7596 31.0985 33.6223C31.2559 33.7555 31.5909 33.6506 31.603 33.9856Z" fill="#1D1D1B"/>
<path d="M34.5134 25.2549C34.247 25.5495 33.9766 25.2952 33.7102 25.2549C33.7304 25.154 33.7465 25.0531 33.7667 24.9521C34.025 25.0248 34.348 24.9481 34.5134 25.2549Z" fill="#1D1D1B"/>
<path d="M33.9685 26.0097C34.0613 25.9371 34.1501 25.8604 34.243 25.7877C34.3358 25.8362 34.4246 25.8846 34.5175 25.929C34.5134 26.0178 34.5134 26.1026 34.5094 26.1914C34.3277 26.1308 34.1501 26.0703 33.9685 26.0097Z" fill="#1D1D1B"/>
<path d="M34.5093 26.1913C34.5133 26.1025 34.5133 26.0178 34.5174 25.929C34.5981 25.929 34.6828 25.9249 34.7636 25.9249C34.8806 25.9935 35.0865 26.0057 35.034 26.1994C35.0179 26.264 34.8443 26.2882 34.7394 26.3326C34.6627 26.2842 34.586 26.2398 34.5093 26.1913Z" fill="#1D1D1B"/>
<path d="M49.1049 31.7415C49.0767 31.4912 49.1291 31.2652 49.2906 31.0674C49.2301 31.2934 49.1695 31.5195 49.1049 31.7415Z" fill="#1D1D1B"/>
<path d="M80.734 27.9149C80.6573 27.8463 80.5806 27.7776 80.5039 27.709C80.6694 27.6848 80.7461 27.7494 80.734 27.9149Z" fill="#1D1D1B"/>
<path d="M66.1991 27.9149C66.1264 27.8463 66.0497 27.7777 65.9771 27.7131C66.1425 27.6848 66.2273 27.7414 66.1991 27.9149Z" fill="#1D1D1B"/>
<path d="M65.1333 31.0996C65.2504 31.1803 65.3634 31.257 65.4804 31.3378C65.3674 31.257 65.2504 31.1803 65.1333 31.0996Z" fill="#1D1D1B"/>
<path d="M32.2974 29.8605C32.8867 29.8645 33.4639 30.1753 34.0653 29.917C34.0572 30.03 34.0491 30.143 34.0411 30.256C33.807 30.4982 33.4598 30.7121 33.8029 31.1117C33.7222 31.3176 33.6415 31.5235 33.5567 31.7334C33.4598 31.697 33.363 31.6647 33.2661 31.6284C33.2822 31.2046 33.3428 30.7565 32.8059 30.5749C33.0845 30.0219 32.3781 30.1632 32.2974 29.8605Z" fill="#1D1D1B"/>
<path d="M34.2794 28.7222C33.6658 28.5769 33.6456 28.1531 33.7708 27.6566C34.3439 27.5516 34.8323 27.923 35.3853 27.9432C35.018 28.2055 34.6467 28.4639 34.2794 28.7222Z" fill="#1D1D1B"/>
<path d="M31.9948 35.8585C31.8293 35.6244 31.575 35.6163 31.3288 35.58C31.2158 35.4831 31.1028 35.3903 30.9897 35.2934C31.2481 34.9907 31.5548 35.2853 31.8333 35.2208C32.0311 35.4589 32.3258 35.4145 32.5841 35.4831C32.4388 35.693 32.2491 35.8262 31.9948 35.8585Z" fill="#1D1D1B"/>
<path d="M32.1118 34.353C31.9745 34.1714 31.6193 34.2965 31.583 33.9736C32.136 33.7799 32.5881 34.1028 33.0644 34.2804C33.0724 34.3409 33.0684 34.4015 33.0482 34.462C32.9594 34.4782 32.8706 34.4943 32.7818 34.5104C32.5598 34.458 32.3338 34.4055 32.1118 34.353Z" fill="#1D1D1B"/>
<path d="M35.4619 25.037C35.801 25.0168 36.0432 25.154 36.1844 25.4689C35.8736 25.4527 35.5628 25.4366 35.2561 25.4204C35.248 25.368 35.2319 25.3155 35.2117 25.267C35.2924 25.1904 35.3772 25.1137 35.4619 25.037Z" fill="#1D1D1B"/>
<path d="M35.2521 25.4204C35.5629 25.4366 35.8737 25.4527 36.1805 25.4688C36.1078 25.6263 36.0352 25.7796 35.9625 25.9371C35.793 25.8927 35.6194 25.8483 35.4499 25.8079C35.3772 25.7716 35.3046 25.7393 35.2319 25.707C35.24 25.6101 35.2481 25.5132 35.2521 25.4204Z" fill="#1D1D1B"/>
<path d="M33.8028 31.1157C33.4597 30.7121 33.8068 30.5022 34.041 30.26C34.0369 30.5627 34.0329 30.8695 33.8028 31.1157Z" fill="#1D1D1B"/>
<path d="M34.4771 29.5336C34.4851 29.4125 34.4892 29.2914 34.4972 29.1703C34.695 29.1582 34.921 29.2066 34.8968 29.4206C34.8726 29.6668 34.6547 29.6224 34.4771 29.5336Z" fill="#1D1D1B"/>
<path d="M40.0229 18.2195C40.1238 18.3446 40.2247 18.4738 40.3256 18.5989C39.9664 18.6796 39.8776 18.5464 40.0229 18.2195Z" fill="#1D1D1B"/>
<path d="M34.2268 32.1087C34.1501 32.0239 34.0774 31.9432 34.0007 31.8584C34.029 31.7616 34.0734 31.6001 34.1783 31.697C34.255 31.7696 34.2147 31.9634 34.2268 32.1087Z" fill="#1D1D1B"/>
<path d="M32.7979 33.255C33.0279 33.255 33.3993 33.029 33.2984 33.5618C33.149 33.5255 32.9997 33.4851 32.8503 33.4488C32.8342 33.3761 32.8261 33.3035 32.818 33.2308L32.7979 33.255Z" fill="#1D1D1B"/>
<path d="M32.8504 33.4529C32.9997 33.4892 33.1491 33.5296 33.2984 33.5659C33.2984 33.6305 33.2944 33.691 33.2823 33.7516C33.0522 33.7274 32.8221 33.7031 32.592 33.6749C32.6808 33.6022 32.7656 33.5255 32.8504 33.4529Z" fill="#1D1D1B"/>
<path d="M4.5311 12.9197C4.11131 12.9924 3.69153 13.0691 3.26771 13.1417C3.26771 13.0126 3.26367 12.8834 3.26367 12.7542C3.71575 12.5726 4.1759 12.3506 4.5311 12.9197Z" fill="#1D1D1B"/>
<path d="M2.39982 12.6453C2.44826 12.73 2.50073 12.8148 2.54917 12.8955C2.47651 13.0731 2.33524 13.166 2.21011 12.9964C2.1092 12.8552 2.24644 12.7179 2.39982 12.6453Z" fill="#1D1D1B"/>
<path d="M5.41504 10.1104L5.49981 10.066L5.43119 10.1387L5.41504 10.1104Z" fill="#1D1D1B"/>
<path d="M3.00136 15.3295C3.09016 15.4062 3.183 15.4788 3.2718 15.5555C3.1063 15.5717 2.9731 15.5474 3.00136 15.3295Z" fill="#1D1D1B"/>
<path d="M54.8284 31.0795C54.78 30.7727 54.9616 30.7687 55.1796 30.8131C55.0908 30.9382 55.0706 31.1562 54.8284 31.0795Z" fill="#1D1D1B"/>
<path d="M49.9767 33.5618C49.896 33.5416 49.8112 33.5214 49.7305 33.4972C49.8112 33.5174 49.896 33.5376 49.9767 33.5618Z" fill="#1D1D1B"/>
<path d="M64.2695 30.2884L64.3099 30.2197L64.3503 30.2964L64.2695 30.2884Z" fill="#1D1D1B"/>
<path d="M32.8058 30.579C33.3467 30.7606 33.2821 31.2087 33.266 31.6325C32.8179 31.5114 32.3699 31.3903 31.9299 31.2732C32.0066 30.7122 32.5959 30.8979 32.8058 30.579Z" fill="#1D1D1B"/>
<path d="M34.5457 26.6798C34.7959 26.7282 35.0946 26.6314 35.252 26.9381C35.0219 26.8372 34.6466 27.1319 34.5457 26.6798Z" fill="#1D1D1B"/>
<path d="M32.8503 33.4528C32.7655 33.5255 32.6808 33.6022 32.596 33.6748C32.3377 33.6102 32.039 33.6224 31.8977 33.2994C32.2045 33.1097 32.5153 33.2066 32.822 33.2308C32.8261 33.3075 32.8342 33.3802 32.8503 33.4528Z" fill="#1D1D1B"/>
<path d="M34.7676 25.1863C34.9129 25.2145 35.0623 25.2388 35.2076 25.267C35.2278 25.3154 35.2439 25.3679 35.252 25.4204C35.2479 25.5173 35.2399 25.6101 35.2358 25.707C35.1591 25.7272 35.0865 25.7312 35.0058 25.7312C34.9129 25.489 34.4326 25.6585 34.4972 25.2549C34.586 25.2266 34.6788 25.2065 34.7676 25.1863Z" fill="#1D1D1B"/>
</svg>
