<svg width="45" height="46" viewBox="0 0 45 46" fill="none" xmlns="http://www.w3.org/2000/svg">
<path d="M22.5512 0H22.4488C10.0507 0 0 10.0536 0 22.4554V22.5579C0 34.9596 10.0507 45.0133 22.4488 45.0133H22.5512C34.9493 45.0133 45 34.9596 45 22.5579V22.4554C45 10.0536 34.9493 0 22.5512 0Z" fill="#191D23"/>
<path d="M16.4696 8.7884C12.9325 11.5918 11.1135 16.9985 12.4273 20.8032C13.0336 22.4051 14.9537 25.9094 16.8738 28.7129C18.6928 31.4162 20.714 34.52 21.3203 35.5212C22.0277 36.6226 22.634 37.2233 22.9372 36.9229C23.1393 36.6226 25.4637 33.1183 28.0911 29.2135C33.7504 20.5028 34.4578 14.8959 30.5165 10.3904C27.2827 6.5857 20.3097 5.88484 16.4696 8.7884ZM28.4954 12.0925C31.9313 15.2964 31.5271 19.5016 27.0806 26.2098C24.9584 29.3136 22.9372 31.9168 22.634 31.9168C22.3309 31.9168 20.4108 29.5138 18.3896 26.6103C14.0442 20.3025 13.4378 15.0961 16.6717 11.8922C19.5013 9.08877 25.4637 9.18889 28.4954 12.0925Z" fill="white"/>
<path d="M20.4582 16.2664C19.1296 19.0102 20.8378 21.5507 23.6849 21.1443C26.6269 20.7378 26.8384 15.7753 23.8964 15.3689C22.5677 15.1656 21.1225 14.8437 20.4582 16.2664Z" fill="white"/>
</svg>
