<svg width="45" height="45" fill="none" xmlns="http://www.w3.org/2000/svg"><path d="M22.551 0h-.102C10.05 0 0 10.05 0 22.449v.102C0 34.95 10.05 45 22.449 45h.102C34.95 45 45 34.95 45 22.551v-.102C45 10.05 34.95 0 22.551 0z" fill="#191D23"/><path d="M28.957 33C20.16 33 13.002 25.483 13 16.245 13.002 13.904 14.818 12 17.043 12c.23 0 .456.02.672.06.477.084.93.253 1.346.509.06.038.102.098.111.17l.93 6.151a.24.24 0 0 1-.056.198 3.994 3.994 0 0 1-1.897 1.241l-.352.104.133.356c1.199 3.207 3.64 5.768 6.697 7.032l.34.142.098-.37a4.253 4.253 0 0 1 1.182-1.992.216.216 0 0 1 .152-.06c.012 0 .024 0 .039.002l5.859.976c.07.013.127.053.164.117A4.403 4.403 0 0 1 33 28.755c0 2.338-1.813 4.243-4.043 4.245z" fill="#fff"/></svg>