<!-- Generated by IcoMoon.io -->
<svg version="1.1" xmlns="http://www.w3.org/2000/svg" width="1024" height="1024" viewBox="0 0 1024 1024">
<title></title>
<g id="icomoon-ignore">
</g>
<path fill="#191d23" d="M513.165 0h-2.33c-282.126 0-510.835 228.709-510.835 510.835v2.33c0 282.126 228.709 510.835 510.835 510.835h2.33c282.126 0 510.835-228.709 510.835-510.835v-2.33c0-282.126-228.709-510.835-510.835-510.835z"></path>
<path fill="#fff" d="M658.924 750.933c-200.183 0-363.047-171.065-363.101-381.258 0.055-53.282 41.374-96.609 92.010-96.609 5.204 0 10.356 0.46 15.287 1.381 10.85 1.898 21.154 5.753 30.634 11.564 1.37 0.865 2.303 2.244 2.521 3.855l21.151 139.994c0.275 1.67-0.218 3.281-1.258 4.49-11.674 13.578-26.578 23.361-43.183 28.251l-8.001 2.36 3.015 8.112c27.288 72.961 82.855 131.247 152.396 160.017l7.728 3.222 2.246-8.399c4.658-17.435 13.974-33.087 26.906-45.343 0.933-0.919 2.194-1.381 3.454-1.381 0.273 0 0.546 0 0.876 0.059l133.327 22.209c1.588 0.287 2.904 1.208 3.727 2.646 5.48 9.956 9.15 20.83 11.014 32.222 0.876 5.063 1.261 10.415 1.261 15.997 0 53.223-41.265 96.552-92.010 96.609z"></path>
</svg>
