<svg width="45" height="45" viewBox="0 0 45 45" fill="none" xmlns="http://www.w3.org/2000/svg">
<path d="M22.5512 0H22.4488C10.0507 0 0 10.0507 0 22.4488V22.5512C0 34.9493 10.0507 45 22.4488 45H22.5512C34.9493 45 45 34.9493 45 22.5512V22.4488C45 10.0507 34.9493 0 22.5512 0Z" fill="#191D23"/>
<path d="M28.9566 33C20.1595 33 13.0024 25.4825 13 16.2455C13.0024 13.904 14.8182 12 17.0434 12C17.2721 12 17.4985 12.0202 17.7152 12.0607C18.192 12.1441 18.6448 12.3135 19.0614 12.5689C19.1216 12.6069 19.1626 12.6675 19.1722 12.7383L20.1017 18.8904C20.1138 18.9638 20.0921 19.0346 20.0464 19.0877C19.5334 19.6844 18.8784 20.1143 18.1487 20.3292L17.7971 20.4329L17.9296 20.7894C19.1288 23.9957 21.5707 26.5571 24.6267 27.8214L24.9663 27.963L25.065 27.5939C25.2697 26.8277 25.6791 26.1399 26.2474 25.6013C26.2884 25.5609 26.3438 25.5406 26.3992 25.5406C26.4112 25.5406 26.4232 25.5406 26.4377 25.5432L32.2968 26.5192C32.3666 26.5318 32.4244 26.5723 32.4606 26.6355C32.7014 27.073 32.8627 27.5509 32.9446 28.0515C32.9831 28.274 33 28.5092 33 28.7545C33 31.0934 31.1866 32.9975 28.9566 33Z" fill="white"/>
</svg>
