<svg width="34" height="30" viewBox="0 0 34 30" fill="none" xmlns="http://www.w3.org/2000/svg">
<path d="M8.16721 3.07249C7.20634 3.3172 6.33786 4.01509 5.93134 4.87612C5.71884 5.32022 5.68188 5.51056 5.68188 6.20844C5.68188 6.95164 5.7096 7.0876 5.98678 7.6314C6.35634 8.36554 7.01232 8.98186 7.72373 9.23563C8.40743 9.48941 9.42373 9.48941 10.1167 9.23563C10.7911 8.99092 11.558 8.29303 11.8906 7.6314C12.1216 7.17823 12.1493 7.01509 12.1493 6.25376C12.1493 5.51056 12.1123 5.32022 11.8998 4.87612C11.3917 3.79757 10.3199 3.09062 9.1096 3.03624C8.74928 3.00905 8.32428 3.02717 8.16721 3.07249ZM9.76558 4.12385C10.6618 4.49545 11.1976 5.26584 11.2069 6.19938C11.2069 7.11479 10.7634 7.83986 9.93188 8.27491C9.41449 8.54681 8.41667 8.54681 7.89004 8.27491C6.5596 7.58609 6.22699 5.95467 7.16015 4.74923C7.50199 4.31418 8.24112 3.9879 8.88786 3.9879C9.18351 3.9879 9.5808 4.05134 9.76558 4.12385Z" fill="#191D23"/>
<path d="M14.5054 5.84593V6.34442H21.4347H28.3641V5.84593V5.34744H21.4347H14.5054V5.84593Z" fill="#191D23"/>
<path d="M8.13033 11.3656C7.15098 11.6465 6.29174 12.3535 5.88522 13.2145C5.59881 13.8218 5.59881 15.1813 5.88522 15.7885C6.50424 17.1209 8.09337 17.9547 9.45152 17.6828C10.5602 17.4562 11.4195 16.8218 11.8999 15.861C12.1216 15.426 12.1494 15.2538 12.1494 14.5015C12.1494 13.7493 12.1216 13.5771 11.8999 13.142C11.207 11.7644 9.5162 10.9668 8.13033 11.3656ZM9.62707 12.3444C10.1537 12.4985 10.8559 13.142 11.0499 13.6586C11.4102 14.565 11.1792 15.5076 10.4401 16.1601C9.50696 16.9849 8.32435 16.9849 7.3912 16.1601C6.34718 15.2447 6.34718 13.7583 7.3912 12.8429C8.04718 12.2629 8.79555 12.0997 9.62707 12.3444Z" fill="#191D23"/>
<path d="M8.61991 13.7039C7.96393 13.8761 7.72372 14.6828 8.17643 15.2085C8.45361 15.5347 8.86937 15.6344 9.27589 15.4622C10.4215 14.9909 9.821 13.3867 8.61991 13.7039Z" fill="#191D23"/>
<path d="M19.5407 12.9516C18.8663 13.3504 18.894 13.2235 18.8663 16.3232C18.8478 17.864 18.8108 19.1238 18.7646 19.1238C18.7277 19.1238 18.2565 18.7613 17.7206 18.3172C16.6396 17.429 16.4641 17.3111 16.1499 17.3111C15.5402 17.3111 14.9858 18.0997 15.226 18.6253C15.2815 18.7432 16.1869 20.1843 17.2402 21.8157C18.4413 23.6918 19.2913 24.9244 19.55 25.1692C20.1505 25.722 20.4184 25.7583 23.8923 25.722L26.8581 25.6948L27.3108 25.4229C27.588 25.2507 27.8652 24.9788 28.0407 24.7069L28.3179 24.2628V22.1329V20.0121L24.8994 18.4894L21.4809 16.9667L21.4347 15.29C21.3885 13.7764 21.3701 13.5861 21.1945 13.3504C20.7972 12.8157 20.0581 12.6344 19.5407 12.9516Z" fill="#191D23"/>
<path d="M14.5054 13.9577V14.4109H16.1684H17.8315V14.1027C17.8315 13.9305 17.8592 13.7311 17.8869 13.6496C17.9331 13.5227 17.7575 13.5045 16.2238 13.5045H14.5054V13.9577Z" fill="#191D23"/>
<path d="M22.3586 13.6133C22.3586 13.6767 22.3864 13.8852 22.4141 14.0665L22.4788 14.4109H25.4168H28.3641V13.9577V13.5045H25.3614C23.0239 13.5045 22.3586 13.5317 22.3586 13.6133Z" fill="#191D23"/>
<path d="M7.69602 19.7674C7.01232 20.0302 6.3471 20.6465 5.98678 21.3716C5.7096 21.9154 5.68188 22.0514 5.68188 22.7946C5.68188 23.4924 5.71884 23.6828 5.93134 24.1269C6.24547 24.7885 6.83678 25.3686 7.53895 25.7039C8.01938 25.9305 8.18569 25.9577 8.91558 25.9577C9.64547 25.9577 9.81178 25.9305 10.2922 25.7039C10.9944 25.3686 11.5857 24.7885 11.8998 24.1269C12.1123 23.6828 12.1493 23.4924 12.1493 22.7492C12.1493 21.9879 12.1216 21.8248 11.8906 21.3716C11.558 20.71 10.7911 20.0121 10.1167 19.7674C9.43297 19.5136 8.36123 19.5136 7.69602 19.7674ZM9.89493 20.71C10.0705 20.7915 10.3476 20.9909 10.5139 21.1541C12.0107 22.5227 10.9851 25.0151 8.92482 25.0151C7.60362 25.0151 6.62428 24.0453 6.63352 22.7492C6.63352 21.7251 7.28025 20.9003 8.31504 20.565C8.65688 20.4471 9.5346 20.5287 9.89493 20.71Z" fill="#191D23"/>
</svg>
