<svg width="55" height="65" viewBox="0 0 55 65" fill="none" xmlns="http://www.w3.org/2000/svg">
<path d="M29.2513 0.202496C28.5464 0.404705 28.0689 0.67432 27.6823 1.10121C27.3071 1.51687 27.58 1.4944 28.0803 1.07874C28.7852 0.483345 29.5128 0.269897 30.7975 0.281132C32.2073 0.292366 33.2419 0.595684 34.3675 1.34836C35.7091 2.23584 36.8233 3.71873 36.8233 4.63991C36.8233 4.98817 36.7664 5.0668 36.4367 5.23531C36.0729 5.40382 36.0047 5.40382 35.2088 5.14544C34.754 4.9994 33.6853 4.52757 32.844 4.10068C29.5242 2.40435 28.5691 2.01117 27.8074 2.01117C27.3413 2.01117 27.2276 2.13474 27.057 2.76384C26.8183 3.62886 27.3299 4.31413 28.5805 4.79719C28.8988 4.92076 30.5588 5.97676 32.2755 7.14509C33.9923 8.30219 35.5272 9.34695 35.6863 9.44806C35.8455 9.53793 36.2889 9.87495 36.6755 10.167C37.062 10.4703 37.9374 11.1444 38.631 11.6724C39.3245 12.2004 39.893 12.6947 39.893 12.7621C39.893 12.8407 39.9612 12.9081 40.0521 12.9081C40.2795 12.9081 41.0867 14.1326 41.3141 14.8291C41.4392 15.1774 41.5074 15.7503 41.5074 16.2671C41.5074 17.6938 40.9389 18.57 39.4155 19.5474L38.7219 19.9855L38.1648 18.8621C37.5623 17.6601 37.5623 17.6713 36.2434 16.1772C35.4589 15.301 33.7535 13.672 32.5711 12.6722C32.321 12.4588 31.9117 12.1105 31.6616 11.8971C31.4001 11.6836 32.3779 12.661 33.8218 14.0877C36.7778 16.986 37.5168 17.8511 37.3008 18.1993C37.2212 18.3117 37.1643 18.4465 37.1643 18.4914C37.1643 18.5476 37.2212 18.4914 37.2894 18.3791C37.3462 18.278 37.4486 18.1881 37.494 18.1881C37.5964 18.1881 38.415 19.7833 38.415 19.9855C38.415 20.0529 38.1421 20.3675 37.8238 20.6933C36.7437 21.7717 36.3344 23.513 36.755 25.1307L36.9483 25.8384L36.1752 26.9506C35.1179 28.4784 35.0269 28.6357 34.7654 29.3547C34.4357 30.2871 34.3106 31.3768 34.4357 32.2305C34.7199 34.1965 35.675 35.0053 37.9602 35.2188L38.8129 35.2862L38.2103 35.8367C37.5395 36.4433 36.2889 37.0836 34.7199 37.6341C32.4461 38.4205 31.1386 39.2855 30.4451 40.4763C29.9789 41.2964 30.0358 41.3862 30.5247 40.5886C31.059 39.7011 31.4001 39.3641 32.2755 38.8586C33.0032 38.4317 34.5494 37.7914 34.5494 37.9262C34.5494 37.9599 34.6176 37.9374 34.6972 37.8812C34.7654 37.8251 35.0951 37.679 35.4021 37.5667C36.6413 37.1286 37.7669 36.4545 38.6651 35.6232L39.0857 35.23L42.019 35.2188C45.7254 35.2076 46.7828 35.3761 48.1357 36.2186C48.9429 36.7241 49.284 37.1735 49.5682 38.1059C50.0571 39.7236 49.8411 40.6223 48.8292 41.1728C48.2721 41.4873 48.1926 41.4986 46.7145 41.4873C45.8732 41.4873 44.4407 41.3975 43.5311 41.2851C36.6413 40.4988 35.7886 40.4426 34.7881 40.701C33.9696 40.9256 33.4238 41.2964 32.7189 42.1389C31.6161 43.4421 31.5138 44.206 32.3665 44.7227C32.7644 44.9699 32.8895 44.9811 34.7768 44.9699C36.1184 44.9586 37.0393 44.8912 37.6191 44.7677C38.0852 44.6666 38.5173 44.5879 38.5741 44.5879C38.6196 44.5879 38.4377 44.8126 38.1648 45.0822C37.4827 45.745 37.1643 46.4415 37.1643 47.2616C37.1643 48.3962 37.7896 49.7555 38.6196 50.4521L38.9493 50.7217L38.8925 51.8563C38.7901 53.9571 39.4155 55.4062 40.7116 56.0578C41.4051 56.4061 41.4847 56.2937 40.8025 55.9342C39.5746 55.2714 39.1085 54.3615 39.0289 52.4517C38.9948 51.8001 39.0175 51.2047 39.0744 51.1149C39.1653 50.9913 39.3245 51.025 39.9612 51.2834C41.3596 51.8563 42.7012 51.7103 44.1565 50.834C45.1683 50.2274 45.5321 49.632 45.2252 49.0927C44.7704 48.2839 42.2578 48.1716 40.848 48.8905C40.3705 49.1377 39.3472 50.0589 39.2677 50.3172C39.0971 50.8677 38.3922 50.2498 37.7328 48.9692C37.369 48.2839 37.2894 46.9134 37.5509 46.2281C37.7669 45.6664 38.3808 45.026 39.0403 44.6441C39.2904 44.498 40.2113 44.2284 41.0867 44.0262C43.9177 43.3859 44.4407 43.2174 44.4407 42.9365C44.4407 42.8467 44.2929 42.7905 44.02 42.7905C43.5652 42.8017 41.8599 43.1612 41.7462 43.2848C41.6211 43.3971 42.0077 43.3634 42.7012 43.1837C43.0536 43.0938 43.5084 43.0152 43.7017 43.0152C44.2929 43.0264 43.7699 43.2286 42.6557 43.4084C42.11 43.5095 41.5529 43.6106 41.4278 43.6443C41.2004 43.7004 41.2004 43.7004 41.4164 43.5319C41.7462 43.2735 41.4619 43.3072 40.6661 43.633C40.2795 43.7903 39.2449 44.0375 38.3695 44.1947C37.4827 44.352 36.3571 44.5655 35.8569 44.6553C33.8331 45.0485 32.8667 44.9699 32.2414 44.352C31.9799 44.0936 31.9231 43.9588 31.9913 43.7229C32.1618 43.0264 33.4352 41.5098 34.1287 41.1391C34.9132 40.7459 35.8569 40.656 37.6077 40.8358C38.5173 40.9256 40.0067 41.0717 40.9162 41.1616C41.8257 41.2514 43.0536 41.375 43.6448 41.4424C45.8391 41.7008 46.8282 41.757 47.6696 41.6559C48.6701 41.5547 49.2158 41.3301 49.6137 40.8695C50.3755 39.9595 49.9548 37.5555 48.8406 36.4882C47.6241 35.3199 45.4071 34.8705 41.5415 34.9941C40.325 35.039 39.3245 35.0503 39.3245 35.0166C39.3245 34.9829 39.495 34.6234 39.7111 34.219C40.6092 32.5226 40.3591 31.3992 38.3354 28.0066C37.8806 27.2651 37.4827 26.5237 37.4486 26.3664C37.3917 26.1417 37.4827 25.8946 37.8351 25.3104C38.7674 23.7826 39.1199 22.3222 38.8925 20.9853C38.8129 20.536 38.7674 20.1653 38.7788 20.154C40.757 18.9745 41.3255 18.3566 41.6666 17.0422C41.8712 16.2558 41.8257 15.5706 41.4847 14.6381C41.2118 13.8518 40.4501 12.7621 39.7906 12.1891C39.6428 12.0543 39.4609 11.8971 39.3927 11.8297C39.1312 11.5937 37.4145 10.3355 36.4822 9.70644C33.1737 7.47087 30.2518 5.48246 30.0585 5.33642C29.8425 5.15668 29.8652 5.15668 30.3996 5.21284C31.9117 5.39259 31.889 5.39259 31.6161 5.26902C31.4797 5.21284 30.8998 5.08927 30.3314 4.9994C29.7629 4.90953 29.1831 4.75225 29.0353 4.66238C28.8875 4.56128 28.6828 4.51634 28.5919 4.55004C28.3531 4.63991 27.5345 4.08945 27.3299 3.70749C27.2389 3.51652 27.1593 3.2469 27.1593 3.08963C27.1593 2.74137 27.3754 2.26955 27.5573 2.20214C27.9893 2.03363 29.8084 2.6852 31.6161 3.66256C34.9132 5.42629 36.0729 5.79701 36.7437 5.26902C37.1416 4.95446 37.153 4.44894 36.755 3.66256C36.107 2.40435 34.9587 1.23602 33.89 0.75296C32.9577 0.337303 31.4797 -0.010952 30.627 0.000282288C30.2518 0.000282288 29.6379 0.0901527 29.2513 0.202496ZM38.6651 21.1202C38.756 21.783 38.6878 22.7378 38.5059 23.3557C38.3922 23.7489 37.2894 25.4789 37.1416 25.4902C37.0506 25.4902 36.8574 24.8948 36.7778 24.3106C36.6868 23.6703 36.8801 22.5356 37.1757 21.9178C37.4486 21.3448 38.2785 20.4124 38.4718 20.4686C38.5286 20.491 38.6196 20.7831 38.6651 21.1202ZM37.278 26.4788C37.278 26.5237 37.7328 27.3438 38.3013 28.2874C39.5633 30.4219 39.9157 31.242 39.9839 32.3204C40.0408 33.2191 39.8589 33.8707 39.3359 34.6122C38.9948 35.0952 38.7674 35.1289 37.3462 34.9267C35.4476 34.6459 34.6631 33.6348 34.6631 31.4329C34.6631 30.3769 34.9473 29.2535 35.3907 28.5009C35.675 28.0178 37.062 26.4114 37.1984 26.4001C37.2439 26.3889 37.278 26.4338 37.278 26.4788ZM44.7135 48.8456C45.4184 49.2725 45.3161 49.7218 44.3611 50.497C43.1901 51.4406 41.5529 51.7327 40.234 51.2272C39.3586 50.8902 39.279 50.834 39.3586 50.5307C39.5291 49.8454 40.9162 48.8681 42.0531 48.6322C42.8831 48.4636 44.2588 48.576 44.7135 48.8456Z" fill="black"/>
<path d="M21.9015 2.16026C21.3127 2.40519 20.6084 3.18453 20.5161 3.69667C20.3775 4.39808 20.5392 5.75636 20.8624 6.51343C21.1049 7.09237 21.1626 7.42637 21.1626 8.17231C21.1626 9.33019 21.3589 10.5103 22.1555 14.0174C22.6173 16.0102 22.7674 16.9232 22.7212 17.2461C22.4326 19.161 22.4788 19.0719 21.509 19.9737C20.9317 20.5082 20.0774 21.1316 19.1306 21.6994C15.4592 23.8927 14.6972 24.4271 13.1386 25.9969C11.9495 27.1882 11.6493 27.5779 10.7141 29.0586C9.92903 30.2944 8.91305 32.2428 8.93614 32.4766C8.93614 32.5545 9.04005 32.3875 9.16704 32.1092C9.99831 30.3167 11.4184 28.0455 12.4575 26.8765C13.8429 25.3289 15.2861 24.1933 17.9068 22.6235C20.4699 21.076 20.8624 20.8199 21.5436 20.2187C21.8438 19.9403 22.0862 19.7845 22.0862 19.8624C22.0862 20.3078 21.001 22.2895 19.8695 23.9261C18.8189 25.4291 18.4726 25.8856 17.4104 27.088C16.5907 28.0232 15.6093 29.2145 15.6555 29.2145C15.6901 29.2145 16.302 28.5465 17.0179 27.7337C17.7337 26.9321 18.3571 26.2419 18.3917 26.2085C18.5303 26.086 19.1999 25.2065 19.8349 24.3158C20.8509 22.8796 21.6706 21.4545 22.144 20.3078C22.3749 19.7399 22.7443 19.0163 22.9521 18.7045C23.5294 17.825 23.945 16.99 24.2914 16.0325L24.6031 15.1418L24.6724 15.9212C24.9495 19.1276 25.0072 20.5416 24.8687 21.3209C24.6147 22.8462 24.0605 23.6144 22.2132 24.9838C21.6822 25.3846 20.8971 25.9635 20.4814 26.2864C18.08 28.1123 15.2861 30.0272 15.1706 29.927C15.136 29.9048 15.2399 29.76 15.39 29.6042C15.5401 29.4483 15.6093 29.3258 15.5516 29.3258C15.4939 29.337 15.2861 29.5485 15.0782 29.8157C14.8012 30.172 13.9353 30.7954 11.6493 32.2651C9.96367 33.3561 8.52051 34.2023 8.46278 34.1689C8.39351 34.1355 8.34733 34.1466 8.34733 34.2134C8.34733 34.347 8.02406 34.6699 7.30825 35.2711C7.01962 35.516 6.37308 36.0727 5.86509 36.518C5.35709 36.9522 4.34111 37.8206 3.61375 38.4441C2.11286 39.7356 1.39705 40.5706 0.785152 41.773C0.242523 42.8641 7.16378e-05 43.7659 7.16378e-05 44.857C-0.0114737 46.9946 1.37396 49.3437 3.08267 50.1008C3.92548 50.4682 4.94146 50.5461 6.15372 50.3235C7.36598 50.1119 8.64751 49.7 12.9077 48.197C14.5472 47.6181 14.882 47.5513 15.8402 47.6403C17.064 47.7405 17.7106 48.1079 17.9992 48.8873C18.1377 49.2769 18.1493 49.2881 18.1608 49.0097C18.1608 48.5644 17.4681 47.863 16.81 47.6515C16.152 47.4288 14.8589 47.4288 14.0045 47.6403C13.6582 47.7183 12.4921 48.0857 11.4068 48.4531C5.80736 50.3346 6.34999 50.1899 4.94146 50.201C3.89084 50.201 3.57912 50.1565 3.15194 49.9672C1.90505 49.4105 0.796698 47.9187 0.334885 46.1818C-0.0114737 44.8792 0.150161 43.5321 0.842879 42.0625C1.45478 40.7487 2.04359 40.0807 4.22565 38.188C7.89706 35.015 8.12797 34.8369 8.24342 35.015C8.32424 35.1375 8.34733 35.1152 8.34733 34.9259C8.34733 34.7144 8.95923 34.1243 9.32868 33.9907C9.39795 33.9685 10.3908 33.3339 11.5569 32.5768C12.7115 31.8308 13.7852 31.1628 13.9353 31.1072C14.0853 31.0515 14.247 30.9513 14.2932 30.8845C14.3393 30.8177 15.2976 30.172 16.4175 29.4483C18.8766 27.8673 20.62 26.6983 21.5552 26.0081C22.6058 25.2399 24.2914 23.5476 24.6839 22.8573L25.0303 22.2561L25.0187 18.9161C25.0187 17.0791 24.9495 15.0528 24.8802 14.407C24.707 12.8595 24.5338 9.82006 24.453 6.71383C24.3722 3.84141 24.3722 3.83027 25.2497 3.83027C25.5152 3.83027 25.7923 3.7746 25.8731 3.69667C26.2656 3.31813 25.7115 2.58332 24.707 2.17139C23.9797 1.87078 22.5827 1.85965 21.9015 2.16026ZM24.6031 2.38292L25.1111 2.60559L24.7647 2.88393C24.58 3.03979 24.3838 3.28473 24.3491 3.4406C24.3029 3.59647 24.2106 3.71894 24.1298 3.71894C24.0605 3.71894 23.6795 3.86367 23.2985 4.04181C22.4326 4.43148 21.7168 5.18855 21.4397 5.97902L21.2434 6.55796L21.0933 6.21283C21.0125 6.02356 20.8509 5.54482 20.747 5.13288C20.5507 4.43148 20.5507 4.36467 20.7354 3.78574C20.9548 3.14 21.4628 2.59446 22.1324 2.31612C22.6866 2.09346 24.0143 2.12685 24.6031 2.38292ZM25.6306 3.2402C25.7923 3.474 25.7807 3.48513 25.2612 3.55193C24.6147 3.65213 24.5338 3.58533 24.7878 3.21793C25.0187 2.8728 25.3882 2.88393 25.6306 3.2402ZM24.2106 6.46889C24.2452 7.80491 24.3029 9.46379 24.326 10.1541C24.3491 10.8443 24.3491 11.3899 24.326 11.3787C24.3145 11.3565 24.0489 10.9891 23.7372 10.5549C23.437 10.1207 22.9637 9.48606 22.6981 9.14092C22.1209 8.40611 21.3935 7.1703 21.3935 6.91423C21.3935 6.51343 21.89 5.48915 22.3171 5.02155C22.5711 4.74321 22.9983 4.42034 23.2639 4.28674C24.1759 3.85254 24.1298 3.75234 24.2106 6.46889ZM22.7097 9.45266C24.0143 11.2229 24.2683 11.7461 24.4068 12.9152C24.58 14.3848 24.1644 16.2329 23.3216 17.7471C22.8136 18.6823 22.779 18.66 22.8482 17.5133C22.9175 16.4333 22.8944 16.322 22.0978 12.7927C21.7399 11.2006 21.5205 9.82006 21.4397 8.76238C21.3473 7.57111 21.3127 7.55997 22.7097 9.45266Z" fill="black"/>
<path d="M26.0525 2.98117C25.906 3.29308 26.0862 4.8081 26.3453 5.49877C26.4692 5.8441 26.5706 6.21172 26.5706 6.33426C26.5593 6.44566 27.9222 8.42855 29.6005 10.7345L32.6304 14.9231L31.9884 14.9899C31.6279 15.0233 31.3126 15.0345 31.29 15.0122C31.2675 14.9899 31.3013 14.9788 31.3689 14.9788C31.4477 14.9788 31.504 14.9342 31.504 14.8785C31.504 14.8117 31.1436 14.8674 30.7043 14.9899C29.8708 15.2127 29.5329 15.2016 30.1074 14.9565L30.434 14.8228L30.1186 14.7783C29.9497 14.756 29.5554 14.8117 29.2513 14.9008C28.9359 14.9899 28.6881 15.0233 28.6881 14.9676C28.6881 14.9119 28.6318 14.8674 28.553 14.8674C28.3728 14.8674 26.7733 15.87 26.7733 15.9814C26.7733 16.2042 27.0436 16.2153 27.4829 16.0148C28.2263 15.6694 28.7219 15.5023 29.026 15.5135C29.1837 15.5135 29.5667 15.4466 29.8708 15.3687C30.1862 15.2795 30.9634 15.2016 31.6054 15.1793L32.7881 15.1459L33.1147 15.6249C33.5202 16.2153 34.2298 17.9197 34.4776 18.8777C34.9507 20.6824 34.9056 22.7544 34.3875 24.3362C34.2298 24.793 34.1285 25.1829 34.151 25.2163C34.2749 25.3277 34.6578 24.1914 34.8268 23.2891C35.2548 20.8606 34.9056 18.8554 33.5991 16.2153C33.3738 15.7586 33.2048 15.3241 33.2274 15.2684C33.2499 15.2016 33.1485 15.0567 33.0021 14.9454C32.8557 14.834 32.743 14.6891 32.743 14.6334C32.743 14.4663 31.2224 12.2384 29.8821 10.4671C28.4178 8.5288 28.3164 8.36171 28.7557 8.74046L29.0824 9.01896L28.8571 8.74046C28.7332 8.59564 28.5642 8.39513 28.4741 8.29487C28.0574 7.86041 27.1112 6.50135 26.7959 5.8998C26.4579 5.25369 26.2439 4.35137 26.1764 3.28194C26.1538 2.90319 26.12 2.83635 26.0525 2.98117Z" fill="black"/>
<path d="M35.0078 5.83573C35.0691 5.87897 35.866 6.20325 36.7732 6.53834C37.6804 6.88423 38.7225 7.33822 39.078 7.5436C39.7646 7.95436 40.4144 8.65696 40.8189 9.42442C40.9538 9.68384 41.0273 9.78113 40.9906 9.6298C40.8557 9.12176 40.1446 8.20297 39.5317 7.72736C38.8328 7.17608 36.8468 6.2681 35.6821 5.96544C35.253 5.84654 34.9465 5.79249 35.0078 5.83573Z" fill="black"/>
<path d="M40.4052 14.0196C40.153 14.2901 39.9638 14.522 40.0059 14.551C40.0689 14.5703 40.3211 14.3674 40.5943 14.1066C40.8675 13.8457 41.0356 13.6042 40.9936 13.5849C40.9305 13.5559 40.6784 13.7588 40.4052 14.0196Z" fill="black"/>
<path d="M30.123 17.9529C29.8751 18.4654 29.4871 18.7216 29.3362 18.4654C29.2931 18.3874 29.1745 18.3539 29.0775 18.3874C28.9589 18.4431 28.905 18.3985 28.905 18.2425C28.905 17.8972 28.7434 17.9863 28.5925 18.4208C28.4416 18.8664 28.032 19.1338 27.7948 18.9333C27.6871 18.8441 27.6224 18.8664 27.5254 19.0224C27.4607 19.145 27.4284 19.3121 27.4607 19.3901C27.493 19.4792 27.3852 19.7131 27.2236 19.9025C26.9649 20.2256 26.9541 20.2925 27.0727 20.5376C27.1481 20.6824 27.3098 20.805 27.4284 20.805C27.5361 20.805 27.7841 20.9164 27.9673 21.0501C28.4523 21.4066 29.2284 21.44 30.317 21.1392C31.3841 20.8495 31.6644 20.8161 31.632 20.9832C31.6105 21.0723 31.8045 21.0612 32.2572 20.9387C32.6344 20.8495 32.85 20.7381 32.7853 20.6936C32.6883 20.6267 32.6883 20.5933 32.7853 20.5264C32.8716 20.4707 32.85 20.3816 32.7099 20.2256C32.5267 20.0028 32.5267 19.9917 32.7638 19.8357C33.0009 19.6574 33.0871 19.3566 32.8931 19.3566C32.8392 19.3566 32.5913 19.5572 32.3542 19.8023C31.9985 20.1699 31.9554 20.2591 32.0955 20.337C32.2249 20.415 32.1494 20.4707 31.7829 20.571C31.5135 20.6378 31.2656 20.6936 31.2332 20.6936C31.147 20.6936 31.2979 19.858 31.3949 19.8246C31.438 19.8023 31.4488 19.7131 31.4165 19.624C31.3518 19.4346 31.6105 19.4123 31.7937 19.6017C31.9769 19.7911 32.0847 19.624 31.9231 19.4123C31.8476 19.3121 31.8045 19.2341 31.826 19.2118C31.8476 19.2007 31.9662 19.1338 32.074 19.067C32.1925 19.0001 32.3111 18.8776 32.3326 18.7996C32.365 18.6993 32.2572 18.7216 31.9985 18.8776C31.6751 19.0781 31.5889 19.0892 31.4165 18.9667C31.2332 18.8219 31.2332 18.8107 31.4272 18.5879C31.5458 18.4542 31.5889 18.3539 31.5242 18.3539C31.4703 18.3539 31.3302 18.4542 31.2224 18.5768C31.0823 18.7327 30.9853 18.7662 30.9099 18.6882C30.8344 18.6102 30.8452 18.5322 30.9314 18.4431C31.0069 18.3651 31.0608 18.2314 31.0608 18.1423C31.0608 18.0197 30.9961 18.042 30.8129 18.2203C30.5865 18.4431 30.1985 18.5545 30.1985 18.4096C30.1985 18.3762 30.2739 18.1645 30.3601 17.9417C30.5434 17.4849 30.5542 17.4627 30.4356 17.4627C30.3925 17.4627 30.2416 17.6855 30.123 17.9529ZM29.8751 18.911C29.8751 18.9667 29.9721 19.0224 30.0799 19.0224C30.1985 19.0224 30.3278 19.0781 30.3601 19.1338C30.4033 19.2007 30.4787 19.2118 30.5434 19.1784C30.7266 19.0558 31.1578 19.3678 31.0931 19.5683C30.8991 20.2256 30.3817 20.571 29.8212 20.4262C29.5733 20.3593 29.5625 20.3148 29.5841 19.5795C29.5949 19.0447 29.6488 18.7996 29.735 18.7996C29.8104 18.7996 29.8751 18.8441 29.8751 18.911ZM28.9697 19.4012C28.6356 19.9471 28.8296 20.5264 29.4655 20.8718C29.7242 21.0055 29.7673 21.0723 29.6488 21.1503C29.3362 21.3509 28.1505 21.1615 28.1505 20.9052C28.1505 20.8607 28.226 20.8384 28.3122 20.8718C28.3984 20.9164 28.4739 20.8829 28.4739 20.8161C28.4739 20.7493 28.2583 20.5933 27.9889 20.4596C27.7194 20.3259 27.5038 20.1811 27.5038 20.1254C27.5038 19.9582 28.4739 19.1895 28.7757 19.1227C29.1637 19.0447 29.1853 19.0781 28.9697 19.4012ZM29.25 20.1922C29.444 20.727 29.347 20.8607 29.0775 20.4484C28.8943 20.1922 28.8404 19.6909 28.9913 19.6909C29.0344 19.6909 29.1529 19.9137 29.25 20.1922ZM31.0608 20.4707C31.0608 20.7381 29.8536 21.0501 29.7242 20.8161C29.6703 20.7381 29.7889 20.6936 30.0583 20.6936C30.2955 20.6936 30.5757 20.6156 30.6943 20.5264C30.9314 20.337 31.0608 20.3148 31.0608 20.4707Z" fill="black"/>
<path d="M30 19.8685C30 20.4534 30.2334 20.5202 30.7426 20.1191C31.167 19.7682 31.0609 19.4841 30.4668 19.4173C30.0637 19.3671 30 19.434 30 19.8685Z" fill="black"/>
<path d="M23.5429 26.2793C23.1953 26.4019 22.9918 26.6378 23.0003 26.9397C23.0087 27.1378 23.0427 27.185 23.1614 27.1567C23.2461 27.1284 23.297 27.0623 23.2716 26.9963C23.2292 26.8831 23.5768 26.5529 23.8566 26.4397C24.0262 26.3736 24.0517 26.1849 23.899 26.1944C23.8397 26.1944 23.6786 26.2415 23.5429 26.2793Z" fill="black"/>
<path d="M25 27.3949C25 27.5155 25.1751 27.7326 25.4027 27.8773C25.858 28.1788 26.0681 28.215 25.9805 27.9859C25.928 27.9135 25.858 27.6964 25.8054 27.5034C25.6829 27.1175 25 27.0331 25 27.3949Z" fill="black"/>
<path d="M33.7658 27.4725C33.2233 28.4061 32 30.8782 32 31.0373C32.0106 31.1328 32.468 30.3052 33.0212 29.2018C33.5743 28.0984 34.0104 27.186 33.9998 27.1648C33.9785 27.1542 33.8722 27.2921 33.7658 27.4725Z" fill="black"/>
<path d="M21.998 29.4241C20.9638 29.952 19.8542 30.865 20.0158 31.041C20.0589 31.074 20.3174 30.887 20.5975 30.623C21.7826 29.5011 22.8599 29.0831 23.5386 29.4791C23.6894 29.567 23.8833 29.633 23.9695 29.633C24.1958 29.622 23.0969 29.1051 22.8383 29.1051C22.7198 29.0941 22.3428 29.2481 21.998 29.4241Z" fill="black"/>
<path d="M25.026 29.9999C25.4539 30.0893 26.0437 30.1005 25.9974 30.0223C25.9627 29.9776 25.6967 29.9441 25.3961 29.9441C25.0954 29.9552 24.9335 29.9776 25.026 29.9999Z" fill="black"/>
<path d="M21.6786 31.584C20.5035 32.2008 19.5658 32.3442 19.3059 31.9426C19.2269 31.8278 19.1026 31.7274 19.0348 31.7274C18.967 31.7274 19.0009 31.7991 19.1139 31.8852C19.2156 31.9569 19.3059 32.1577 19.3059 32.3012C19.3059 32.545 19.4189 32.5737 20.8086 32.6168C21.6221 32.6455 22.5937 32.7602 22.9439 32.8606C23.362 32.9897 23.8365 33.0184 24.3336 32.9467C25.3505 32.8176 25.1697 32.6741 24.006 32.7172C23.3959 32.7315 22.8762 32.6598 22.5598 32.5164C22.3 32.4016 21.8706 32.3012 21.6221 32.3012L21.1701 32.2868L21.848 31.7848C22.5711 31.2541 22.6163 31.2541 23.8817 31.584C24.5144 31.7561 25.2036 31.6413 24.9437 31.4262C24.8533 31.3545 24.5483 31.3258 24.2658 31.3832C23.893 31.4405 23.6331 31.3975 23.3959 31.2397C22.9327 30.9385 22.9214 30.9385 21.6786 31.584Z" fill="black"/>
<path d="M31 32.5026C31 32.9296 31.0232 33.1147 31.0463 32.8869C31.0695 32.6734 31.0695 32.3318 31.0463 32.104C31.0232 31.8905 31 32.0756 31 32.5026Z" fill="black"/>
<path d="M27.2131 33.0533C26.8875 33.2255 26.9431 33.3633 27.3243 33.3403C27.6579 33.3174 27.6658 33.3289 27.7135 33.7193C27.7452 33.9374 27.7691 34.0178 27.777 33.903C27.777 33.7767 27.8485 33.5815 27.92 33.4667C27.9994 33.3403 28.0232 33.214 27.9756 33.1566C27.8485 32.9844 27.4355 32.927 27.2131 33.0533Z" fill="black"/>
<path d="M19.0407 32.023C18.9539 32.0606 19.0082 32.2236 19.1818 32.5246C19.3229 32.7754 19.4423 33.1014 19.4423 33.2644C19.4423 33.7911 20.0284 34.2676 20.8967 34.4306C21.32 34.5184 21.9061 34.6689 22.1991 34.7692C22.7961 34.9573 23.469 34.9824 23.8923 34.8068C24.0877 34.7316 24.0225 34.7191 23.6535 34.7692C22.9589 34.857 20.2021 34.1046 20.2021 33.8162C20.2021 33.766 20.1152 33.6908 20.0067 33.6657C19.8982 33.6281 19.7354 33.4149 19.6485 33.1766C19.2469 32.1358 19.1601 31.9728 19.0407 32.023Z" fill="black"/>
<path d="M9.04335 32.3915C8.99704 32.652 8.98546 32.9126 9.02019 32.9777C9.05493 33.0212 9.11281 32.8692 9.15912 32.6086C9.20543 32.348 9.21701 32.0875 9.18228 32.0223C9.14755 31.9789 9.08966 32.1309 9.04335 32.3915Z" fill="black"/>
<path d="M12.0188 33.1099C11.9854 33.1779 11.9965 33.2687 12.0523 33.314C12.2309 33.4388 13.7823 35.9452 13.7265 36.0133C13.6595 36.07 14.0725 36.9433 14.8314 38.3156C15.0546 38.7239 15.4341 39.4384 15.6908 39.9034C15.9364 40.3684 16.2377 40.9355 16.3605 41.151C16.4832 41.3664 16.7176 41.7974 16.885 42.115C17.0525 42.4212 17.4208 43.113 17.711 43.6461C18.0011 44.1791 18.5704 45.2906 18.961 46.1299C19.4744 47.2186 19.7199 47.6156 19.8092 47.5249C19.9432 47.3888 19.9208 47.3547 16.1038 40.1869C15.9029 39.8127 15.5122 39.0755 15.2332 38.5424C14.9542 38.0094 14.664 37.4763 14.5747 37.3516C14.3292 36.9886 14.4073 36.7845 14.6752 37.1247C15.0211 37.5784 17.1083 39.3704 17.8226 39.8354C20.0548 41.2871 22.7781 41.9222 24.7536 41.4572C25.2446 41.3324 25.0995 41.3211 23.4142 41.3097C21.5615 41.2984 21.4945 41.2984 20.5124 40.9355C18.7489 40.289 17.0636 39.2456 16.2377 38.3156C16.0368 38.0888 15.4341 37.3062 14.8984 36.5917C12.8336 33.8357 12.1862 32.9851 12.1416 32.9851C12.1193 32.9851 12.0635 33.0418 12.0188 33.1099Z" fill="black"/>
<path d="M32 33.0006C32 33.1818 32.6061 33.8271 33.297 34.3706L34 34.9254L33.1879 34.1442C32.7394 33.7139 32.2909 33.261 32.1818 33.1365C32.0848 33.0119 32 32.9553 32 33.0006Z" fill="black"/>
<path d="M10.4906 34.5453C9.69511 35.5944 8.97539 37.1743 9.00065 37.7936C9.00065 37.9327 9.11429 37.7178 9.24055 37.3007C9.45521 36.6182 10.1749 35.2531 10.8063 34.2925C11.1851 33.7364 10.9704 33.9007 10.4906 34.5453Z" fill="black"/>
<path d="M8 35.4331C8 35.8646 8.02315 36.0216 8.04631 35.7862C8.06946 35.5508 8.06946 35.1977 8.04631 35.0016C8.02315 34.8054 8 35.0016 8 35.4331Z" fill="black"/>
<path d="M32.5294 35.1534C31.6424 35.78 29.961 38.6935 30.0007 39.5401C30.0272 39.8369 30.0272 39.8479 30.0801 39.6061C30.3582 38.3637 31.7218 36.0989 32.6486 35.3513C33.1782 34.9115 33.0855 34.7576 32.5294 35.1534Z" fill="black"/>
<path d="M22.5092 35.538C21.6064 35.7949 21.8892 35.8955 23.4772 35.8955C24.3147 35.8955 25 35.862 25 35.8285C25 35.5156 23.2923 35.3145 22.5092 35.538Z" fill="black"/>
<path d="M9.11821 39.0609C9.50272 39.7077 9.84746 40.1176 9.96679 40.063C10.0331 40.0356 10.1259 40.0539 10.1657 40.1085C10.2718 40.2269 11.7568 40.7462 11.9822 40.7462C12.075 40.7371 11.7966 40.6187 11.3457 40.482C10.3778 40.1723 9.6088 39.653 9.48946 39.2248C9.43643 39.0518 9.37013 38.9333 9.33035 38.9607C9.29058 38.988 9.1845 38.9424 9.09169 38.8513C8.9591 38.7511 8.97236 38.8149 9.11821 39.0609Z" fill="black"/>
<path d="M13.2644 39.995C13.4872 40.1129 13.7322 40.3487 13.8213 40.5172C13.9549 40.8119 13.9772 40.8119 13.9995 40.5761C14.0218 40.3487 13.309 39.7761 13.0194 39.7761C12.9526 39.7761 13.064 39.8771 13.2644 39.995Z" fill="black"/>
<path d="M29.3805 39.2773C29.0888 39.5567 28.9247 39.7761 29.0341 39.7761C29.1435 39.7761 29.417 39.5567 29.654 39.2773C30.2011 38.6389 30.0917 38.6589 29.3805 39.2773Z" fill="black"/>
<path d="M28.6307 40.489C28.3275 41.5584 27.4294 44.9505 27.0912 46.2729C26.9046 47.0203 26.753 48.0552 26.6713 49.2166C26.543 51.0219 26.578 51.4128 26.823 51.3208C26.9163 51.2863 27.0329 51.6428 27.1728 52.3672C27.3711 53.3791 27.3711 53.5056 27.2078 54.0575C26.9979 54.7705 26.9279 54.874 26.613 55.0464C26.4264 55.1384 26.2515 55.1039 25.7966 54.8855C25.47 54.736 25.1668 54.6095 25.0968 54.6095C25.0385 54.6095 24.8169 54.46 24.6186 54.2875C24.2921 54 23.9655 53.4251 22.0644 49.8375C21.1547 48.1242 21.108 48.0552 21.0031 48.3312C20.9214 48.5496 22.4843 51.7693 23.2307 52.8847C23.8139 53.7816 24.7586 54.69 25.2601 54.851C25.4934 54.9314 25.7849 55.0579 25.9132 55.1384C26.4031 55.4719 26.7996 55.2879 27.1612 54.552C27.4761 53.9311 27.5111 53.3791 27.3011 52.3097L27.1029 51.2748L27.4061 51.0449C27.5811 50.9069 27.721 50.7229 27.721 50.6194C27.721 50.4929 27.6394 50.5389 27.4761 50.7459C27.1845 51.1024 27.0562 51.0679 27.2545 50.6769C27.3828 50.4239 27.3711 50.4239 27.2078 50.6309C27.1029 50.7574 27.0212 50.9299 27.0212 51.0104C27.0212 51.0909 26.9629 51.1599 26.8929 51.1599C26.8113 51.1599 26.788 50.6194 26.8346 49.3775L26.8929 47.5952L27.8376 44.1916C28.3625 42.3288 28.829 40.673 28.8873 40.512C29.0273 40.167 29.0389 39.7761 28.9106 39.7761C28.864 39.7761 28.7357 40.098 28.6307 40.489Z" fill="black"/>
<path d="M12.2068 40.3698C12.1953 40.4704 12.1374 40.5709 12.0563 40.5933C11.9637 40.6268 11.9869 40.6715 12.1142 40.7162C12.3573 40.8056 12.4268 40.6938 12.2995 40.4033C12.23 40.2246 12.2068 40.2246 12.2068 40.3698Z" fill="black"/>
<path d="M29.8118 43.6538C29.4992 44.894 29.094 47.1733 29.1056 47.6202C29.1172 47.9889 29.2445 47.5085 29.615 45.5755C30.0318 43.4191 30.1476 42.7599 30.1012 42.7152C30.0781 42.6929 29.9507 43.1174 29.8118 43.6538Z" fill="black"/>
<path d="M20.0058 47.8101C19.9711 47.8772 20.0174 47.9554 20.1216 47.9889C20.3415 48.0783 20.4689 47.9889 20.3531 47.8213C20.2605 47.6649 20.0984 47.6649 20.0058 47.8101Z" fill="black"/>
<path d="M20.3184 48.4359C20.3647 48.6705 20.5731 48.6928 20.6194 48.447C20.6426 48.3353 20.5847 48.2571 20.4689 48.2571C20.3531 48.2571 20.2952 48.3241 20.3184 48.4359Z" fill="black"/>
<path d="M28.8742 50.2234C28.8742 50.581 28.9205 51.0838 28.9784 51.3296C29.0478 51.6313 29.0478 51.4413 29.0131 50.7151C28.9436 49.5084 28.8626 49.229 28.8742 50.2234Z" fill="black"/>
<path d="M15.1434 52.0447C15.1086 52.1006 15.1202 52.1788 15.1665 52.2011C15.2707 52.257 15.7801 52.0894 15.7801 52C15.7801 51.8995 15.2128 51.9441 15.1434 52.0447Z" fill="black"/>
<path d="M49.0418 52.1341C49.146 52.1565 49.3313 52.1565 49.447 52.1341C49.5512 52.1006 49.4586 52.0783 49.2386 52.0783C49.0187 52.0783 48.9261 52.1006 49.0418 52.1341Z" fill="black"/>
<path d="M47.8957 52.4805C47.5831 52.6592 47.1895 52.8827 47.0274 52.9833C46.6222 53.2626 45.4529 54.3799 45.0245 54.905C44.8277 55.1508 45.1055 54.9162 45.6497 54.3911C46.7958 53.2738 47.2821 52.905 48.1851 52.4916C48.544 52.3129 48.7524 52.1788 48.6598 52.1788C48.5672 52.1788 48.2199 52.3129 47.8957 52.4805Z" fill="black"/>
<path d="M49.9102 52.4246C50.0839 52.6033 50.1649 52.8268 50.1649 53.1508C50.1649 54.1452 49.5976 54.8268 48.2547 55.4637C47.2127 55.9553 46.1707 56.1899 45.0361 56.1899H44.1447L44.3299 55.8771L44.5152 55.5754L44.2605 55.8771C44.0636 56.1229 43.9016 56.1899 43.5311 56.2123C43.1027 56.2234 43.0911 56.2346 43.4269 56.2681C43.8437 56.324 43.89 56.4581 43.6121 56.838C43.5079 56.9832 43.45 57.1173 43.4732 57.1508C43.5079 57.1732 43.6237 57.0279 43.7395 56.8156C43.9479 56.4469 43.9479 56.4469 45.0014 56.3799C48.0926 56.1787 50.2807 54.8715 50.2807 53.229C50.2807 52.6704 50.0492 52.1676 49.7945 52.1676C49.725 52.1676 49.7713 52.2793 49.9102 52.4246Z" fill="black"/>
<path d="M13.6382 52.5029C13.4298 52.5922 13.4414 52.6034 13.7193 52.6034C13.8929 52.6146 14.0666 52.5587 14.1013 52.5029C14.1824 52.3688 13.9624 52.3688 13.6382 52.5029Z" fill="black"/>
<path d="M12.191 52.894C11.6585 53.0951 11.8669 53.0951 12.5962 52.9052C12.9436 52.8046 13.0593 52.7487 12.8857 52.7487C12.7236 52.7487 12.411 52.8158 12.191 52.894Z" fill="black"/>
<path d="M8.13897 54.067C6.88861 54.7039 6.27501 55.6089 6.30975 56.7598L6.32132 57.4749L6.39079 56.6927C6.4371 56.257 6.55287 55.7542 6.65707 55.5754C6.91177 55.1285 7.60641 54.5028 8.25475 54.1341C8.84519 53.8101 8.75257 53.743 8.13897 54.067Z" fill="black"/>
<path d="M18.0492 54.2905C18.1881 54.3352 18.466 54.581 18.6744 54.8157C18.8712 55.0503 18.987 55.1397 18.9291 55.0168C18.7439 54.6592 18.1997 54.1788 17.9913 54.19C17.864 54.19 17.8756 54.2235 18.0492 54.2905Z" fill="black"/>
<path d="M42.3502 56.0782C42.4775 56.1341 42.6859 56.1676 42.8133 56.1676C42.9985 56.1676 42.9869 56.1453 42.7554 56.0782C42.3618 55.9553 42.0607 55.9553 42.3502 56.0782Z" fill="black"/>
<path d="M18.7207 56.9944C18.6744 57.0726 18.5586 57.2626 18.466 57.419C18.3039 57.6871 18.3155 57.6871 18.5007 57.4748C18.7323 57.2067 18.9291 56.8603 18.8596 56.8603C18.8249 56.8603 18.767 56.9274 18.7207 56.9944Z" fill="black"/>
<path d="M6.47182 57.81C6.54128 58.1787 7.03911 59.1955 7.23592 59.3743C7.29381 59.4301 7.21277 59.2067 7.03911 58.8715C6.86545 58.5363 6.64548 58.0893 6.56443 57.8659C6.41393 57.5083 6.40235 57.5083 6.47182 57.81Z" fill="black"/>
<path d="M42.79 59.8212C42.79 60.3128 42.8132 60.5027 42.8363 60.2346C42.8595 59.9776 42.8595 59.5754 42.8363 59.3407C42.8132 59.1173 42.79 59.3296 42.79 59.8212Z" fill="black"/>
<path d="M12.5963 60.2124C11.7743 61.2068 11.1954 61.5643 10.2808 61.6649L9.58618 61.7431L10.1419 61.7655C10.8597 61.7766 11.3691 61.5643 12.0522 60.9498C12.55 60.4917 13.4415 59.4303 13.3141 59.4303C13.2794 59.4303 12.9668 59.7878 12.5963 60.2124Z" fill="black"/>
<path d="M7.80326 60.2123C8.15058 60.7151 9.04204 61.5531 9.2157 61.5531C9.29674 61.5531 9.19254 61.419 8.98415 61.2738C8.77576 61.1173 8.37055 60.7263 8.06954 60.4023C7.71064 60.0112 7.61802 59.9553 7.80326 60.2123Z" fill="black"/>
<path d="M42.9868 61.2514C42.9868 61.3296 43.0679 61.4972 43.1605 61.6201C43.311 61.81 43.3226 61.7989 43.2068 61.4637C43.0794 61.095 42.9868 61.0056 42.9868 61.2514Z" fill="black"/>
<path d="M23.4212 62.2235C23.1896 62.2905 23.1781 62.3129 23.3633 62.3129C23.4907 62.3129 23.7222 62.2682 23.8843 62.2235C24.1158 62.1564 24.1274 62.1341 23.9422 62.1341C23.8148 62.1341 23.5833 62.1788 23.4212 62.2235Z" fill="black"/>
<path d="M21.0478 62.5028C20.5384 62.581 19.4501 62.7374 18.6165 62.8491L17.1115 63.0614L18.0029 63.0949C18.6397 63.1173 19.4269 63.0279 20.712 62.7933C23.0854 62.3463 23.3054 62.1676 21.0478 62.5028Z" fill="black"/>
<path d="M44.2605 62.9497C44.2605 62.9721 44.6078 63.1955 45.0478 63.4413C45.7656 63.8547 47.5832 64.5251 47.699 64.4134C47.7221 64.3911 47.4211 64.2682 47.0043 64.1341C46.5991 64 45.8234 63.676 45.2677 63.4078C44.712 63.1285 44.2605 62.9274 44.2605 62.9497Z" fill="black"/>
<path d="M48.1967 64.5698C48.3588 64.6145 48.6135 64.6592 48.7756 64.6592C49.0303 64.6592 49.0303 64.648 48.7177 64.5698C48.5324 64.5251 48.2662 64.4804 48.1388 64.4804C47.9536 64.4804 47.9652 64.5028 48.1967 64.5698Z" fill="black"/>
<path d="M51.8205 64.9832C51.9942 65.0056 52.272 65.0056 52.4573 64.9832C52.6309 64.9609 52.4804 64.9385 52.1331 64.9385C51.7858 64.9385 51.6353 64.9609 51.8205 64.9832Z" fill="black"/>
<path d="M54.3675 64.9832C54.5412 65.0056 54.7959 65.0056 54.9464 64.9832C55.0853 64.9609 54.9464 64.9385 54.6222 64.9385C54.3097 64.9385 54.1823 64.9609 54.3675 64.9832Z" fill="black"/>
</svg>
