<svg width="32" height="22" viewBox="0 0 32 22" fill="none" xmlns="http://www.w3.org/2000/svg">
<path d="M15.8187 2.33508C12.4563 2.79824 11.1381 7.08245 13.6312 9.46578C16.239 11.9553 20.5279 10.0544 20.5375 6.40701C20.5375 3.89824 18.3309 1.98771 15.8187 2.33508Z" fill="#191D23"/>
<path d="M7.0878 7.24652C5.1869 8.0088 4.65197 10.4693 6.06571 12.0421C6.87765 12.9588 8.42511 13.2193 9.55227 12.6404C9.95347 12.4378 10.6126 11.743 10.8514 11.2799C11.0997 10.7974 11.1475 9.60091 10.9469 8.99301C10.7368 8.37547 10.1923 7.73863 9.54272 7.38161C8.85496 7.00529 7.83287 6.9474 7.0878 7.24652Z" fill="#191D23"/>
<path d="M23.7756 7.17898C22.9159 7.48775 22.1899 8.18249 21.932 8.95441C21.7219 9.57196 21.741 10.6527 21.9702 11.1641C22.7153 12.8334 24.7499 13.4606 26.2783 12.486C27.4054 11.772 27.9022 10.2377 27.4054 8.92547C26.8801 7.50705 25.1511 6.67722 23.7756 7.17898Z" fill="#191D23"/>
<path d="M15.3027 11.8685C14.5863 12.0036 13.4973 12.4474 12.8668 12.872C12.0645 13.4123 11.071 14.5316 10.6698 15.3615C10.1731 16.365 10.0203 17.0597 9.96297 18.4299C9.91521 19.5395 9.92476 19.6553 10.1063 19.8772L10.2973 20.1185H16.4298H22.5624L22.7534 19.8772C22.9349 19.6553 22.9445 19.5395 22.8967 18.4299C22.8107 16.3167 22.3236 15.1202 21.0149 13.7886C20.117 12.872 19.5152 12.486 18.4071 12.1097C17.557 11.8299 16.1624 11.7141 15.3027 11.8685Z" fill="#191D23"/>
<path d="M6.94453 14.3772C5.81736 14.7342 4.93856 15.5255 4.42274 16.6544C4.17438 17.1948 4.15527 17.3009 4.15527 18.5746C4.15527 19.9158 4.15527 19.9158 4.39408 20.0413C4.57557 20.1377 5.17736 20.157 6.72483 20.1377L8.80721 20.1184L8.79766 18.8544C8.77856 17.3588 8.94095 16.4132 9.409 15.3035C9.5905 14.879 9.71468 14.5027 9.69557 14.4641C9.6096 14.3386 8.71169 14.1842 8.0908 14.1939C7.76602 14.1939 7.2502 14.2711 6.94453 14.3772Z" fill="#191D23"/>
<path d="M23.6417 14.2904C23.4316 14.3386 23.231 14.4158 23.1832 14.4641C23.145 14.5027 23.2405 14.8114 23.3934 15.1588C23.8901 16.2684 23.9952 16.8088 24.0334 18.5263L24.0716 20.1184L26.154 20.1377C27.6919 20.157 28.2841 20.1377 28.4656 20.0413C28.7044 19.9158 28.7044 19.9158 28.7044 18.5746C28.7044 17.3009 28.6853 17.1948 28.437 16.6544C27.5773 14.7921 25.6191 13.8272 23.6417 14.2904Z" fill="#191D23"/>
</svg>
