<svg width="55" height="63" viewBox="0 0 55 63" fill="none" xmlns="http://www.w3.org/2000/svg">
<path d="M38.9181 0.18872C37.5866 0.38861 37.3096 0.497641 38.3216 0.415868C39.9515 0.297751 42.9662 0.261407 43.4881 0.361352C44.2445 0.497641 45.8104 1.17909 46.7159 1.76967C47.6959 2.3966 47.6214 2.2694 46.5774 1.54252C44.5747 0.143291 42.1033 -0.292834 38.9181 0.18872Z" fill="black"/>
<path d="M34.302 1.30132C33.3471 1.59758 31.85 2.38381 31.0484 2.99911C29.7045 4.04742 29.0915 5.14129 29.0915 6.53143C29.0798 7.26069 29.3627 8.40014 29.5984 8.65082C29.7635 8.83314 29.7281 8.34317 29.5277 7.80762C29.4334 7.54555 29.3509 6.95303 29.3509 6.50864C29.3509 5.09572 30.1525 3.85371 31.7086 2.85099C32.6163 2.26986 34.2666 1.49503 34.8914 1.36969C35.1154 1.32411 35.3865 1.24435 35.4808 1.18738C35.8109 1.00506 34.9857 1.08483 34.302 1.30132Z" fill="black"/>
<path d="M37.3289 3.31479C36.352 3.43923 35.0088 3.82384 34.3538 4.15189C33.5768 4.55912 32.7331 5.2831 32.4556 5.79214C32.2558 6.14282 32.1004 6.26725 31.7229 6.36906C31.2123 6.51612 30.7905 6.91204 30.2798 7.73783C29.9912 8.20162 29.9468 8.85772 30.191 8.93691C30.3575 8.99347 31.1235 8.45049 31.7784 7.8057C32.5222 7.07041 33.3104 6.82154 34.9533 6.75367L36.1744 6.71974L35.2752 6.86679C33.6434 7.13829 32.4112 7.50027 32.5666 7.65864C32.5999 7.68127 33.4214 7.55683 34.3982 7.37584C35.4084 7.19485 36.574 7.04779 37.0957 7.04779C38.0726 7.04779 38.3723 7.1496 42.7239 9.0274C44.278 9.69482 44.2891 9.69482 44.2225 9.62695C44.1004 9.4912 40.7923 7.83963 40.1929 7.61339C39.8377 7.47765 39.5712 7.3419 39.5934 7.31928C39.6822 7.22878 41.6915 7.72651 42.7239 8.0885C44.5555 8.73329 46.0652 9.60432 47.3751 10.7695C47.7304 11.0975 48.0412 11.3351 48.0745 11.3011C48.1078 11.2785 47.9302 11.0636 47.6749 10.8373C45.5879 8.91428 42.6129 7.57946 39.4269 7.13829C38.8941 7.0591 38.4501 6.96861 38.4501 6.92336C38.4501 6.88942 39.3381 6.87811 40.426 6.90073C42.0689 6.94598 42.7128 7.01385 44.3446 7.33059C47.5305 7.95275 48.5407 8.04325 48.9626 7.70389C49.1069 7.59077 50.0393 8.35999 51.0606 9.43464C52.1929 10.645 52.2706 10.7921 52.8812 12.6699C53.192 13.6541 53.5805 14.6721 53.7248 14.9323C54.1356 15.6676 54.0912 16.4142 53.5472 17.6925C53.303 18.2694 53.1254 18.7558 53.1587 18.7898C53.1809 18.8124 53.2808 18.6427 53.3807 18.4051C53.4806 18.1563 53.6471 17.7603 53.7692 17.5115C53.969 17.059 53.969 17.059 53.9801 17.3984C53.9912 17.9413 53.7026 19.3893 53.4584 20.0341C53.3252 20.3734 53.0144 21.0069 52.7479 21.4481C52.2817 22.2513 52.2817 22.2626 52.204 21.9232C52.1374 21.6065 52.1263 21.6178 52.1152 22.0476C52.1041 22.3644 52.0264 22.5793 51.871 22.7264L51.6268 22.9413L51.7045 22.6019C51.76 22.3304 51.7489 22.2965 51.649 22.4662C51.5824 22.5793 51.5602 22.7377 51.5824 22.8282C51.6157 22.9074 51.1383 23.5748 50.4945 24.344L49.3289 25.7128L49.1402 25.4186C48.9626 25.1245 48.9626 25.034 49.2512 23.292C49.4177 22.2965 49.5731 21.1087 49.6064 20.6789C49.6286 20.2377 49.4954 20.9391 49.2845 22.2173C49.0847 23.5069 48.896 24.6155 48.8626 24.6947C48.8182 24.8304 48.13 23.6766 47.0199 21.6404C46.8645 21.3576 46.6758 21.0295 46.5981 20.9051C46.5093 20.7807 46.4427 20.5997 46.4427 20.4979C46.4427 19.8644 45.0551 15.7581 44.7886 15.5884C44.7442 15.5658 44.6554 15.5771 44.5888 15.6224C44.4889 15.6789 44.5333 16.0183 44.7442 16.8328C44.9774 17.749 45.044 18.3599 45.0995 20.0567C45.1772 22.0929 45.1772 22.1042 45.1994 20.7015C45.2105 19.9096 45.2549 19.2649 45.3104 19.2649C45.3548 19.2649 45.599 19.6382 45.8543 20.0906C46.1651 20.6449 46.3539 21.1427 46.4427 21.6404C46.5648 22.3983 46.7091 25.7014 46.5981 25.3395C46.5648 25.2377 46.4871 25.1472 46.4316 25.1472C46.3539 25.1472 46.3428 25.5091 46.4094 26.1879C46.587 28.2693 46.4316 29.0725 45.6434 30.0566C45.1328 30.7127 44.1115 32.3869 44.1115 32.5792C44.1115 32.6245 44.3668 32.2398 44.6776 31.7082C45.3437 30.577 45.9209 29.8191 45.9764 29.9887C46.0319 30.1697 45.488 31.448 44.9885 32.3077C44.5666 33.0317 44.5222 33.0656 44.3668 32.8733C44.2225 32.681 44.2114 32.6923 44.2669 33.0091C44.3002 33.2579 44.2336 33.4502 44.0449 33.7217C43.8895 33.9253 43.7119 34.0611 43.6563 34.0272C43.6008 33.9819 43.5564 34.0272 43.5564 34.1063C43.5564 34.2534 42.7794 35.1018 42.6462 35.1018C42.6129 35.1018 42.7461 34.7851 42.957 34.3891C43.5009 33.3597 43.4121 33.3371 42.8127 34.3665C42.191 35.3959 41.9912 35.5543 42.0689 34.9095C42.1022 34.5814 42.0911 34.5362 42.0134 34.7059C41.9579 34.8303 41.9024 35.0905 41.9024 35.2941C41.8913 35.6222 41.8136 35.7013 41.1587 36.0746C40.3927 36.5045 40.1485 36.5611 39.3825 36.414C38.883 36.3122 38.9052 36.2896 38.7276 37.0588C38.6277 37.5339 38.9163 37.3982 39.0384 36.9231C39.105 36.6403 39.1716 36.5724 39.3159 36.6289C39.9265 36.8665 40.0819 36.8212 41.5694 35.9955C42.6795 35.362 43.2123 34.9887 43.7341 34.4457L44.4223 33.733L44.611 34.5928C45.1661 37.1719 43.7119 40.3732 41.2031 42.0814C39.8155 43.009 37.8506 43.5067 36.3964 43.2805L35.8413 43.19L35.7747 42.6809L35.7081 42.1719L35.697 42.6583C35.6748 43.0655 35.6415 43.1334 35.4861 43.0882C34.5981 42.8053 33.4214 42.5678 32.9107 42.5678C32.1892 42.5678 31.1457 42.8167 30.7017 43.0995C30.2465 43.3823 29.4584 44.1741 29.525 44.2759C29.5583 44.3325 29.7248 44.1967 29.9135 43.9818C30.8349 42.9185 32.7331 42.5339 34.5648 43.0429C35.4972 43.3031 35.5083 43.3144 35.4972 43.6538C35.4861 43.8574 35.3196 44.2194 35.0865 44.5248C34.809 44.8868 34.6647 45.2261 34.6203 45.5881C34.5092 46.4365 34.4759 46.5497 34.1096 47.1266C33.8654 47.5338 33.7211 47.6582 33.5879 47.613C32.5888 47.2849 32.4667 47.2736 32.2336 47.4886C32.056 47.6469 32.0116 47.8279 32.0116 48.3257C32.0116 48.6763 32.056 49.1288 32.1115 49.3211C32.1781 49.5474 32.1781 49.717 32.1115 49.751C31.9561 49.8528 30.0689 48.4953 29.7359 48.0429C29.2918 47.4546 29.1031 46.7533 29.1475 45.9049C29.1919 45.0112 29.0587 44.932 28.9588 45.7917C28.7812 47.1944 29.3251 48.1786 30.8571 49.2306C31.4232 49.6265 31.8672 49.9885 31.845 50.0338C31.8117 50.079 31.3788 50.475 30.8793 50.9048C30.2354 51.4591 28.8478 52.3528 26.2946 53.8686C24.2854 55.0677 22.6091 56.0744 22.5869 56.0971C22.5647 56.1197 22.5758 56.1763 22.6202 56.2215C22.709 56.312 23.4861 55.9161 25.5176 54.7396C25.7618 54.5926 26.3612 54.2532 26.8497 53.993C28.6258 53.0089 30.2354 51.855 31.4343 50.6673L32.0227 50.0903L32.4334 50.3279C32.9551 50.6333 33.4547 51.5609 33.4547 52.2283C33.4547 52.9071 32.9218 53.9478 32.2225 54.6265C31.6008 55.226 31.0236 55.6107 29.7581 56.2554C28.6813 56.8097 27.993 57.6016 27.7599 58.5405C27.66 58.9364 27.549 59.5812 27.5157 59.9884C27.3381 61.6853 27.0162 62.1943 25.8062 62.6128C24.9625 62.8956 24.1077 62.9183 18.9125 62.7938C17.1697 62.7599 15.9486 62.7373 16.1928 62.7599C16.4371 62.7825 18.2909 62.8617 20.3002 62.9296C24.2743 63.0766 25.4287 63.0088 26.3279 62.5789C27.0051 62.2395 27.4269 61.6626 27.5157 60.9613C27.6933 59.5133 27.9375 58.3369 28.1263 57.9523C28.4371 57.3414 29.1808 56.7305 30.413 56.0858C32.7553 54.8641 34.0208 53.0315 33.5213 51.5496C33.4214 51.2555 33.3659 50.9953 33.3881 50.9727C33.4103 50.9501 33.599 51.0292 33.7988 51.1537C34.3205 51.4591 36.1189 52.0926 36.3298 52.036C36.4297 52.0134 36.2854 51.9342 36.0079 51.855C34.7313 51.5044 33.266 50.7464 32.7553 50.1695C32.6332 50.0451 32.4778 49.9659 32.389 49.9998C32.3002 50.0338 32.2336 49.9998 32.2336 49.9207C32.2336 49.8528 32.2891 49.8302 32.3446 49.8641C32.4112 49.898 32.4556 49.8754 32.4556 49.8075C32.4556 49.6492 33.6767 47.9976 33.7877 47.9976C33.8432 47.9976 34.0208 48.122 34.1984 48.2691C34.698 48.699 36.3409 49.7397 37.0624 50.0903C37.4288 50.2713 37.7729 50.441 37.8173 50.4636C37.8617 50.4863 37.8839 50.441 37.8728 50.3618C37.8506 50.2713 37.5509 50.0677 37.1957 49.898C36.0523 49.3324 34.6758 47.7827 34.6758 47.0474V46.6967L34.9311 47.1039C35.7303 48.4275 36.907 49.2193 39.0606 49.898C39.6711 50.0903 40.2706 50.3279 40.3927 50.4184C40.6036 50.5768 40.5814 50.5881 40.1152 50.5994C39.8377 50.5994 39.2715 50.5202 38.8497 50.4297C38.4278 50.3392 38.0615 50.2826 38.0393 50.3053C37.9283 50.4071 39.3936 50.7125 40.0375 50.7125C41.3474 50.7125 41.081 50.3845 39.2826 49.8075C37.0513 49.0836 35.6748 48.1447 35.0643 46.9343C34.7424 46.2895 34.7868 46.1877 35.5083 45.9162C35.7525 45.8257 35.8858 45.7465 35.808 45.7465C35.7303 45.7352 35.4861 45.8144 35.2641 45.9049C35.0532 45.9954 34.8534 46.0745 34.8423 46.0745C34.8201 46.0745 34.9866 45.6673 35.2086 45.1809C35.5527 44.389 35.6637 44.2533 36.0523 44.0723C36.6184 43.8121 38.2835 43.8008 39.6711 44.0384C40.1929 44.1289 41.2919 44.208 42.1133 44.208C43.9894 44.208 44.7109 44.0157 45.6323 43.2578C47.8192 41.4705 48.1744 37.8167 46.9866 29.5928L46.8756 28.767L47.2641 28.3485C47.4861 28.1109 47.6638 27.8621 47.6527 27.8055C47.6527 27.7376 47.4861 27.8847 47.2863 28.1222C46.9866 28.4616 46.8978 28.5068 46.8423 28.3711C46.809 28.2693 46.809 27.2625 46.8423 26.1313C46.8756 25.0001 46.8534 23.5408 46.7979 22.8847C46.6869 21.697 46.698 21.4255 46.8534 21.8214C46.8978 21.9345 47.253 22.5906 47.6638 23.2807C48.0634 23.9594 48.4852 24.7286 48.6073 24.9775C48.7294 25.2263 48.896 25.4978 48.9737 25.577C49.1957 25.8259 49.1402 25.939 48.4297 26.7535C48.0634 27.172 47.8081 27.5227 47.8636 27.5227C47.9191 27.5227 48.0523 27.4209 48.1633 27.2965C48.3187 27.1155 48.3964 27.0928 48.4741 27.206C48.5407 27.3191 48.5518 27.2965 48.5185 27.1607C48.4741 27.0589 48.6184 26.7874 48.8515 26.5046L49.2512 26.0295L49.6952 26.81C50.2503 27.7716 50.5833 28.8349 50.4279 29.1177C50.3502 29.2761 50.3613 29.31 50.4723 29.2648C50.8275 29.129 50.994 32.5905 50.772 35.8371C50.5389 39.4909 49.5065 42.285 47.7526 44.0723C47.0199 44.8189 46.0541 45.3279 44.8996 45.5542C44.167 45.7126 44.167 45.7126 44.6776 45.7239C44.9551 45.7239 45.4658 45.6334 45.7988 45.5203C48.1966 44.6832 49.8284 42.2737 50.6721 38.3258C50.8275 37.5792 50.9163 36.4932 51.0051 34.3213C51.1161 31.3688 51.0828 30.6561 50.7165 28.6539C50.6166 28.1562 50.0615 26.9345 49.5398 26.0861C49.4177 25.8711 49.5065 25.7354 50.6055 24.4571C51.2715 23.6879 51.871 22.9979 51.9376 22.9413C52.1374 22.7716 53.2697 20.973 53.4695 20.5092C54.1023 19.0499 54.402 16.3237 54.1134 14.7626C54.0578 14.5025 54.0578 14.2875 54.0912 14.2875C54.1911 14.2875 54.6018 15.6337 54.7572 16.4368C54.957 17.5002 54.9792 17.5341 54.9237 16.7196C54.8904 16.2672 54.7239 15.5206 54.5352 14.9663C54.3465 14.4346 54.1467 13.6201 54.0912 13.1563C53.9912 12.3305 53.747 11.3011 53.5583 10.8373C52.8146 9.1179 52.1041 7.83963 51.8821 7.83963C51.8155 7.83963 51.9043 8.05457 52.0819 8.31474C52.5259 8.97084 53.2475 10.464 53.525 11.3011C53.7581 11.9799 53.9579 13.1563 53.858 13.1563C53.8247 13.1563 53.6804 12.8396 53.5472 12.4437C53.192 11.4595 52.6258 10.3283 52.0819 9.50251C51.4714 8.57492 50.2059 7.25141 49.5065 6.79892C49.1957 6.5953 48.6628 6.222 48.3298 5.96183C46.3095 4.38944 43.1124 3.40529 39.5601 3.26955C38.7387 3.24692 37.7285 3.25823 37.3289 3.31479ZM41.4473 3.65416C44.5 4.03877 47.8969 5.49803 48.8071 6.82154C49.1291 7.28534 49.0181 7.28534 48.3076 6.81023C46.7757 5.79214 44.5777 4.85324 42.6684 4.40076C40.8922 3.9709 38.4501 3.86909 36.8959 4.15189C35.9746 4.32157 34.6425 4.81931 34.2872 5.11342C33.7655 5.5659 32.8885 6.14282 32.722 6.14282C32.5555 6.14282 32.5666 6.10888 32.7331 5.82608C33.3881 4.79668 35.1864 3.84646 36.8404 3.65416C37.895 3.52972 40.426 3.52972 41.4473 3.65416ZM41.4473 4.37813C43.8562 4.78537 46.3539 5.74689 48.1966 6.96861C48.574 7.22878 48.8848 7.46634 48.8848 7.51159C48.8848 7.65864 47.9857 7.74914 47.3529 7.66995C46.9977 7.62471 45.8432 7.40977 44.7775 7.18353C42.9681 6.81023 42.6351 6.7763 39.8932 6.6858C38.2724 6.64055 36.352 6.57268 35.6193 6.53874C34.4315 6.48218 34.1762 6.50481 33.2882 6.75367C32.7442 6.90073 32.2669 7.01385 32.2558 6.99123C32.2336 6.96861 32.2447 6.84417 32.2891 6.71974C32.3446 6.52743 32.4556 6.48218 32.8885 6.48218C33.4769 6.48218 33.6212 6.403 33.4436 6.18807C33.3659 6.08626 33.4325 5.97314 33.6989 5.76952C35.0199 4.75143 36.7627 4.2537 39.1161 4.23108C39.8821 4.23108 40.9255 4.29895 41.4473 4.37813ZM31.9561 7.03648C31.8117 7.47765 31.1901 8.13375 30.5573 8.5523L30.2354 8.76723V8.49574C30.2354 8.22425 30.5573 7.65864 30.5684 7.91882C30.5684 8.22425 30.7794 8.04325 30.8571 7.68127C30.9348 7.25141 31.1124 7.04779 31.623 6.7763C32.1004 6.51612 32.1337 6.53874 31.9561 7.03648ZM50.7276 8.19031C51.649 9.17447 52.2706 10.0568 52.1041 10.1586C52.0375 10.1926 51.8488 10.0568 51.6823 9.85319C51.2493 9.32152 50.3613 8.41655 49.7507 7.88488C49.4066 7.57946 49.2179 7.31928 49.1624 7.0591L49.0847 6.66318L49.5065 7.01385C49.7507 7.20616 50.2947 7.73783 50.7276 8.19031ZM53.0255 11.9912C53.1698 12.2287 53.3696 12.6925 53.4695 13.0093C53.6693 13.6201 53.8469 14.7287 53.7359 14.6269C53.6582 14.5477 52.6591 11.5726 52.7146 11.5726C52.7479 11.5726 52.8812 11.7649 53.0255 11.9912ZM45.5435 17.9187C45.7433 18.5409 45.9542 19.2422 46.0097 19.4685C46.0874 19.8531 46.0874 19.8757 45.932 19.6608C45.5546 19.1631 45.3326 18.5748 45.1883 17.6925C45.0995 17.1947 45.0662 16.7762 45.0995 16.7762C45.1439 16.7762 45.3437 17.2852 45.5435 17.9187ZM46.7757 29.2648C46.7757 29.3553 46.8423 30.1245 46.9311 30.9842C47.1753 33.3371 47.3862 36.5837 47.3862 37.9298C47.3862 40.8936 46.2651 43.0429 44.3557 43.7329C43.5231 44.0384 42.302 44.1741 41.5139 44.0497C41.1476 43.9818 40.2484 43.8461 39.5268 43.7443L38.228 43.5406L39.0273 43.3257C40.3816 42.975 41.4806 42.3076 42.5685 41.2103C43.1346 40.6334 43.6786 39.9547 43.9228 39.5135C44.8552 37.7941 45.1883 35.8823 44.8108 34.3213L44.611 33.4842L45.2882 32.0928C45.6545 31.3349 46.0541 30.4073 46.1651 30.0453C46.365 29.3666 46.5093 29.1064 46.6758 29.1064C46.7313 29.1064 46.7757 29.1743 46.7757 29.2648ZM36.4075 43.4728C36.6184 43.4728 36.7849 43.5067 36.7849 43.5519C36.7849 43.6311 35.6526 44.0497 35.5971 44.0044C35.586 43.9931 35.6082 43.8347 35.6415 43.6651C35.6859 43.4501 35.7525 43.371 35.8636 43.4049C35.9524 43.4388 36.1966 43.4728 36.4075 43.4728ZM35.0976 45.1356C34.9311 45.5203 34.7868 45.7126 34.7868 45.5316C34.7868 45.3279 35.031 44.8302 35.1309 44.8302C35.1864 44.8302 35.1642 44.966 35.0976 45.1356ZM34.5648 47.1944C34.5648 47.4433 35.0976 48.303 35.5527 48.7781C35.9635 49.208 35.9857 49.2985 35.6526 49.1175C35.4306 49.0044 34.2539 48.1333 33.9653 47.8732C33.8543 47.7714 34.3427 46.8551 34.4759 46.9343C34.5203 46.9682 34.5648 47.0813 34.5648 47.1944ZM33.1216 47.613C33.3659 47.7148 33.5657 47.8505 33.5657 47.9297C33.5657 48.0542 32.5 49.389 32.3446 49.4456C32.2447 49.4908 32.1226 48.8913 32.1226 48.303C32.1226 47.8732 32.3557 47.432 32.5777 47.432C32.6332 47.432 32.8774 47.5112 33.1216 47.613Z" fill="black"/>
<path d="M48.887 4.66989C49.7034 5.44891 50.6619 6.45374 51.0169 6.90534C51.3719 7.35695 51.6914 7.66178 51.7151 7.59404C51.7387 7.5263 51.5967 7.31179 51.3956 7.11985C51.2062 6.91663 51.0287 6.70212 51.0051 6.63438C50.8986 6.34083 49.4905 4.94086 48.4846 4.12797L47.4078 3.25863L48.887 4.66989Z" fill="black"/>
<path d="M38.7884 8.75248C38.7884 8.7976 39.0886 9.02317 39.458 9.22618C40.9935 10.1172 42.4713 11.5383 43.5912 13.1849C44.1107 13.9631 44.4455 14.3127 44.2954 13.9406C44.053 13.3315 42.6445 11.5721 41.64 10.6247L40.474 9.54197L41.3399 9.98183C42.91 10.7826 44.1684 12.2939 44.8496 14.1887C45.0805 14.8428 45.069 14.8767 44.7342 14.4819C44.5494 14.2676 44.4455 14.2 44.4455 14.3127C44.4455 14.5496 45.0574 15.2601 45.2191 15.2037C45.3807 15.1473 44.942 13.8616 44.3647 12.7338C44.0645 12.1473 43.6951 11.651 43.1294 11.0871C42.2519 10.2412 41.7901 9.948 40.1276 9.22618C38.7422 8.61714 38.7884 8.6397 38.7884 8.75248Z" fill="black"/>
<path d="M22.9514 8.80904C22.9071 8.88162 23.2065 8.93 23.75 8.9421C24.6595 8.95419 26.1346 9.12354 25.6688 9.15983C25.3693 9.18402 22.7629 9.99448 22.9514 10.0066C23.018 10.0187 23.6835 9.88561 24.4488 9.72836C26.0015 9.40176 28.497 9.22031 29.5396 9.35337C29.9167 9.40176 30.2051 9.46224 30.1829 9.49853C30.072 9.61949 28.7854 9.934 25.6133 10.6356C23.7833 11.0469 21.809 11.5065 21.2323 11.6759C19.0584 12.2928 18.5926 12.4258 17.3171 12.8008C16.5962 13.0065 15.9418 13.2 15.8531 13.2363C15.7643 13.2847 15.6867 13.2847 15.6867 13.2484C15.6867 13.0911 18.3819 11.5428 19.1028 11.3009C19.247 11.2404 19.3468 11.1799 19.3135 11.1557C19.2359 11.059 17.7608 11.6033 17.0731 11.9783C15.6978 12.7282 14.5554 13.6597 12.6921 15.5709C11.5719 16.7079 11.5719 17.0345 12.6921 15.9459C13.2245 15.4257 13.4685 15.2564 13.4685 15.4015C13.4685 15.7765 13.8345 16.2846 14.2338 16.4781C14.744 16.72 15.5203 16.9015 16.0416 16.9136C16.6516 16.9136 16.8402 17.0224 16.6627 17.2523C16.5296 17.4216 16.5407 17.4216 16.7958 17.2523C16.9844 17.1313 17.4946 17.0345 18.3153 16.9861C19.5132 16.9015 21.6649 16.4902 22.6742 16.1394C22.9514 16.0426 23.9718 15.8128 24.9479 15.6314C28.0534 15.0749 29.4731 14.4459 30.5711 13.1758C31.414 12.2081 32.3235 10.9017 32.3235 10.6719C32.3235 10.3695 32.1017 10.4904 31.2255 11.2162C28.5414 13.4419 24.3157 15.6555 22.0087 16.0547C21.6094 16.1152 20.5447 16.3208 19.6241 16.4902C18.2377 16.7684 17.7608 16.8047 16.7404 16.7563C15.1321 16.6716 14.4445 16.4902 14.023 16.0668C13.5239 15.5588 13.5683 15.1233 14.1894 14.4822C14.9991 13.6476 14.8216 13.7322 18.2377 12.7524C18.8144 12.5952 19.9679 12.2686 20.7887 12.0267C21.6094 11.7968 23.6835 11.3009 25.3915 10.9259C27.0995 10.5509 28.9296 10.1396 29.462 10.0066C31.0924 9.5953 30.9815 9.17193 29.2402 9.17193C28.6967 9.17193 27.6097 9.06306 26.8223 8.93C25.3028 8.67598 23.0624 8.6034 22.9514 8.80904ZM32.1017 10.8533C32.1017 10.9985 30.8151 12.7282 30.2827 13.3089C29.7393 13.9016 29.1292 14.2766 27.9758 14.712C27.0663 15.0628 24.5929 15.6555 24.4931 15.5467C24.4598 15.5225 24.726 15.3652 25.081 15.2201C26.8445 14.4459 29.3954 12.8855 30.9926 11.6033C31.5693 11.1315 32.0573 10.7444 32.0684 10.7444C32.0906 10.7444 32.1017 10.7928 32.1017 10.8533Z" fill="black"/>
<path d="M20.7174 9.68506C20.4003 9.76453 20.4003 9.77588 20.6586 9.77588C20.823 9.77588 21.1166 9.73047 21.3044 9.68506C21.6215 9.60559 21.6215 9.59424 21.3631 9.59424C21.1988 9.59424 20.917 9.63965 20.7174 9.68506Z" fill="black"/>
<path d="M44.1786 9.78163C44.2132 9.81423 44.6521 10.0968 45.1602 10.4119C47.4121 11.792 48.7055 13.4438 49.3869 15.7802C49.5601 16.3779 49.5947 16.4323 49.537 16.0519C49.2483 13.835 47.1118 11.14 44.756 10.0207C44.4095 9.8577 44.1439 9.74903 44.1786 9.78163Z" fill="black"/>
<path d="M18.7366 9.56018C18.4613 9.67371 18.2778 9.76453 18.3237 9.77588C18.3787 9.77588 18.6632 9.68506 18.966 9.57154C19.2688 9.44666 19.4523 9.35584 19.3789 9.35584C19.3055 9.34449 19.0119 9.43531 18.7366 9.56018Z" fill="black"/>
<path d="M16.5313 11.0528C14.8494 11.7372 13.2753 12.6797 12.1647 13.6558C10.7847 14.8676 10.2672 15.6418 9.45853 17.7399C9.27525 18.2224 9.16743 18.3682 9.04883 18.3234C8.95179 18.2785 8.596 18.1775 8.25099 18.0877C7.14047 17.7848 6.12699 18.1663 5.54478 19.1088C5.16742 19.6922 4.83319 20.8479 4.83319 21.5098C4.83319 22.0035 4.81163 22.0484 4.44505 22.2279C3.72268 22.587 2.2348 23.6753 1.7065 24.2251C0.369571 25.6164 -0.331239 28.6121 0.153937 30.8224C0.423479 32.1015 0.81162 32.6289 2.41809 33.9079C3.19437 34.5363 4.04613 35.2207 4.30489 35.4451L4.7685 35.849L4.4127 36.7915C3.14046 40.2248 2.68763 41.6161 2.55825 42.4912C2.40731 43.6132 2.48278 45.2962 2.74154 46.3173C2.93561 47.0914 3.72268 48.9764 3.80893 48.8754C3.84127 48.8418 3.74424 48.5949 3.60408 48.3256C3.01108 47.1924 2.56904 45.3748 2.56904 44.0059C2.56904 42.5249 2.84936 41.4702 3.98144 38.6316C4.57443 37.1505 5.13508 35.7592 5.22133 35.5461C5.49087 34.8392 5.90058 33.2235 5.96527 32.5503C6.05152 31.8098 5.87901 29.8239 5.64182 28.6458C5.43696 27.6584 5.04882 23.967 5.04882 22.9572V22.1943L5.97605 21.7455C6.48279 21.4986 6.92484 21.2967 6.9464 21.2967C6.96796 21.2967 7.3022 21.1396 7.70112 20.9488C8.08926 20.7581 8.43427 20.6235 8.46662 20.6571C8.49896 20.702 8.44506 21.0947 8.33724 21.5435C8.22942 22.0372 8.14317 22.946 8.1216 23.8212C8.10004 24.6178 8.11082 25.0778 8.13239 24.831C8.29411 23.2938 8.53131 21.5098 8.64991 21.0162C8.77929 20.4888 8.8332 20.4327 9.45853 20.0512C10.5259 19.4117 11.0111 18.918 11.4424 18.0653C11.8521 17.2687 11.9168 17.0331 11.7443 17.0331C11.6903 17.0331 11.5071 17.3472 11.3238 17.7399C10.968 18.5478 10.2456 19.3332 9.44775 19.782L8.89789 20.0961L8.97336 19.6698C9.08118 19.0975 9.26446 18.7161 9.43697 18.7161C9.60948 18.7161 9.62026 18.5253 9.45853 18.4692C9.3615 18.4356 9.37228 18.3458 9.46932 18.1551C9.55557 17.9868 9.63104 17.9307 9.66339 18.0204C9.74964 18.3121 9.92215 18.099 10.72 16.6965C11.1728 15.8886 11.7227 15.0808 11.9383 14.8788C12.8655 14.0485 13.2537 13.6446 13.2213 13.5549C13.189 13.4539 11.9383 14.4861 11.0866 15.3164C10.8278 15.5745 10.5906 15.7652 10.569 15.7428C10.472 15.653 11.3453 14.5422 11.8736 14.0822C13.189 12.9265 14.817 11.9167 16.4235 11.2548C16.844 11.0865 17.1998 10.9294 17.2213 10.9069C17.3292 10.806 16.9302 10.8845 16.5313 11.0528ZM10.4397 16.8535C10.1378 17.3809 9.86824 17.8185 9.84667 17.8185C9.76042 17.8185 10.0084 16.9994 10.1701 16.7189C10.3965 16.3486 10.8925 15.7876 10.9464 15.8437C10.968 15.8662 10.7416 16.315 10.4397 16.8535ZM8.2402 18.458C8.79007 18.5702 9.13508 18.6936 9.11352 18.7609C9.08118 18.8283 8.97336 19.1761 8.87632 19.5239L8.68225 20.1634L7.53939 20.6908C6.91406 20.9825 6.20246 21.3079 5.96527 21.4313C5.72807 21.5547 5.4154 21.7006 5.27524 21.7567L5.01648 21.8689L5.08117 21.2181C5.21055 20.0288 5.69572 19.019 6.37497 18.559C6.89249 18.2112 7.03265 18.2112 8.2402 18.458ZM5.03804 26.1213C5.11351 26.5252 5.24289 27.333 5.32915 27.9165C5.42618 28.4999 5.57713 29.3526 5.66338 29.8126C5.86823 30.8224 5.80354 33.145 5.56634 33.7509C5.46931 33.964 5.27524 34.5138 5.11351 34.9514L4.81163 35.7705L4.08925 35.1197C3.37766 34.4914 2.37496 33.6611 1.57712 33.0552C1.07038 32.6625 0.649895 31.9781 0.391134 31.1366C-0.01857 29.7565 0.207845 27.2096 0.865528 25.852C1.4693 24.5953 2.8278 23.2489 4.08925 22.6543L4.77928 22.3289L4.84397 23.8548C4.8871 24.7075 4.97335 25.7173 5.03804 26.1213Z" fill="black"/>
<path d="M48.5758 11.0308C48.6544 11.1524 48.9789 11.5943 49.2934 12.0142C49.5982 12.4341 50.0307 13.0971 50.247 13.4949C50.4633 13.8926 50.6403 14.1689 50.6403 14.1136C50.6403 13.7821 49.0182 11.2297 48.625 10.9535C48.448 10.8209 48.448 10.8209 48.5758 11.0308Z" fill="black"/>
<path d="M38.9531 13.2401C39.1903 13.5228 39.211 13.588 39.0872 13.675C38.9531 13.7729 38.9531 13.9033 39.1388 14.6861C39.2522 15.1862 39.3451 15.9581 39.3451 16.4039C39.3451 17.1105 39.3038 17.3062 39.0356 17.8063C38.8603 18.1325 38.7674 18.4151 38.8293 18.4586C38.8809 18.4913 38.9737 18.4043 39.0459 18.2738C39.1078 18.1325 39.2419 17.9368 39.3244 17.8281C39.541 17.578 39.8505 16.3169 39.8711 15.6863L39.8814 15.1971L40.1187 15.9581C40.2631 16.3712 40.3766 16.73 40.3766 16.7409C40.3766 16.7626 40.4178 16.7735 40.4694 16.7735C40.5313 16.7735 40.49 16.5126 40.3869 16.1973C40.2837 15.882 40.1599 15.3493 40.1187 15.0231L40.0465 14.436L40.686 15.0884C41.0677 15.4906 41.439 16.0016 41.635 16.4256C41.8104 16.7952 41.9754 17.0779 42.0063 17.0453C42.0373 17.0127 42.0167 16.8822 41.9548 16.7409C41.3874 15.3928 41.0161 14.8709 40.129 14.1969C39.8402 13.9686 39.5823 13.762 39.5514 13.7294C39.5204 13.6968 39.3141 13.5011 39.0872 13.2945C38.7262 12.9575 38.7055 12.9575 38.9531 13.2401ZM39.7989 14.6535L39.8608 15.1971L39.7061 14.7622C39.6236 14.523 39.4792 14.1969 39.3966 14.0338C39.1697 13.6207 39.211 13.5337 39.4895 13.8381C39.6545 14.0229 39.7577 14.2947 39.7989 14.6535ZM39.5926 15.3058C39.6339 15.5993 39.6236 15.6646 39.572 15.5232C39.4069 15.1427 39.3244 14.6426 39.4379 14.7622C39.4895 14.8166 39.5617 15.0666 39.5926 15.3058Z" fill="black"/>
<path d="M50.6401 16.3552C50.6401 16.376 50.6949 16.6058 50.768 16.8459C51.1605 18.2033 51.5257 20.5004 51.4435 21.0642C51.4162 21.2313 51.3614 21.461 51.3157 21.5758C51.2518 21.7638 51.2609 21.7638 51.3796 21.6281C51.4618 21.5341 51.544 21.3461 51.5714 21.2104C51.5987 21.0642 51.6535 20.8554 51.69 20.7405C51.7357 20.5839 51.7266 20.5735 51.6626 20.6779C51.5987 20.7823 51.5531 20.6257 51.5074 20.1036C51.4709 19.7068 51.3888 19.049 51.3157 18.6523C51.1331 17.6395 50.6401 15.9479 50.6401 16.3552Z" fill="black"/>
<path d="M49.5629 16.8396C49.5629 17.3266 49.5853 17.5213 49.6077 17.2681C49.6302 17.0344 49.6302 16.6449 49.6077 16.3916C49.5853 16.1579 49.5629 16.3527 49.5629 16.8396Z" fill="black"/>
<path d="M39.8889 16.3601C39.8444 16.4828 39.8666 16.7896 39.9333 17.035C40.1001 17.6075 40.1668 17.4439 40.0668 16.7078C40.0112 16.3397 39.9445 16.1965 39.8889 16.3601Z" fill="black"/>
<path d="M42.869 17.176C42.9143 17.86 42.8803 18.3586 42.7443 18.9151C42.529 19.7962 42.223 20.4803 42.223 20.0977C42.2004 18.9847 41.7584 17.0252 41.5205 17.0252C41.4525 17.0252 41.4411 17.118 41.4865 17.2223C41.7358 17.8716 41.9964 19.2745 41.9964 19.9702C41.9964 20.6658 41.9511 20.8281 41.6904 21.1875C40.8972 22.2658 39.5487 23.3672 38.3022 23.9469C37.6563 24.2484 35.3105 24.7817 34.608 24.7933C34.1547 24.7933 33.962 24.631 34.2227 24.4803C34.3133 24.4339 35.1859 23.5991 36.1604 22.6484C37.1463 21.6861 37.9736 20.8861 38.0189 20.8513C38.1662 20.7354 38.5968 20.1209 38.5968 20.0281C38.5968 19.8426 38.3588 19.9238 38.2909 20.1209C38.2569 20.2368 38.0076 20.5383 37.7582 20.7817C37.4976 21.0252 36.5117 21.9875 35.5712 22.9151C34.6193 23.831 33.8374 24.6542 33.8374 24.7353C33.8374 25.1064 34.5173 25.1064 36.3304 24.7353C38.3815 24.318 39.628 23.6571 41.0445 22.2426C41.4411 21.8368 41.7698 21.547 41.7698 21.6049C41.7698 21.7209 41.1012 23.0194 40.7952 23.4832C40.0586 24.6194 38.7101 25.8832 37.6676 26.4281C35.6505 27.4832 33.2934 26.9962 31.2877 25.1295C30.8231 24.689 30.3925 24.3295 30.3471 24.3295C30.2225 24.3295 29.9505 24.0629 28.8966 22.8687C27.6048 21.4194 27.4461 21.2223 27.0949 20.5035C26.8116 19.9354 26.4376 18.6484 26.5169 18.5557C26.5396 18.5441 26.9022 19.1122 27.3215 19.831C28.0127 20.9788 29.3726 22.9383 29.4859 22.9383C29.5426 22.9383 29.3952 22.6948 27.7861 20.1557C27.1175 19.1006 26.5283 18.2194 26.4603 18.2078C26.1543 18.0919 26.5509 19.8194 27.0609 20.7354C27.2422 21.0832 27.6955 21.7557 28.0467 22.231C28.398 22.6948 28.7493 23.1817 28.84 23.2977C28.9646 23.4832 28.8626 23.46 28.2734 23.1817C27.4461 22.7991 26.4263 22.4165 23.242 21.3151C19.7971 20.1209 18.6865 19.5296 17.236 18.1267C16.7374 17.6513 16.2955 17.2571 16.2502 17.2571C16.0122 17.2571 16.2388 17.547 17.1227 18.3818C18.6299 19.8078 19.8764 20.4339 24.3639 21.9528C28.3187 23.2977 29.078 23.6339 29.9165 24.4339C30.2338 24.7353 30.7324 25.1759 31.0271 25.4194C31.6616 25.9411 32.2622 27.0774 32.0016 27.2397C31.8883 27.3208 31.8996 27.344 32.0469 27.344C32.3076 27.344 32.5115 28.3991 32.5002 29.7788C32.5002 30.7179 32.4096 31.2628 31.877 33.4425C31.5257 34.8454 31.2197 36.2599 31.1857 36.573C31.129 37.0831 31.1404 37.0715 31.299 36.3875C31.401 35.9701 31.7523 34.4976 32.0923 33.1063C32.7382 30.4165 32.8288 29.5701 32.5795 28.2252C32.5115 27.8542 32.4889 27.5295 32.5229 27.4947C32.6022 27.4136 33.8261 27.8542 34.5173 28.2136C35.2765 28.6078 36.1831 29.4078 36.6024 30.0686C37.1123 30.8455 37.3616 31.6223 37.4636 32.7353C37.5429 33.6628 37.5429 33.6628 37.5656 32.9672C37.5996 31.4947 37.101 30.3121 36.0018 29.1991C35.1859 28.3759 33.6447 27.4947 32.8402 27.3788C32.4322 27.3208 32.3756 27.2629 32.1603 26.7411L31.9223 26.173L32.4549 26.4861C34.2567 27.5759 35.9111 28.0165 37.407 27.8194C38.0415 27.7382 38.0076 27.7266 36.897 27.715C36.2171 27.715 35.4125 27.6223 35.0272 27.5179C34.234 27.3092 32.6362 26.5672 32.7382 26.4513C32.7835 26.4165 32.8742 26.4397 32.9535 26.4977C33.4408 26.8803 34.268 27.0542 35.5372 27.0542C36.7837 27.0542 36.8744 27.0426 37.5656 26.6716C39.492 25.6745 41.3165 23.518 41.9737 21.489C42.0984 21.1064 42.3477 20.4803 42.5403 20.0977C42.9596 19.2397 43.1749 17.9528 43.0729 17.0252C42.9483 15.9702 42.8123 16.0861 42.869 17.176ZM32.6475 26.3933C32.6022 26.4513 31.7976 25.9643 31.7976 25.8832C31.7976 25.8484 32.0016 25.9527 32.2396 26.0919C32.4889 26.231 32.6702 26.3701 32.6475 26.3933Z" fill="black"/>
<path d="M16.3864 17.617C16.5134 17.7449 16.8357 17.9643 17.119 18.0923C17.6855 18.3482 18.3888 18.5493 18.3107 18.4305C18.2814 18.3848 18.1153 18.3208 17.9395 18.2934C17.539 18.2111 16.7185 17.8272 16.4059 17.5713L16.1617 17.3793L16.3864 17.617Z" fill="black"/>
<path d="M42.4856 17.9392C42.7907 18.2407 43.0619 18.4819 43.0958 18.4646C43.1636 18.4216 42.1466 17.3793 42.028 17.3793C41.9771 17.3793 42.1975 17.6291 42.4856 17.9392Z" fill="black"/>
<path d="M54.95 18.4678C54.95 19.4309 54.9611 19.8343 54.9833 19.3398C55.0055 18.8582 55.0055 18.0774 54.9833 17.5829C54.9611 17.1014 54.95 17.5048 54.95 18.4678Z" fill="black"/>
<path d="M49.5629 17.9478C49.5629 18.4309 49.5853 18.6066 49.6077 18.3431C49.6302 18.0796 49.6302 17.6843 49.6077 17.4646C49.5853 17.245 49.5629 17.4646 49.5629 17.9478Z" fill="black"/>
<path d="M15.0844 18.6359C15.0844 18.7522 15.2184 19.3917 15.3749 20.0661C15.6095 21.0427 15.7883 21.473 16.2018 22.1241C18.0344 25.0308 21.5208 26.8912 26.7616 27.7865C28.0131 27.9957 30.6614 28.2632 31.209 28.2399C31.5107 28.2283 29.9016 27.9376 29.0523 27.8562C23.6104 27.3097 20.0458 25.9378 17.5651 23.4379C16.4588 22.3217 15.9448 21.4148 15.5984 19.8917C15.3302 18.7522 15.0844 18.1476 15.0844 18.6359Z" fill="black"/>
<path d="M38.8572 18.8282C38.7349 19.5207 38.7794 19.735 38.9573 19.3888C39.1352 19.0261 39.1796 18.4655 39.024 18.4655C38.9684 18.4655 38.9017 18.6304 38.8572 18.8282Z" fill="black"/>
<path d="M22.9108 18.3747C22.5575 18.4428 22.5398 18.4655 22.8225 18.4655C23.0168 18.4655 23.3348 18.4315 23.5291 18.3747C23.9708 18.2498 23.5115 18.2498 22.9108 18.3747Z" fill="black"/>
<path d="M52.9986 18.9669C52.8652 19.2691 52.7762 19.5295 52.7984 19.5504C52.8207 19.5712 52.9541 19.342 53.0875 19.0503C53.2209 18.7481 53.3099 18.4876 53.2877 18.4668C53.2654 18.446 53.132 18.6752 52.9986 18.9669Z" fill="black"/>
<path d="M37.7334 19.2957C37.6667 19.4774 37.7556 19.6136 37.889 19.5228C38.0225 19.4433 38.0113 19.1368 37.889 19.1368C37.8334 19.1368 37.7667 19.2049 37.7334 19.2957Z" fill="black"/>
<path d="M19.0984 18.8651C19.4406 18.9559 20.7982 18.9672 21.328 18.8651C21.5819 18.8197 21.1845 18.7856 20.3015 18.7856C19.4958 18.7856 18.9549 18.8197 19.0984 18.8651Z" fill="black"/>
<path d="M42.918 18.9899C42.918 19.0353 42.9958 19.2397 43.0959 19.4327C43.2738 19.7846 43.2738 20.4998 43.0847 21.6918C43.018 22.0778 43.018 22.0778 43.1848 21.6237C43.2849 21.3739 43.3627 20.9879 43.3627 20.7722C43.3627 20.4544 43.3961 20.409 43.485 20.5452C43.574 20.6814 43.5851 20.6474 43.5295 20.4317C43.485 20.2727 43.4294 19.9889 43.3961 19.8073C43.3627 19.6143 43.296 19.444 43.2515 19.4099C43.207 19.3759 43.1181 19.251 43.0514 19.1261C42.9847 19.0013 42.918 18.9445 42.918 18.9899Z" fill="black"/>
<path d="M36.958 19.4667C36.8802 19.5575 36.8691 19.637 36.9358 19.637C36.9914 19.637 37.1025 19.5575 37.1804 19.4667C37.2582 19.3759 37.2693 19.2964 37.2026 19.2964C37.147 19.2964 37.0358 19.3759 36.958 19.4667Z" fill="black"/>
<path d="M37.8535 19.7846L37.5978 20.2614L37.9424 19.8867C38.1315 19.671 38.2649 19.4553 38.2315 19.3986C38.1426 19.251 38.1537 19.2396 37.8535 19.7846Z" fill="black"/>
<path d="M36.3963 19.6823C36.3851 19.7164 36.374 19.7959 36.3629 19.8526C36.3629 19.9094 36.3184 20.0002 36.274 20.0456C36.0961 20.2159 36.1961 20.3181 36.4074 20.2046C36.6409 20.0797 36.7076 19.8072 36.5186 19.6937C36.463 19.6596 36.3963 19.6483 36.3963 19.6823Z" fill="black"/>
<path d="M35.5233 20.602C35.3121 20.8631 35.4344 20.8971 35.7457 20.6587C35.9569 20.4885 35.9792 20.4317 35.8458 20.4317C35.7457 20.4317 35.6012 20.5112 35.5233 20.602Z" fill="black"/>
<path d="M43.7015 21.3398C43.7015 21.4307 43.746 21.6123 43.8016 21.7372C43.8572 21.8848 43.9017 21.8961 43.9017 21.7939C43.9017 21.7031 43.8572 21.5215 43.8016 21.3966C43.746 21.249 43.7015 21.2377 43.7015 21.3398Z" fill="black"/>
<path d="M34.1987 21.5101C33.9875 21.7712 34.1098 21.8053 34.4211 21.5669C34.6324 21.3966 34.6546 21.3398 34.5212 21.3398C34.4211 21.3398 34.2766 21.4193 34.1987 21.5101Z" fill="black"/>
<path d="M54.2428 22.2821C54.1983 22.5886 54.1872 22.8611 54.2206 22.8951C54.2984 22.9746 54.4318 22.2026 54.3762 21.9415C54.354 21.828 54.2873 21.9869 54.2428 22.2821Z" fill="black"/>
<path d="M43.1618 22.7022C43.1506 22.9179 43.1062 23.2244 43.0839 23.3833L43.0172 23.6671L43.1395 23.3833C43.2062 23.2357 43.2396 22.9292 43.2173 22.7022L43.1729 22.3048L43.1618 22.7022Z" fill="black"/>
<path d="M31.8612 22.827C31.6277 22.9519 31.4387 23.0995 31.4387 23.1562C31.4387 23.3038 31.4387 23.3038 32.0391 23.0313C32.3282 22.9065 32.5283 22.7589 32.495 22.6908C32.406 22.5545 32.3393 22.5659 31.8612 22.827Z" fill="black"/>
<path d="M44.6067 23.0993C44.6067 23.406 44.6291 23.531 44.6516 23.3492C44.674 23.1788 44.674 22.9289 44.6516 22.7812C44.6291 22.6449 44.6067 22.7812 44.6067 23.0993Z" fill="black"/>
<path d="M51.4725 23.3378C51.4392 23.6216 51.4281 23.8827 51.4614 23.9281C51.4948 23.9622 51.5281 23.9054 51.5281 23.8033C51.5281 23.6784 51.5948 23.633 51.7283 23.6784C51.8839 23.7352 51.895 23.7238 51.7505 23.6216C51.6504 23.5535 51.5948 23.3719 51.6171 23.1562C51.6727 22.6226 51.5615 22.7589 51.4725 23.3378Z" fill="black"/>
<path d="M44.1872 24.3823L44.2313 25.6651L43.1938 28.98C41.8693 33.2485 41.6706 33.941 41.7258 34.0091C41.7589 34.0318 41.9355 33.5323 42.1342 32.8965C42.3328 32.2495 42.7302 30.9553 43.0282 30.0244C43.3152 29.0822 43.7015 27.8561 43.8671 27.2998C44.1541 26.3349 44.1761 26.3008 44.2424 26.6754C44.2976 27.0047 44.3196 26.9252 44.3859 26.2214C44.5183 24.598 44.5625 23.7692 44.4742 24.1779C44.3969 24.5639 44.3859 24.5526 44.2644 23.8374C44.143 23.1108 44.143 23.1222 44.1872 24.3823Z" fill="black"/>
<path d="M42.7747 24.0304C42.6969 24.4731 42.7636 24.4845 42.897 24.0758C42.9637 23.8828 42.9749 23.7239 42.9304 23.7239C42.8748 23.7239 42.8081 23.8601 42.7747 24.0304Z" fill="black"/>
<path d="M42.1565 25.2336C41.8805 25.6083 41.3728 26.1418 41.0196 26.4256C40.3352 26.9705 40.2249 27.1068 40.6332 26.8911C41.1189 26.6186 42.8298 24.7114 42.6863 24.5865C42.6642 24.5638 42.4214 24.859 42.1565 25.2336Z" fill="black"/>
<path d="M51.1524 25.211C51.0635 25.6878 51.1524 25.7786 51.2525 25.3132C51.297 25.1202 51.3081 24.9272 51.2747 24.9045C51.2525 24.8705 51.1969 25.018 51.1524 25.211Z" fill="black"/>
<path d="M8.34787 28.3102C8.29268 29.2638 8.22645 29.593 8.07193 29.7633C7.90636 29.9563 7.87325 30.2061 7.87325 31.4435C7.88428 32.8852 7.88428 32.9079 8.23749 33.4869C8.679 34.2134 8.5907 34.3837 8.08296 33.7821C7.87325 33.5323 7.70768 33.4074 7.70768 33.4982C7.70768 33.6912 7.99466 34.168 8.23749 34.361C8.39202 34.4859 8.38098 34.5086 8.17127 34.5086C8.03881 34.5086 7.82909 34.4064 7.70768 34.2816C7.509 34.0772 7.48692 34.0772 7.38758 34.2589C7.28824 34.4291 7.25513 34.3951 7.15579 34.0772C7.02334 33.7253 6.79155 33.6004 6.65909 33.8275C6.58183 33.9523 6.79155 34.4064 6.97919 34.5313C7.24409 34.7129 6.924 34.7357 6.50456 34.554C6.25069 34.4518 6.00786 34.4064 5.96371 34.4518C5.83126 34.5881 6.50456 35.0535 6.97919 35.133C7.43174 35.2238 7.43174 35.2238 7.1006 35.2919C6.85777 35.3487 6.81362 35.3941 6.924 35.4622C7.04541 35.5417 7.04541 35.5757 6.924 35.6552C6.67013 35.8141 6.93504 35.9277 7.49796 35.9049C7.79598 35.9049 8.03881 35.939 8.03881 35.9958C8.03881 36.0525 7.92843 36.0979 7.79598 36.0979C7.60834 36.0979 7.58626 36.132 7.69664 36.2001C7.77391 36.2569 7.97259 36.2455 8.16023 36.1661C8.42513 36.0639 8.51344 36.0752 8.5907 36.2115C8.64589 36.3023 8.64589 36.4272 8.5907 36.5066C8.43617 36.6883 8.5907 36.8018 8.77834 36.6429C9.05429 36.4045 9.02117 36.6088 8.679 37.1764C7.72975 38.7317 7.55315 39.4355 7.80702 40.6956C7.88428 41.0703 7.90636 40.9568 7.9174 40.0826C7.92843 39.0836 7.95051 38.9701 8.32579 38.2662C8.82249 37.3353 9.38542 36.7564 9.83797 36.711C10.1029 36.6769 10.147 36.6996 10.0477 36.8018C9.80485 37.0515 9.91523 37.1651 10.1691 36.9267C10.3016 36.7904 10.6106 36.6542 10.8534 36.6088C11.5488 36.4839 11.6813 36.4385 11.6813 36.2569C11.6813 36.1661 11.7365 36.0979 11.8027 36.0979C11.8579 36.0979 11.891 36.0525 11.8579 36.0071C11.8358 35.9617 11.8468 35.8482 11.9131 35.7574C11.9903 35.6211 12.0124 35.6325 12.0124 35.8028C12.0124 35.9844 12.0455 35.9958 12.1449 35.8936C12.3325 35.7006 12.5422 35.7233 12.763 35.939C12.9285 36.1093 12.9065 36.2228 12.5091 37.4262C12.0897 38.7317 11.1183 40.9 10.9086 41.0362C10.8534 41.0703 10.7983 41.2519 10.7983 41.4336C10.7983 41.8082 11.2398 42.2282 11.615 42.2282C11.7475 42.2282 11.9131 42.285 11.9793 42.3531C12.0455 42.4212 12.1669 42.4553 12.2552 42.4212C12.3435 42.3872 12.2332 42.2963 11.9903 42.1828C11.7696 42.0806 11.5488 41.9558 11.5157 41.8876C11.4716 41.8195 11.3943 41.8082 11.3281 41.8422C11.2067 41.9217 11.019 41.6947 11.019 41.4449C11.019 41.32 11.0632 41.3427 11.1956 41.5017C11.3612 41.7174 11.3722 41.7174 11.295 41.4903C11.2508 41.3654 11.1956 41.1838 11.1625 41.093C11.1404 40.9908 11.2398 40.7297 11.3943 40.4913C11.5488 40.2529 11.6813 40.0372 11.6813 40.0145C11.6813 39.9918 11.902 39.5036 12.1669 38.9133C12.6195 37.903 12.7188 37.5737 13.0389 36.0412C13.2707 34.9627 13.1051 33.6458 12.6084 32.5787C12.3987 32.1133 12.1007 31.5683 11.9462 31.364C11.8027 31.171 11.6813 30.9553 11.6813 30.8986C11.6813 30.7623 11.4716 30.785 11.2508 30.9213C11.1515 30.9894 11.1183 30.978 11.1625 30.9099C11.2067 30.8418 11.1735 30.7283 11.0852 30.6602C10.9638 30.558 10.9197 30.558 10.8755 30.6715C10.8314 30.785 10.7872 30.785 10.71 30.6602C10.6106 30.5239 10.5665 30.5239 10.423 30.6374C10.2795 30.7623 10.2133 30.7623 10.0808 30.6488C9.9925 30.5807 9.87108 30.5466 9.81589 30.592C9.74967 30.6261 9.61721 30.558 9.50683 30.4218C9.27504 30.1493 9.14259 30.1266 9.14259 30.3877C9.14259 30.5466 9.10948 30.5353 8.88872 30.3309C8.74523 30.1947 8.56862 30.0812 8.5024 30.0812C8.33683 30.0812 8.33683 29.7293 8.49136 29.366C8.56862 29.173 8.57966 28.7757 8.51344 28.0832L8.4141 27.0728L8.34787 28.3102ZM8.89976 30.8191C9.02117 30.785 9.15363 30.8077 9.19778 30.8758C9.23089 30.944 9.31919 30.9667 9.37438 30.9326C9.42957 30.8872 9.69448 31.0461 9.97042 31.2845C10.2464 31.5116 10.4671 31.6592 10.4671 31.6137C10.4671 31.5116 11.2287 31.9884 11.615 32.3403C11.7917 32.4992 11.902 32.5673 11.8579 32.4879C11.7585 32.3176 11.8137 32.3176 12.1669 32.4765C12.6526 32.7036 13.1383 34.4405 12.9506 35.3033L12.8734 35.6438L12.5422 35.3033C12.1669 34.9059 11.615 34.5994 10.9307 34.3951C10.4892 34.2475 10.4782 34.2361 10.6548 34.0318C10.7541 33.9183 10.8093 33.8048 10.7762 33.7707C10.7431 33.7366 10.6327 33.8388 10.5333 33.9977C10.2795 34.3951 10.136 34.3497 10.136 33.8842C10.136 33.6685 10.0918 33.4869 10.0256 33.4869C9.97042 33.4869 9.91523 33.5777 9.91523 33.6799C9.91523 33.7934 9.87108 33.9637 9.80485 34.0545C9.72759 34.1794 9.68344 34.1567 9.59514 33.8956C9.44061 33.5096 9.21985 33.5664 9.13155 34.0091C9.07636 34.2702 9.05429 34.3043 8.98806 34.1453C8.88872 33.9069 9.20882 33.4188 9.52891 33.328C9.92627 33.2144 10.5775 33.2598 10.9859 33.4301C11.4384 33.6345 11.615 33.6458 11.5157 33.4869C11.4716 33.4188 11.3833 33.4074 11.317 33.4415C11.2177 33.4982 11.2177 33.4869 11.317 33.3734C11.4164 33.2598 11.5157 33.2825 11.8248 33.4755C12.0345 33.6004 12.2221 33.6799 12.2663 33.6458C12.3767 33.5323 11.88 33.1123 11.5819 33.0669C10.7541 32.9533 9.66136 32.9079 9.59514 32.9987C9.56202 33.0441 9.31919 33.2485 9.07636 33.4528L8.61278 33.8161L8.54655 33.5323C8.5024 33.3734 8.43617 33.2712 8.38098 33.3053C8.23749 33.4074 8.03881 32.8285 8.03881 32.3062C8.03881 32.0451 8.094 31.5343 8.16023 31.171C8.28164 30.5693 8.30372 30.5353 8.49136 30.7169C8.60174 30.8191 8.7673 30.8645 8.89976 30.8191ZM10.136 34.6108C10.136 34.6789 10.0918 34.7584 10.0256 34.7924C9.83797 34.9173 9.90419 35.5417 10.147 35.8822L10.3678 36.2115H10.136C9.78278 36.2115 9.03221 35.36 9.03221 34.9627C9.03221 34.7811 9.09844 34.6108 9.1757 34.5881C9.41853 34.4859 10.136 34.5086 10.136 34.6108ZM10.8424 34.6902C10.9417 34.7243 11.019 34.8038 11.019 34.8492C11.019 34.9854 10.6216 35.0535 10.4561 34.9513C10.3236 34.8605 10.3347 34.8265 10.4671 34.7357C10.6658 34.5994 10.6327 34.6108 10.8424 34.6902ZM7.35447 34.9286C7.24409 34.9513 7.04541 34.9513 6.91296 34.9286C6.76947 34.9059 6.85777 34.8832 7.1006 34.8832C7.34343 34.8719 7.45381 34.8946 7.35447 34.9286ZM11.5819 35.326C11.6702 35.5076 11.6702 35.5417 11.5599 35.5076C11.4936 35.4849 11.3833 35.3487 11.3391 35.2011C11.2177 34.8946 11.4053 34.9854 11.5819 35.326ZM10.6989 35.8595C10.5775 35.939 10.5775 35.9731 10.6989 36.0185C10.8093 36.0639 10.7983 36.0866 10.6658 36.0866C10.5554 36.0979 10.4671 36.0525 10.4671 36.0071C10.4671 35.8709 10.721 35.6325 10.7872 35.712C10.8203 35.746 10.7762 35.8141 10.6989 35.8595ZM11.4274 35.7801C11.4495 35.712 11.5267 35.6438 11.593 35.6438C11.6592 35.6438 11.6261 35.746 11.5267 35.8595C11.306 36.1093 10.9969 36.0639 11.0963 35.7914C11.1515 35.6552 11.1735 35.6552 11.2618 35.7801C11.3391 35.8936 11.3833 35.8936 11.4274 35.7801Z" fill="black"/>
<path d="M39.0768 27.595C38.8229 27.7199 38.249 27.9243 37.8075 28.0378C37.366 28.1513 37.1231 28.2535 37.2556 28.2535C37.5536 28.2648 39.1099 27.754 39.4962 27.5269C39.8936 27.2885 39.6287 27.3339 39.0768 27.595Z" fill="black"/>
<path d="M20.4008 28.2649C19.7826 28.3784 19.0321 28.6622 18.5464 28.946C18.138 29.1958 18.0387 29.2298 18.138 29.0595C18.1711 28.9914 18.138 28.946 18.0497 28.946C17.9614 28.946 17.851 29.0255 17.8179 29.1276C17.7738 29.2525 17.6744 29.2866 17.4868 29.2412C17.3102 29.1958 17.1557 29.2412 17.0453 29.3433C16.9459 29.4569 16.8576 29.4682 16.8135 29.4001C16.7693 29.332 16.681 29.3206 16.6148 29.366C16.5486 29.4115 16.3389 29.4342 16.1402 29.4228C15.8201 29.4001 15.787 29.4342 15.6545 29.8996C15.5331 30.3424 15.5441 30.4332 15.6876 30.5921C15.8863 30.7851 16.4272 30.8305 16.4272 30.6375C16.4272 30.5808 16.4713 30.5467 16.5265 30.5808C16.5817 30.6148 16.7473 30.5808 16.8907 30.5013C17.1557 30.3651 17.3212 30.2402 18.414 29.3547C19.01 28.8665 19.5177 28.6849 21.6701 28.2308C22.0785 28.14 20.8975 28.174 20.4008 28.2649Z" fill="black"/>
<path d="M23.3478 28.2194C23.1602 28.4237 23.3147 28.5032 23.8224 28.4805C24.2971 28.4578 24.4185 28.4918 24.7165 28.787C24.9041 28.9686 25.1028 29.2184 25.147 29.3433C25.2242 29.5249 25.2463 29.5363 25.2463 29.3773C25.2574 29.2752 25.1359 29.0368 24.9814 28.8551C24.8269 28.6621 24.7055 28.4578 24.7055 28.3897C24.7055 28.3216 24.6172 28.2648 24.5178 28.2534C24.4074 28.2534 24.1205 28.2194 23.8666 28.1967C23.6238 28.1626 23.392 28.174 23.3478 28.2194Z" fill="black"/>
<path d="M51.95 29.4228C51.3941 30.7737 51.2941 31.2278 51.8055 30.1153C52.1946 29.2412 52.5616 28.2649 52.506 28.2081C52.4837 28.1854 52.228 28.7303 51.95 29.4228Z" fill="black"/>
<path d="M44.0795 29.3092C44.0461 29.7633 43.9349 30.3536 43.8349 30.6261C43.7459 30.8985 43.7014 31.1483 43.7237 31.171C43.8349 31.2959 44.1573 30.0925 44.2129 29.3092C44.3018 28.2421 44.1907 28.2421 44.0795 29.3092Z" fill="black"/>
<path d="M38.4696 30.7169C38.4255 30.7623 38.3924 30.9553 38.3924 31.1483C38.3924 31.3413 38.3151 31.9316 38.2268 32.4651C37.6639 35.7914 37.6197 36.2114 37.6859 37.1764L37.7632 38.1527L36.8692 39.0268C35.8647 40.0145 35.5336 40.5253 35.8868 40.5253C36.1296 40.5253 38.3041 38.1186 38.4034 37.744C38.5359 37.2786 38.5248 37.2331 38.3372 37.3013C38.2489 37.3467 38.1716 37.4829 38.1716 37.6191C38.1716 37.744 38.1275 37.9256 38.0723 38.0051C38.0281 38.0959 37.984 37.8575 37.984 37.4375C37.9729 37.0288 37.9177 36.7109 37.8515 36.6882C37.697 36.6315 37.697 36.2795 37.8405 36.0071C38.006 35.6892 38.7456 30.8531 38.6352 30.7396C38.591 30.6942 38.5138 30.6828 38.4696 30.7169Z" fill="black"/>
<path d="M21.7917 31.0688C21.7586 31.1142 21.7255 31.2618 21.7255 31.4094C21.7255 31.7727 21.5378 32.1246 21.3391 32.1246C21.2288 32.1246 21.1736 32.0111 21.1736 31.784C21.1736 31.398 20.9638 31.3186 20.8755 31.6705C20.8314 31.8521 20.7762 31.8748 20.6106 31.7727C20.4892 31.7159 20.423 31.6137 20.4561 31.557C20.5334 31.4208 19.8159 31.2732 19.1205 31.2845C18.1271 31.3072 17.4428 31.6137 16.7364 32.363C16.2949 32.8171 16.0962 33.1236 16.0962 33.3166C16.0962 33.7366 16.2176 33.6685 16.626 33.0328C17.2662 32.0338 18.1271 31.5456 19.0433 31.6478C19.3965 31.6932 19.4075 31.7159 19.4075 32.1927C19.4075 32.7717 19.2971 32.8171 18.966 32.3744L18.7342 32.0678L18.8004 32.4198C18.8556 32.7149 18.8225 32.783 18.6349 32.8398C18.5135 32.8739 18.4362 32.8625 18.4693 32.8057C18.5024 32.7603 18.4472 32.6809 18.3479 32.6468C18.2154 32.6014 18.1934 32.6355 18.2486 32.8057C18.2927 32.9533 18.2154 33.1236 17.9947 33.3393C17.8181 33.5096 17.3876 34.0772 17.0344 34.5994C16.4163 35.519 16.4163 35.5303 16.6702 35.6325C16.8468 35.7006 16.9682 35.6892 17.0786 35.5871C17.211 35.4508 17.3435 35.4735 17.9395 35.7006C18.5355 35.939 18.657 35.9503 18.7011 35.8141C18.7453 35.7006 18.9219 35.6438 19.2309 35.6552C19.5841 35.6552 19.6393 35.6779 19.4627 35.7574C19.0764 35.9276 19.551 35.8822 20.0587 35.7006C20.3016 35.6098 20.5113 35.5757 20.5113 35.6211C20.5113 35.6665 20.5554 35.6325 20.6106 35.553C20.6769 35.4281 20.7541 35.4281 20.997 35.5417C21.2398 35.6552 21.3171 35.6552 21.3833 35.5417C21.4605 35.4281 21.5268 35.4281 21.7034 35.519C22.0124 35.6892 22.0566 35.6779 22.0566 35.4168C22.0566 35.2351 22.1007 35.2124 22.3215 35.3033C22.6305 35.4168 22.7299 35.36 22.6305 35.0989C22.5754 34.9286 22.5864 34.9286 22.752 35.0649C23.0831 35.3373 23.1052 35.0876 22.7851 34.747C22.5422 34.4859 22.5202 34.4064 22.6526 34.361C22.7409 34.327 22.9506 34.4064 23.1272 34.5427C23.337 34.7016 23.3811 34.7243 23.2818 34.5881C23.1493 34.4178 23.1604 34.3951 23.3149 34.3951C23.5246 34.3951 23.5467 34.1567 23.359 33.9523C23.2707 33.8615 23.359 33.8729 23.5908 33.9977C24.0655 34.2475 24.2421 34.0772 23.922 33.6685C23.7895 33.4982 23.7012 33.3507 23.7233 33.3393C23.7454 33.3166 23.8889 33.2485 24.0434 33.169C24.1979 33.0896 24.4407 32.9193 24.5953 32.7944C24.7498 32.6695 24.6063 32.7149 24.2531 32.9079C23.5356 33.3166 23.4473 33.3393 23.6239 33.0328C23.7012 32.9079 23.8226 32.8057 23.8999 32.8057C23.9772 32.8057 24.0434 32.6922 24.0434 32.556C24.0434 32.4198 24.1538 32.1814 24.2972 32.0224C24.4407 31.8408 24.3414 31.8976 24.0213 32.1587C23.7233 32.3971 23.4915 32.5446 23.4915 32.4992C23.4915 32.4425 23.5356 32.3516 23.5908 32.2835C23.635 32.2268 23.7343 32.0224 23.8006 31.8294C23.8999 31.5002 23.8889 31.4775 23.6681 31.4889C23.5136 31.5002 23.4253 31.591 23.4032 31.75C23.3811 31.8862 23.2928 32.0565 23.1935 32.1473C23.0389 32.2722 23.0169 32.2608 23.0721 31.977C23.1383 31.6478 22.7409 31.0234 22.6416 31.2959C22.6085 31.3753 22.4981 31.557 22.3877 31.6932L22.178 31.9543L22.167 31.5456C22.167 31.1596 21.9572 30.8985 21.7917 31.0688ZM20.0698 32.0111C20.0698 32.3971 19.8932 32.4538 19.6724 32.1473C19.4406 31.8521 19.4958 31.6705 19.7938 31.6705C20.0256 31.6705 20.0698 31.7273 20.0698 32.0111ZM20.7762 32.1814C20.6658 32.4652 20.4009 32.3744 20.4009 32.0678C20.4009 31.8181 20.434 31.7954 20.6217 31.8976C20.7431 31.9657 20.8093 32.0792 20.7762 32.1814ZM19.9042 33.3393C19.8601 33.6458 19.8159 33.8956 19.7938 33.9183C19.6945 34.0318 19.1868 33.7707 19.1868 33.6004C19.1868 33.3393 19.6062 32.8057 19.8159 32.8057C19.9594 32.8057 19.9704 32.8966 19.9042 33.3393ZM21.9462 33.1917C21.9462 33.6118 21.7586 33.6458 21.6261 33.2598C21.5268 32.9533 21.5378 32.9193 21.7365 32.9193C21.891 32.9193 21.9462 32.9987 21.9462 33.1917ZM18.9991 33.4642C18.966 33.748 19.0102 34.0318 19.1205 34.2588C19.3192 34.6562 19.838 35.0762 20.1471 35.0762C20.5223 35.0762 20.0587 35.2806 19.4958 35.36C18.7342 35.4735 17.7408 35.326 17.4318 35.0649L17.1669 34.8378L17.5311 34.3043C17.9395 33.7026 18.1271 33.5096 18.5245 33.2258C18.955 32.9193 19.0654 32.976 18.9991 33.4642ZM21.604 33.9069C21.6151 34.1567 21.0301 34.8492 20.8093 34.8492C20.7431 34.8492 20.8645 34.6675 21.0742 34.4405C21.2729 34.2248 21.4385 34.0204 21.4274 33.9864C21.4054 33.9637 21.3943 33.7707 21.4054 33.5664C21.4054 33.2598 21.4274 33.2371 21.5047 33.4301C21.5599 33.555 21.604 33.7707 21.604 33.9069ZM23.6129 33.6799C23.7564 33.8502 23.7454 33.8502 23.4915 33.7139C23.1162 33.5209 23.0941 33.4869 23.2928 33.4869C23.3922 33.4869 23.5356 33.5664 23.6129 33.6799ZM21.1404 33.8729C21.1404 33.9637 21.0521 33.9977 20.9307 33.9637C20.8204 33.941 20.7652 33.8729 20.7983 33.8161C20.8866 33.6572 21.1404 33.6912 21.1404 33.8729ZM20.997 34.327C20.9307 34.4972 20.434 34.8038 20.3457 34.7243C20.3237 34.6902 20.3678 34.554 20.4671 34.4178C20.6548 34.1453 21.0963 34.0659 20.997 34.327ZM21.6813 35.2465C21.88 35.3941 21.88 35.4054 21.6371 35.3373C21.5047 35.3033 21.3612 35.2351 21.3281 35.1784C21.2398 35.0195 21.4385 35.0535 21.6813 35.2465Z" fill="black"/>
<path d="M43.4926 32.6354C43.3036 33.0555 43.3369 33.1463 43.537 32.7716C43.6371 32.59 43.6927 32.4197 43.6594 32.397C43.6371 32.3743 43.5593 32.4765 43.4926 32.6354Z" fill="black"/>
<path d="M36.2084 34.747C36.1306 35.0194 36.0417 35.3259 36.0194 35.4167C35.9861 35.5076 36.0639 35.3713 36.1973 35.0989C36.3196 34.8264 36.4086 34.5313 36.3863 34.4291C36.3641 34.3269 36.2863 34.4745 36.2084 34.747Z" fill="black"/>
<path d="M5.92098 36.2455C6.22117 36.6656 6.299 37.0969 6.16558 37.5624C6.10999 37.7781 6.07663 37.9824 6.09887 38.0051C6.21005 38.1073 6.41018 37.1196 6.34347 36.8472C6.31012 36.6883 6.14334 36.4158 5.98769 36.2455L5.69861 35.9276L5.92098 36.2455Z" fill="black"/>
<path d="M34.8603 36.9153C34.463 37.29 34.2422 37.5511 34.3636 37.483C34.5733 37.3694 35.7323 36.2115 35.633 36.2115C35.5999 36.2228 35.2577 36.5294 34.8603 36.9153Z" fill="black"/>
<path d="M43.0504 36.8358C43.0504 36.9607 43.0838 37.1651 43.1394 37.2899C43.2617 37.5738 43.2617 37.2786 43.1394 36.8926C43.0727 36.6656 43.0504 36.6542 43.0504 36.8358Z" fill="black"/>
<path d="M9.66175 36.9379C9.53945 37.2444 9.5728 37.3466 9.7507 37.3466C9.92859 37.3466 9.93971 37.2899 9.81741 36.9606C9.73958 36.7563 9.72846 36.7563 9.66175 36.9379Z" fill="black"/>
<path d="M30.0702 38.2776C29.9924 39.0268 30.0035 40.8319 30.0925 41.1838C30.1369 41.32 30.1703 40.5935 30.1703 39.5604C30.1814 38.5273 30.1703 37.6872 30.1592 37.6872C30.1481 37.6872 30.1147 37.9597 30.0702 38.2776Z" fill="black"/>
<path d="M5.38939 38.9701C4.68297 39.901 4.53948 40.1848 5.04722 39.6172C5.46666 39.1631 6.09581 38.2549 6.02958 38.1981C6.01854 38.1754 5.72052 38.5274 5.38939 38.9701Z" fill="black"/>
<path d="M7.93925 41.32C7.90589 41.8536 8.96214 44.7257 9.11779 44.5668C9.15115 44.5327 8.91766 43.8402 8.61747 43.0001C8.30616 42.1714 8.0282 41.4108 8.00596 41.32C7.95037 41.1724 7.93925 41.1724 7.93925 41.32Z" fill="black"/>
<path d="M12.8179 41.5016C12.5861 41.6038 12.6524 41.7741 12.9283 41.7741C13.0607 41.7741 13.414 41.8989 13.7009 42.0692C14.0541 42.2509 14.308 42.3303 14.4736 42.2736C14.7716 42.1827 15.1027 41.8989 15.1027 41.74C15.1027 41.6719 14.9924 41.7287 14.8489 41.8649C14.5067 42.1941 14.0541 42.1827 13.712 41.8308C13.425 41.5357 13.0497 41.3994 12.8179 41.5016Z" fill="black"/>
<path d="M37.3439 45.2934L36.6816 45.3502L37.3881 45.4296C37.7744 45.4864 38.8892 45.5091 39.8716 45.5091C41.3837 45.4977 41.5272 45.475 40.8208 45.4069C39.5735 45.2707 38.0834 45.2253 37.3439 45.2934Z" fill="black"/>
<path d="M14.2198 45.6226C13.8556 45.8269 13.1602 45.8723 12.222 45.7361C11.052 45.5658 10.754 45.6566 10.5994 46.247C10.456 46.7692 10.6105 47.4617 11.0189 48.1428C11.2286 48.4947 11.2948 48.7218 11.2286 48.8239C11.1734 48.9148 11.1293 49.2553 11.1293 49.5846C11.1293 50.1408 11.1734 50.243 11.5156 50.5949L11.9129 51.0036L13.7011 50.9241C15.5444 50.8447 16.7364 50.6517 17.0455 50.3906C17.2442 50.2203 17.476 49.7889 17.5753 49.3802C17.6195 49.2213 17.5201 49.3462 17.3656 49.6413C16.913 50.5041 16.5488 50.6176 14.0874 50.7084L12.0675 50.7766L11.7032 50.4587C11.3721 50.1749 11.339 50.0954 11.3721 49.5618C11.3942 49.2213 11.4604 48.9829 11.5377 48.9829C11.7805 48.9829 11.8246 48.8126 11.626 48.5855C11.5156 48.4607 11.4494 48.3358 11.4714 48.3131C11.5487 48.2223 12.7077 48.2223 13.1933 48.3017C13.5134 48.3585 13.7894 48.3244 14.1426 48.1882C14.5399 48.0406 14.7165 48.0179 15.0587 48.1201C15.3015 48.1882 15.7099 48.2336 15.9859 48.2336C16.4163 48.2223 16.3612 48.1996 15.6216 48.0747C15.147 47.9952 14.6945 47.8703 14.6172 47.8022C14.4958 47.7001 14.3633 47.7341 14.0653 47.9158C13.5576 48.2223 13.0609 48.1542 12.509 47.7228C12.1337 47.439 11.8246 47.4163 12.1006 47.7001C12.3213 47.9271 12.2551 48.0179 11.8357 48.0179C11.35 48.0179 11.0189 47.8476 11.0189 47.5865C11.0189 47.473 10.9637 47.3254 10.8975 47.2573C10.7429 47.0984 10.7429 46.2356 10.9085 46.0313C11.063 45.8383 11.8357 45.8042 12.509 45.9745C12.8401 46.054 13.1602 46.0313 13.7673 45.9064C14.7276 45.6907 15.5223 45.7475 16.2839 46.0767C16.7806 46.3037 16.7916 46.3037 16.5378 46.0994C16.019 45.6793 14.6172 45.3955 14.2198 45.6226Z" fill="black"/>
<path d="M18.1932 48.1655C18.1049 48.245 17.9283 48.4834 17.8179 48.6991L17.5972 49.0964L17.9504 48.7332C18.1491 48.5288 18.4802 48.3358 18.6899 48.2904C18.8996 48.2564 19.0762 48.1769 19.0762 48.1201C19.0762 47.9726 18.3808 48.0066 18.1932 48.1655Z" fill="black"/>
<path d="M17.2887 48.211C17.4222 48.2335 17.6223 48.2335 17.7335 48.211C17.8335 48.1772 17.7223 48.1546 17.4777 48.1659C17.2331 48.1659 17.1442 48.1885 17.2887 48.211Z" fill="black"/>
<path d="M38.5028 50.5155C38.8339 50.6404 39.1761 50.8334 39.2644 50.9469C39.3748 51.0831 39.3968 51.0945 39.3637 50.9696C39.3085 50.7766 38.7125 50.4474 38.2268 50.3452C38.0502 50.3112 38.1716 50.3906 38.5028 50.5155Z" fill="black"/>
<path d="M12.5974 52.1274C12.8181 55.0109 14.4186 56.8727 16.6813 56.8727C17.4209 56.8727 19.198 56.4867 20.2907 56.0894C21.3503 55.7147 21.3393 55.6239 20.2797 55.9531C17.8955 56.691 16.4495 56.8386 15.3899 56.4526C14.4186 56.0894 13.2265 54.7157 13.2265 53.9438C13.2265 53.8189 13.1603 53.3875 13.072 52.9902C12.9837 52.5928 12.8843 52.0366 12.8402 51.7301C12.8071 51.4349 12.7188 51.1965 12.6526 51.1965C12.5643 51.1965 12.5532 51.4917 12.5974 52.1274Z" fill="black"/>
<path d="M36.7927 51.9912C36.915 52.048 37.0929 52.0934 37.1819 52.0934C37.282 52.0934 37.2708 52.048 37.1263 51.9912C37.004 51.9345 36.8261 51.889 36.7372 51.889C36.6371 51.889 36.6482 51.9345 36.7927 51.9912Z" fill="black"/>
<path d="M38.8564 52.5588C38.7675 52.7064 38.7675 52.7859 38.8342 52.7859C38.9009 52.7859 38.9787 52.7064 39.0232 52.6156C39.1232 52.3431 39.0121 52.3091 38.8564 52.5588Z" fill="black"/>
<path d="M40.5353 53.2514C40.8466 53.5011 40.9133 53.8871 40.6909 54.2958C40.5798 54.5228 40.5798 54.5342 40.7465 54.3866C41.0245 54.1596 40.98 53.5579 40.6798 53.2627C40.5353 53.1265 40.3796 53.013 40.3351 53.013C40.2796 53.013 40.3685 53.1151 40.5353 53.2514Z" fill="black"/>
<path d="M38.2938 53.433C38.1493 53.7509 38.1493 53.7509 38.3828 53.5352C38.6274 53.3081 38.683 53.1265 38.5273 53.1265C38.4717 53.1265 38.3717 53.2627 38.2938 53.433Z" fill="black"/>
<path d="M39.8715 55.1699C39.8053 55.238 39.3086 55.5672 38.7677 55.9078C37.7081 56.5776 37.6088 56.7138 38.5359 56.237C39.1209 55.9305 40.2689 55.0564 40.0812 55.0564C40.026 55.0564 39.9267 55.1131 39.8715 55.1699Z" fill="black"/>
<path d="M21.4505 55.624C21.3059 55.6808 21.2948 55.7262 21.3949 55.7262C21.4838 55.7262 21.6617 55.6808 21.784 55.624C21.9285 55.5673 21.9397 55.5219 21.8396 55.5219C21.7507 55.5219 21.5728 55.5673 21.4505 55.624Z" fill="black"/>
<path d="M33.3733 59.166L32.9286 59.6541L33.4289 59.2C33.7069 58.9503 33.9515 58.7346 33.9737 58.7119C33.996 58.7005 33.9737 58.6892 33.9181 58.6892C33.8514 58.6892 33.6068 58.9049 33.3733 59.166Z" fill="black"/>
<path d="M10.743 62.7987C9.73857 62.9917 10.0035 63.0712 11.1624 62.9236C11.7806 62.8441 12.3656 62.7533 12.4539 62.7306C12.8071 62.6398 11.2618 62.6965 10.743 62.7987Z" fill="black"/>
</svg>
