<svg width="48" height="65" viewBox="0 0 48 65" fill="none" xmlns="http://www.w3.org/2000/svg">
<path d="M12.8394 0.133171C10.4263 0.659275 7.23924 2.22663 5.5774 3.69535C5.27007 3.96936 4.6668 4.45163 4.25703 4.76948C3.44888 5.37231 2.27649 6.52317 1.67322 7.31233C1.30898 7.77267 1.32036 7.77267 1.77566 7.25752C2.46999 6.46837 4.04077 4.97773 4.09768 5.03253C4.13183 5.06542 3.90418 5.48192 3.59685 5.97514C2.86838 7.13696 2.36755 8.50703 2.1399 9.88806C2.00331 10.743 1.84396 11.2362 1.42281 12.135C0.216266 14.6559 0 15.6314 0 18.4921C0.0113824 20.4321 0.0455298 20.8705 0.261796 21.7035C1.14963 25.1232 3.20985 28.6196 6.36279 32.0941C6.875 32.6421 6.98882 32.8504 6.94329 33.0477C6.85223 33.3875 6.98882 33.7601 7.15956 33.6944C7.25062 33.6615 7.35306 33.8368 7.4555 34.1437C7.59209 34.5931 7.61486 34.615 7.70592 34.3958C7.76283 34.2424 7.74006 34.0122 7.62624 33.7492C7.47827 33.3875 7.47827 33.3655 7.62624 33.5519C7.7173 33.6724 7.79698 33.8368 7.79698 33.9136C7.79698 33.9903 7.87665 34.0561 7.96771 34.0561C8.18398 34.0561 8.18398 33.9355 7.96771 33.6615C7.87665 33.5519 7.79698 33.3655 7.79698 33.2559C7.79698 33.1463 7.75145 33.0806 7.69453 33.1244C7.50103 33.234 7.12541 32.6312 6.98882 31.9955C6.92053 31.6557 6.88638 30.9981 6.90914 30.5377C6.95467 29.8034 7.03435 29.5622 7.51241 28.6306C7.80836 28.0497 8.14983 27.5126 8.26366 27.4469C8.38886 27.3701 8.47992 27.2276 8.47992 27.1071C8.47992 26.9207 8.53683 26.9098 9.04904 26.9646C9.62955 27.0303 9.83443 26.8988 9.33361 26.7783C8.79863 26.6467 8.46854 26.4933 8.52545 26.3946C8.5596 26.3398 8.83278 26.4166 9.12872 26.559C9.6637 26.8331 10.3694 26.8879 11.2345 26.7563C11.8264 26.6577 11.6784 26.5371 10.9044 26.4494C10.5401 26.4056 9.99379 26.307 9.67508 26.2193C9.18563 26.0877 9.10596 26.022 9.09457 25.7808C9.07181 25.5726 9.10596 25.5288 9.2084 25.6055C9.39052 25.748 10.4149 26.1754 10.4149 26.0987C10.4149 26.0768 10.1987 25.9562 9.93688 25.8466C9.6637 25.737 9.33361 25.5178 9.18563 25.3643C8.93522 25.1123 8.93522 25.0684 9.08319 24.7286C9.31084 24.2025 9.80029 23.7751 10.2556 23.6874C10.4719 23.6545 10.6426 23.5887 10.6426 23.5449C10.6426 23.4353 11.3369 23.2051 11.6442 23.2051C11.8947 23.2051 11.8947 23.2161 11.7239 23.6107C11.5418 24.0381 11.5759 24.1806 11.815 23.9943C11.9288 23.8956 11.9971 23.8956 12.0995 23.9943C12.1906 24.082 12.2703 24.082 12.3727 24.0052C12.4752 23.9176 12.5662 23.9285 12.6687 24.0381C12.7939 24.1696 12.7142 24.2354 12.1792 24.4875C11.8377 24.6519 11.5532 24.8273 11.5532 24.8711C11.5532 24.9917 11.6329 24.9807 11.9288 24.8382C12.1792 24.7067 12.1792 24.7067 11.9174 24.9807C11.6556 25.2657 11.667 25.6164 11.9516 25.6164C12.1906 25.6164 12.2817 25.8466 12.1109 25.9672C11.8264 26.1535 12.4865 25.9453 13.067 25.6712C13.4427 25.4849 13.602 25.452 13.602 25.5507C13.602 25.6274 13.3402 26.4166 13.0329 27.3153C12.7142 28.2031 12.4752 28.9594 12.5093 28.9813C12.5321 29.0032 12.6459 28.7621 12.7483 28.4443C12.8622 28.1264 13.0443 27.7428 13.1695 27.6003C13.7614 26.855 14.3988 24.915 14.3533 23.9614C14.3419 23.7203 14.3646 23.5011 14.4102 23.4682C14.524 23.4024 14.2964 22.6461 14.1028 22.4379C14.0232 22.3502 13.8638 22.1748 13.75 22.0543C13.6362 21.9337 13.4199 21.7364 13.2605 21.6158C13.1012 21.4953 12.8849 21.2541 12.7711 21.0897C12.6573 20.9253 12.5207 20.8157 12.4638 20.8486C12.4069 20.8815 12.0312 20.6842 11.6215 20.4211C11.2003 20.1471 10.8702 19.9498 10.8702 19.9827C10.8702 20.0156 10.6881 19.9498 10.4605 19.8183C10.2442 19.6868 9.95964 19.5881 9.83443 19.5881C9.72061 19.5881 9.61817 19.5114 9.61817 19.4237C9.61817 19.336 9.53849 19.2593 9.43605 19.2593C9.33361 19.2593 9.29946 19.3141 9.34499 19.3909C9.4019 19.4785 9.36775 19.4895 9.24255 19.4457C8.81001 19.2922 7.93356 19.2374 7.69453 19.358C7.4555 19.4895 7.4555 19.4785 7.4555 18.229C7.4555 17.5385 7.50103 16.859 7.54656 16.7165C7.60347 16.574 7.60347 16.1684 7.56933 15.8068L7.48965 15.1491L7.47827 15.8616C7.47827 16.2561 7.36444 16.9357 7.23924 17.3631C6.97744 18.251 6.93191 18.6784 7.18232 17.9989C7.31891 17.6043 7.3303 17.7358 7.262 19.3141C7.22785 20.2787 7.19371 21.4624 7.20509 21.9447C7.21647 22.7338 7.19371 22.7996 7.04573 22.6133C6.85223 22.3612 6.84085 22.4379 7.01159 22.7886C7.07988 22.953 7.09126 23.1394 7.02297 23.3147C6.92053 23.5778 6.90914 23.5668 6.85223 23.1503C6.71564 22.3283 6.82947 20.7609 7.04573 20.3773C7.15956 20.169 7.21647 19.9827 7.18232 19.9498C7.15956 19.917 6.98882 20.18 6.82947 20.5198C6.56767 21.0349 6.53352 21.2322 6.59044 21.6597C6.63597 21.9337 6.6815 22.5036 6.70426 22.9092C6.73841 23.512 6.71564 23.6435 6.59044 23.5997C6.29449 23.4901 6.43108 23.7312 6.86361 24.071L7.28477 24.3998L6.97744 24.4108C6.59044 24.4108 6.18067 24.2573 5.93025 24.0272C5.82781 23.9176 5.70261 23.8737 5.65708 23.9176C5.56602 24.0052 6.30587 24.63 6.51076 24.63C6.59044 24.63 6.70426 24.7286 6.77256 24.8382C6.85223 24.9917 6.95467 25.0246 7.13679 24.9807C7.36444 24.9259 7.36444 24.9478 7.05712 25.1999C6.875 25.3643 6.69288 25.463 6.65873 25.4301C6.62458 25.3972 6.67011 25.3424 6.74979 25.3205C6.94329 25.2547 6.92053 25.1013 6.72703 25.1013C6.38555 25.1013 5.52049 24.7177 5.52049 24.5642C5.52049 24.4765 5.20178 23.5997 4.81477 22.6242L4.12045 20.8486L4.06353 19.1388C3.96109 15.6095 4.75786 13.1214 7.0002 10.0305C7.87665 8.81392 10.2214 6.50125 11.5077 5.59152C12.9305 4.58315 14.3874 3.9036 15.2411 3.84879C15.833 3.80495 15.9013 3.81591 15.6509 3.92552C13.124 5.07638 12.6573 5.37231 11.5987 6.41356C10.6312 7.37809 8.99213 9.77845 8.96937 10.2826C8.95798 10.3703 8.83278 10.8087 8.67342 11.2691C8.30919 12.3103 8.04739 13.5379 7.92218 14.8203C7.86527 15.3574 7.78559 15.9054 7.72868 16.015C7.67177 16.1684 7.68315 16.2013 7.77421 16.1465C7.87665 16.0917 7.9108 16.2781 7.9108 16.848C7.9108 17.396 7.94495 17.6043 8.03601 17.5495C8.12707 17.4947 8.13845 17.1768 8.09292 16.5192C8.01324 15.5875 8.01324 15.5547 8.43439 14.6997C9.6637 12.1679 11.5532 9.61404 14.1256 6.99447C15.059 6.0409 15.833 5.0983 15.9354 4.7914C15.9923 4.62699 16.072 4.61603 16.4249 4.69276C17.1533 4.85717 17.142 4.81332 16.3793 3.88168C15.5598 2.87331 14.9452 2.35816 14.1484 1.99646L13.6134 1.75533L14.1825 1.63477C15.0704 1.43748 16.5045 1.47036 17.4493 1.72245C18.4282 1.9855 18.3827 1.9855 18.3827 1.76629C18.3827 1.50324 17.4151 0.582554 16.8233 0.286617C16.3452 0.0564461 16.1062 0.0235634 14.911 0.00164413C14.0573 -0.00931549 13.2833 0.0345268 12.8394 0.133171ZM16.5728 0.418144C17.1192 0.648315 18.2916 1.68957 17.8704 1.57996C16.6184 1.24018 14.672 1.21827 13.7158 1.5142C13.4996 1.57996 12.7028 1.67861 11.9516 1.72245C10.9841 1.77725 10.2897 1.88686 9.56125 2.10607C8.3661 2.44585 6.56767 3.16924 6.73841 3.22404C6.8067 3.24597 7.11403 3.14732 7.42135 3.00483C8.69619 2.38008 10.8247 1.83205 11.8719 1.84301C12.441 1.84301 12.4865 1.86494 12.2361 1.96358C10.9727 2.48969 8.59375 3.84879 8.02462 4.36394C7.92218 4.45163 7.51241 4.7914 7.11403 5.10926C5.60016 6.33684 4.16598 7.89324 2.91391 9.65788C2.17405 10.7101 2.11713 10.6882 2.39031 9.46059C2.92529 7.03831 4.43915 4.61603 5.97578 3.71727C6.31726 3.51998 6.59044 3.31173 6.57905 3.26789C6.53352 3.11444 8.04739 2.19375 9.26531 1.60188C10.6084 0.966171 12.0995 0.48391 13.2605 0.297577C13.7272 0.231815 14.1939 0.15509 14.285 0.133171C14.6834 0.0454865 16.0834 0.220856 16.5728 0.418144ZM14.2281 2.20471C14.8541 2.47873 15.5257 2.99387 15.8899 3.4871L16.1175 3.80495L15.7988 3.68439C14.6606 3.26789 11.3597 5.17502 8.8214 7.70691C6.49938 10.0196 5.04242 12.3871 4.24565 15.1491C4.07492 15.741 4.00662 16.4096 3.96109 18.0537L3.8928 20.191L3.67653 19.5881C2.87976 17.396 2.28787 14.6778 2.15128 12.6282C2.07161 11.291 2.10575 11.1595 2.92529 9.97574C5.33837 6.47933 8.95798 3.4871 12.4638 2.09511C13.1581 1.82109 13.3858 1.83205 14.2281 2.20471ZM16.5615 4.35298C16.6639 4.53931 16.6525 4.57219 16.459 4.57219C16.2086 4.57219 16.0606 4.40778 16.1631 4.24338C16.2769 4.06801 16.4249 4.11185 16.5615 4.35298ZM15.685 4.55027C15.8557 4.62699 15.833 4.70372 15.4574 5.25175C15.2183 5.59152 14.3988 6.53413 13.6362 7.33425C11.4394 9.63596 10.0393 11.4993 8.68481 13.9435C8.05877 15.0943 8.01324 14.9847 8.3661 13.1762C9.09457 9.58116 10.9271 6.72046 13.4654 5.24078C14.6492 4.53931 15.2069 4.3749 15.685 4.55027ZM1.99193 12.5295C1.99193 14.2394 2.62934 17.1987 3.52856 19.6977C3.75621 20.3335 3.98386 21.1884 4.04077 21.6158C4.22289 23.1503 4.5416 24.5423 4.83754 25.0575C4.99689 25.3643 4.90583 25.3534 4.17736 24.9478C3.83588 24.7615 3.58547 24.6738 3.60824 24.7506C3.68791 24.9917 4.95136 25.5836 5.64569 25.7151C6.19205 25.8247 6.31726 25.8905 6.31726 26.0658C6.31726 26.3179 6.4197 26.3289 6.72703 26.1097C6.84085 26.022 7.12541 25.9562 7.34168 25.9562H7.74006L7.44412 26.1973C7.27338 26.3289 6.96606 26.57 6.76117 26.7235C6.2262 27.129 6.39693 27.2057 7.0685 26.8659C7.75145 26.5152 7.92218 26.3837 7.85389 26.2741C7.81974 26.2193 7.85389 26.1425 7.92218 26.0987C8.01324 26.0549 8.02462 26.0658 7.97909 26.1425C7.93356 26.2193 7.95633 26.2741 8.03601 26.2741C8.12707 26.2741 8.1043 26.3508 7.97909 26.4823C7.79698 26.6796 7.79698 26.7015 8.01324 26.844C8.22951 26.9865 8.21813 27.0194 7.67177 27.9182C6.89776 29.2005 6.6132 30.1322 6.69288 31.1406C6.72703 31.568 6.78394 32.0174 6.82947 32.138C6.92053 32.4229 6.05546 31.5242 5.13348 30.3843C2.29925 26.8988 0.762624 23.7641 0.227649 20.3663C-0.170737 17.8016 0.227649 15.193 1.40004 12.6172C1.62769 12.113 1.85534 11.6965 1.91225 11.6965C1.95778 11.6965 1.99193 12.0692 1.99193 12.5295ZM9.5954 19.8841C9.82305 20.191 9.75476 20.2458 9.32222 20.0704C9.09457 19.9827 8.79863 19.917 8.66204 19.9389C8.50269 19.9608 8.67342 20.0594 9.18563 20.2458C9.81167 20.465 9.9824 20.5855 10.1759 20.9144C10.5857 21.6049 11.0751 21.8022 10.7678 21.1555C10.6084 20.8157 10.6767 20.8815 11.1434 21.4843C11.3142 21.7035 11.4963 21.8679 11.5532 21.8351C11.6329 21.7802 11.7808 22.0214 11.7808 22.2187C11.7808 22.2735 11.5873 22.2625 11.3597 22.1967C10.7678 22.0433 9.41328 22.1419 8.99213 22.3721C8.81001 22.4708 8.7531 22.5365 8.87831 22.4927C9.06043 22.4379 9.04904 22.4817 8.79863 22.7119C8.61651 22.8653 8.47992 23.0846 8.47992 23.1832C8.47992 23.2818 8.43439 23.4463 8.3661 23.5339C8.28642 23.6655 8.22951 23.6545 8.03601 23.4791C7.80836 23.2928 7.80836 23.2709 7.99048 23.0736C8.09292 22.964 8.24089 22.8873 8.32057 22.9201C8.40024 22.953 8.4913 22.8982 8.52545 22.7996C8.65066 22.5036 8.51407 22.5256 8.09292 22.8763C7.87665 23.0626 7.649 23.1942 7.59209 23.1613C7.39859 23.0517 7.35306 22.2954 7.44412 21.0897C7.51241 20.1033 7.56933 19.8731 7.78559 19.6539C8.02462 19.4018 8.04739 19.4018 8.74172 19.5553C9.12872 19.6429 9.51572 19.7854 9.5954 19.8841ZM10.1304 20.1581L10.3125 20.5198L10.0735 20.2567C9.94826 20.1142 9.84582 19.9608 9.84582 19.906C9.84582 19.7087 9.95964 19.8183 10.1304 20.1581ZM10.9158 20.3115C11.1206 20.4979 11.1548 20.7938 10.9841 20.7938C10.9271 20.7938 10.8019 20.6404 10.6995 20.465C10.506 20.1142 10.6312 20.0266 10.9158 20.3115ZM11.7808 21.1117C11.7694 21.2432 11.7239 21.2322 11.5532 21.024C11.428 20.8815 11.3255 20.6842 11.3255 20.5855C11.3369 20.454 11.3824 20.465 11.5532 20.6732C11.6784 20.8157 11.7808 21.013 11.7808 21.1117ZM12.6459 21.561C12.8394 21.9885 12.6345 21.9885 12.3613 21.5501C12.2247 21.3309 12.1337 21.2651 12.0882 21.3637C12.0654 21.4405 12.0426 21.3747 12.054 21.2213C12.0654 20.9582 12.0882 20.9472 12.2817 21.0788C12.4069 21.1555 12.5662 21.3747 12.6459 21.561ZM11.9516 21.6816C12.054 21.8679 12.1109 22.0762 12.0882 22.1419C12.0426 22.2516 11.667 21.583 11.667 21.3966C11.667 21.2541 11.7922 21.3747 11.9516 21.6816ZM13.7728 22.5146C13.8752 22.6571 13.898 22.7667 13.8297 22.7667C13.7614 22.7667 13.6134 22.6023 13.4882 22.405C13.363 22.2187 13.2605 22.131 13.2605 22.2187C13.2605 22.3502 13.2378 22.3502 13.1012 22.2187C13.0101 22.131 12.9077 21.9337 12.8622 21.7802C12.7825 21.5282 12.8053 21.5282 13.1923 21.8899C13.4199 22.0981 13.6817 22.3831 13.7728 22.5146ZM12.589 22.2187C12.8622 22.679 13.0329 22.7448 12.8053 22.3064C12.68 22.0652 12.6914 22.0652 12.8508 22.2625C12.9532 22.3831 13.0329 22.5146 13.0329 22.5694C13.0329 22.6133 13.1012 22.6242 13.1923 22.5913C13.2833 22.5584 13.3744 22.5804 13.4085 22.6242C13.4427 22.679 13.2719 22.7229 13.0329 22.7338C12.6345 22.7448 12.5776 22.7009 12.3955 22.3392C12.293 22.12 12.1792 21.9118 12.1565 21.857C12.1337 21.8131 12.1565 21.7802 12.2247 21.7802C12.2817 21.7802 12.4524 21.9775 12.589 22.2187ZM4.89445 23.5449C4.84892 23.5997 4.87169 23.6435 4.93998 23.6435C5.05381 23.6435 5.34975 24.3889 5.27007 24.4656C5.24731 24.4985 5.1221 24.4437 4.98551 24.356C4.72371 24.1806 4.42777 23.3147 4.32533 22.4379L4.26842 21.8351L4.60989 22.6352C4.80339 23.0736 4.9286 23.4901 4.89445 23.5449ZM11.6442 22.4598C12.1792 22.6133 12.0426 22.6681 11.4735 22.5256C11.0865 22.4379 10.8702 22.4488 10.3466 22.6133C9.9824 22.7229 9.5954 22.8982 9.47019 23.0188C9.35637 23.1284 9.18563 23.1942 9.09457 23.1613C9.00351 23.1284 8.93522 23.1503 8.93522 23.2161C8.93522 23.2818 8.87831 23.2928 8.79863 23.249C8.69619 23.1832 8.69619 23.1503 8.79863 23.1174C8.87831 23.0955 8.93522 23.0078 8.93522 22.9311C8.93522 22.7229 9.44743 22.4379 9.99379 22.3392C10.5174 22.2516 11.0524 22.2844 11.6442 22.4598ZM11.667 22.7448C11.667 22.7996 11.4507 22.8434 11.1889 22.8544C10.9158 22.8653 10.5174 22.8982 10.3011 22.9421C10.0848 22.9859 9.93688 22.9749 9.9824 22.9311C10.1759 22.7338 11.667 22.5694 11.667 22.7448ZM14.0346 23.3586C14.0687 23.6545 14.0573 23.6655 13.8866 23.5339C13.7841 23.4572 13.6476 23.2928 13.5906 23.1832C13.4882 22.9969 13.511 22.9749 13.7386 23.0078C13.9321 23.0298 14.0118 23.1174 14.0346 23.3586ZM7.56933 24.0491C7.56933 24.071 7.44412 24.0162 7.28477 23.9504C6.96606 23.8079 6.95467 23.7751 7.12541 23.3476L7.25062 23.0407L7.40997 23.5339C7.48965 23.8079 7.56933 24.0381 7.56933 24.0491ZM9.80029 23.3695C9.54987 23.5559 9.27669 23.5887 9.27669 23.4353C9.27669 23.3805 9.41328 23.3038 9.5954 23.2818C9.76614 23.2599 9.92549 23.227 9.95964 23.227C9.99379 23.2161 9.91411 23.2818 9.80029 23.3695ZM5.45219 24.9917C5.58878 25.5068 5.13348 25.3424 4.89445 24.7834C4.6668 24.2573 4.6668 24.2573 5.05381 24.5313C5.23593 24.6629 5.41804 24.8711 5.45219 24.9917ZM6.54491 25.4191C6.54491 25.5616 6.46523 25.6164 6.21482 25.6164C5.67984 25.6164 5.55463 25.5288 5.61155 25.189L5.65708 24.8711L6.10099 25.0465C6.39693 25.1561 6.54491 25.2767 6.54491 25.4191ZM8.25227 25.1123C8.25227 25.2438 7.87665 25.5068 7.70592 25.5068C7.54656 25.4959 7.56933 25.452 7.78559 25.2876C8.02462 25.0794 8.25227 25.0026 8.25227 25.1123Z" fill="black"/>
<path d="M7.52792 27.2412C7.03006 27.4522 7.03006 27.4633 7.48463 27.3522C7.74438 27.2856 8.02578 27.1746 8.09072 27.1191C8.30718 26.9415 8.06907 26.9859 7.52792 27.2412Z" fill="black"/>
<path d="M21.0248 0.0494919C20.1489 0.271027 19.318 0.957775 18.9026 1.78852C18.7229 2.13189 18.5769 2.48634 18.5657 2.56388C18.5545 2.65249 18.5096 2.75218 18.4646 2.78541C18.2738 2.97371 18.4197 3.01802 18.8801 2.90725C19.318 2.80756 19.4415 2.82972 19.9244 3.06232C20.6093 3.39462 21.1258 4.20321 21.2381 5.08934C21.3055 5.65425 21.6087 6.61791 21.8669 7.06097C21.9231 7.16066 22.0241 7.53727 22.0803 7.89172C22.1477 8.24617 22.2712 8.96614 22.361 9.48674C22.7652 11.835 24.4271 17.4508 24.9773 18.3148C25.0671 18.4588 25.112 18.6582 25.0671 18.7578C24.9885 18.9683 25.0222 19.068 25.1457 19.0348C25.1906 19.0126 25.258 19.1234 25.3029 19.2784C25.3815 19.5886 25.5837 19.6329 25.797 19.3892C25.9542 19.2009 25.8756 19.0569 25.5949 19.0569C25.4601 19.0569 25.4152 18.9794 25.4264 18.8022C25.4489 18.6692 25.4152 18.5585 25.3591 18.5585C25.157 18.5585 24.0565 15.4127 23.2818 12.6103C22.9786 11.5138 22.3161 8.39016 22.3161 8.05787C22.3161 8.02464 22.5294 8.29047 22.7877 8.656C23.6299 9.84119 24.7976 11.1261 26.3697 12.6214C27.908 14.0725 27.9305 14.1057 27.9305 14.582C27.9305 15.1358 28.0315 15.5678 28.1438 15.5678C28.1887 15.5678 28.2112 15.2798 28.1775 14.9253L28.1326 14.294L28.5368 14.6706C28.7501 14.881 28.9635 15.025 28.9972 15.0029C29.0196 14.9697 28.8512 14.7481 28.6042 14.5155C28.155 14.0835 28.155 14.0725 28.155 13.2528V12.411L29.1095 13.3525C29.6372 13.8731 30.0639 14.2275 30.0639 14.1611C30.0639 14.0946 29.9292 13.9174 29.7607 13.7734C29.5811 13.6183 29.1544 13.1974 28.7951 12.8319L28.1438 12.1673L28.0427 10.5723C27.9978 9.6972 27.9641 8.96614 27.9754 8.94399C27.9978 8.93291 28.3459 9.53105 28.7726 10.2732C30.2211 12.8873 31.9728 15.2798 33.2866 16.4539C34.1624 17.2404 34.3645 17.3954 35.2628 17.9271C36.4531 18.6471 37.7893 19.068 39.7431 19.3338C43.9763 19.9098 46.3905 21.095 47.3786 23.0777C47.7379 23.7866 47.7491 23.8642 47.7491 25.2044C47.7491 26.4339 47.7155 26.6998 47.4235 27.5748C47.2439 28.1065 47.0081 28.6382 46.8845 28.7378C46.66 28.9594 45.2115 29.4578 43.5384 29.912C42.9545 30.0781 42.3818 30.2332 42.2808 30.2664C42.1011 30.3218 42.0786 30.2443 42.0786 29.6018C42.0786 29.2141 41.9551 28.4166 41.8092 27.8517C40.8996 24.2961 38.8111 21.6488 33.0395 16.7308C32.6128 16.3653 32.0402 15.8779 31.7819 15.6342C31.5124 15.4016 31.2991 15.2576 31.2991 15.3241C31.2991 15.3906 31.4675 15.5678 31.6696 15.7339C31.8605 15.9001 32.377 16.3431 32.8149 16.7198C33.2416 17.0853 34.0501 17.7942 34.6115 18.2705C36.7787 20.1535 39.0581 22.5793 39.9227 23.9306C41.1916 25.9022 41.9664 28.1286 41.9664 29.7901V30.3772L41.4948 30.5101C40.6301 30.7649 39.1929 31.4848 38.71 31.9168C38.1149 32.4485 37.924 32.8251 37.924 33.4565C37.924 34.0768 38.2047 34.6527 38.8897 35.406C39.3501 35.9266 39.4062 36.0262 39.3388 36.3807C39.2715 36.8127 38.71 37.3887 38.3507 37.3887C38.2496 37.3887 38.1374 37.433 38.0924 37.4884C37.924 37.7653 38.8111 37.3444 39.1367 37.001C39.6532 36.4472 39.6196 36.0705 38.9907 35.3616C37.4636 33.6448 37.7331 32.4042 39.8329 31.3519C40.3831 31.075 41.7755 30.5212 41.9102 30.5212C42.0337 30.5212 41.9439 31.6178 41.7418 32.6368C41.506 33.7888 40.9445 35.4281 40.4729 36.3475C40.327 36.6465 40.1698 37.0121 40.1248 37.1671C39.9901 37.6767 41.0344 35.4613 41.3375 34.5752C41.7642 33.3679 42.0786 31.9168 42.0786 31.1193V30.4547L43.0106 30.2C45.1441 29.6129 46.4354 29.1809 46.8059 28.9483C47.1203 28.7378 47.2439 28.5274 47.5021 27.7742C47.6705 27.2647 47.8727 26.4561 47.94 25.9798C48.3218 23.2771 46.8733 21.1947 43.8191 20.076C42.6625 19.655 41.8092 19.4667 39.7768 19.1677C37.6994 18.8686 36.6889 18.5585 35.4649 17.8496C33.3315 16.609 31.5461 14.6041 29.48 11.1261C28.2673 9.08799 27.9529 8.41232 27.8743 7.68126C27.616 5.20011 26.7514 2.96264 25.5724 1.66668C25.3478 1.42299 25.1008 1.01316 25.0222 0.758396C24.8538 0.171337 24.6292 0.0494919 23.7983 0.0716476C23.4502 0.0827217 22.754 0.0605698 22.2599 0.0273399C21.7659 -0.0169678 21.2157 -0.00588989 21.0248 0.0494919ZM22.9 0.259949C23.0684 0.326408 23.0123 0.403946 22.5968 0.725166C22.3273 0.935619 22.0691 1.20146 22.0354 1.30115C21.9792 1.44514 21.8445 1.50053 21.5525 1.50053C21.0023 1.50053 20.1826 1.75529 19.4415 2.15405C19.1047 2.33127 18.8352 2.44204 18.8352 2.40881C18.8352 2.3645 18.9812 2.07651 19.1721 1.76637C19.5538 1.09069 20.1602 0.570091 20.8002 0.34856C21.2718 0.182411 22.5631 0.127029 22.9 0.259949ZM24.719 0.41502C24.8201 0.547939 24.8987 0.747318 24.8987 0.858086C24.8987 1.02423 24.8313 1.01316 24.4271 0.725166C24.1801 0.547939 23.8993 0.392868 23.8095 0.392868C23.7197 0.392868 23.686 0.337486 23.7197 0.282101C23.8544 0.0605698 24.5394 0.160259 24.719 0.41502ZM24.3373 0.935619C24.9436 1.33438 24.9548 1.34546 24.9212 1.83282C24.9099 2.10974 24.8426 2.51957 24.7752 2.76326L24.6517 3.19524L24.1351 2.6968C23.4951 2.09866 23.1695 1.89928 22.5631 1.71098C21.9231 1.52268 21.9455 1.43407 22.7652 0.791626C23.3491 0.34856 23.4502 0.34856 24.3373 0.935619ZM26.5269 3.54969C27.0322 4.56874 27.4027 5.76501 27.5374 6.7619C27.5711 7.06097 27.6273 7.43758 27.661 7.59265C27.6834 7.74772 27.4813 7.47081 27.1894 6.98344C26.1226 5.16688 25.7745 4.61305 25.3366 4.03706C24.8875 3.45 24.8875 3.42785 24.9548 2.77433C24.9885 2.40881 25.0559 1.9879 25.0896 1.83282C25.157 1.56699 25.1682 1.57806 25.5949 2.05436C25.8419 2.33127 26.2574 2.99586 26.5269 3.54969ZM21.4627 2.46419C21.3167 2.8851 21.1932 3.39462 21.1932 3.60508C21.182 3.9706 21.182 3.98168 21.0248 3.77122C20.5869 3.19524 20.1153 2.82972 19.6324 2.68572L19.1159 2.54173L19.7672 2.23158C20.4521 1.89928 20.935 1.75529 21.4403 1.73314L21.7322 1.72206L21.4627 2.46419ZM23.293 2.29804C23.6299 2.49742 24.0565 2.82972 24.2474 3.04017C24.5955 3.4057 24.5955 3.43893 24.6292 4.70166C24.6629 6.21915 24.9212 7.31573 25.5724 8.66708C26.044 9.66397 26.8974 10.9489 27.515 11.6356C27.908 12.0676 27.9305 12.1119 27.9305 12.9426V13.8177L27.5487 13.4965C26.6279 12.7433 23.9779 10.0073 23.3379 9.15445C22.4284 7.93602 22.2936 7.65911 21.9231 6.20807C21.7434 5.5324 21.5413 4.83458 21.4515 4.6352C21.2606 4.16998 21.2606 3.69369 21.4852 2.8851C21.7434 1.89928 21.8894 1.71098 22.3273 1.83282C22.5294 1.88821 22.9674 2.09866 23.293 2.29804ZM25.3142 4.34721C25.7745 5.00073 26.5269 6.2413 27.3016 7.6148C27.6722 8.2794 27.7283 8.47878 27.7733 9.33167C27.7957 9.87442 27.8406 10.6498 27.8743 11.0818L27.9192 11.8571L27.616 11.5138C26.83 10.6166 26.3697 9.94088 25.8195 8.85538C25.112 7.48188 24.8875 6.61791 24.8201 5.06719C24.7864 4.32505 24.7752 3.71584 24.8089 3.71584C24.8426 3.71584 25.0671 4.00383 25.3142 4.34721ZM21.6424 5.82039C21.6424 5.96439 21.6311 5.96439 21.5301 5.82039C21.4739 5.73178 21.4178 5.57671 21.4178 5.4881C21.4178 5.3441 21.429 5.3441 21.5301 5.4881C21.5862 5.57671 21.6424 5.73178 21.6424 5.82039Z" fill="black"/>
<path d="M0.651669 8.41128C0.0978572 8.98384 -0.0824534 9.2094 0.0334606 9.12264C0.303927 8.94047 1.11532 8.125 1.01229 8.125C0.960773 8.125 0.806221 8.25513 0.651669 8.41128Z" fill="black"/>
<path d="M30.6383 14.2666C30.6383 14.2978 30.874 14.5163 31.1568 14.7817L31.6596 15.2344L31.2039 14.7192C30.764 14.2509 30.6383 14.1417 30.6383 14.2666Z" fill="black"/>
<path d="M29.617 15.2544C29.617 15.4584 30.5255 16.3371 30.6351 16.243C30.6664 16.1959 30.4628 15.9135 30.1652 15.631C29.8676 15.3329 29.617 15.176 29.617 15.2544Z" fill="black"/>
<path d="M28.6728 16.3573C28.55 16.5287 28.5835 17.2656 28.7063 17.2656C28.7733 17.2656 28.8179 17.0257 28.8179 16.7515C28.8179 16.2202 28.7956 16.1516 28.6728 16.3573Z" fill="black"/>
<path d="M31.4629 17.316C33.1294 19.2503 34.6806 21.5252 35.4981 23.2066C35.9803 24.2287 36.4939 25.5914 36.5882 26.119C36.6301 26.3168 36.693 26.4487 36.7454 26.3937C36.7978 26.3388 36.7454 26.0091 36.6406 25.6464C36.0432 23.6462 34.7645 21.2944 33.0141 18.9975C32.0079 17.6677 30.7816 16.25 30.6453 16.25C30.5824 16.25 30.9493 16.7336 31.4629 17.316Z" fill="black"/>
<path d="M28.5958 18.0481C28.5958 18.1813 28.6516 18.2812 28.7074 18.2812C28.7744 18.2812 28.819 18.2146 28.819 18.1258C28.819 18.037 28.7744 17.926 28.7074 17.8927C28.6516 17.8594 28.5958 17.926 28.5958 18.0481Z" fill="black"/>
<path d="M28.1054 18.4061C27.8939 18.4394 27.816 18.4838 27.9384 18.4949C28.0608 18.506 28.2389 18.5615 28.328 18.617C28.4727 18.7058 28.4727 18.7613 28.3502 18.9611C28.2612 19.0832 28.2501 19.1609 28.3169 19.1276C28.4393 19.0499 28.4616 19.0943 28.7621 20.4042C28.8845 20.9259 29.1071 21.6918 29.2741 22.1137C29.5858 22.9462 29.5635 23.1682 29.1517 23.4457C28.8845 23.6233 28.8623 23.6122 28.6508 23.3569C28.5395 23.2015 28.1722 22.924 27.8382 22.7353C27.3485 22.4689 27.137 22.2469 26.7363 21.5919C26.0907 20.5374 26.0239 20.3265 26.3244 20.2266C26.458 20.1822 26.547 20.1267 26.5137 20.1045C26.4914 20.0712 26.3467 20.0934 26.202 20.1489C25.7345 20.3265 25.3004 20.4042 25.3672 20.3043C25.3894 20.2599 25.3783 20.1489 25.3227 20.0601C25.2447 19.9269 25.1891 19.938 24.9999 20.1045C24.6659 20.4042 24.7105 20.5707 25.0555 20.3376C25.2225 20.2377 25.3115 20.2044 25.2781 20.271C25.2336 20.3376 25.2447 20.4708 25.3004 20.5707C25.3672 20.6928 25.4228 20.715 25.4785 20.6262C25.6121 20.4153 25.9682 20.493 26.0573 20.7483C26.0907 20.8815 26.3244 21.3033 26.5582 21.6918C27.0034 22.4134 26.9812 22.5022 26.4023 22.2913C26.0907 22.1692 25.9794 22.2247 26.0684 22.4578C26.1018 22.5577 26.291 22.6132 26.5359 22.6132C27.0145 22.6132 27.1481 22.702 26.9923 22.8907C26.9255 22.9795 26.714 23.0017 26.4023 22.9462C26.1352 22.9129 25.6232 22.9351 25.2559 23.0128C24.8997 23.0794 24.5658 23.1238 24.5101 23.0905C24.4656 23.0683 24.2986 23.146 24.1205 23.257C23.9536 23.3791 23.6419 23.5456 23.4304 23.6344C23.2078 23.7343 22.6179 24.0673 22.1058 24.3781C21.5938 24.7 21.1597 24.9332 21.1375 24.911C21.1041 24.8888 21.3489 24.6223 21.6717 24.3337C22.2505 23.8231 23.3191 23.2237 24.5769 22.7353C24.9219 22.591 25.2113 22.4245 25.2113 22.369C25.2113 22.3135 25.1223 22.2913 25.0221 22.3135C24.9108 22.3468 24.6771 22.4023 24.4878 22.4467C23.8979 22.5799 23.0965 22.9684 23.1744 23.0905C23.2078 23.1571 23.1855 23.1682 23.1188 23.1238C22.9073 22.9906 21.6161 23.9008 21.1486 24.5224C20.4696 25.3883 20.4028 25.5215 20.503 25.6214C20.6366 25.7546 21.182 25.5659 21.271 25.3439C21.3267 25.2107 22.2617 24.5002 22.7626 24.2227C22.8516 24.1672 22.5956 24.4669 22.1838 24.8888C21.5382 25.5437 20.9816 26.3429 21.1152 26.4317C21.1263 26.4428 21.8498 26.6204 22.7069 26.8202C23.564 27.0311 24.3877 27.2309 24.5435 27.2753C24.7884 27.353 24.7661 27.3752 24.3877 27.3752C23.7643 27.3863 23.9202 27.4529 24.7661 27.5306C25.178 27.575 25.3894 27.5639 25.267 27.5084C25.1112 27.4418 25.2893 27.3974 25.8792 27.3419C26.3356 27.2975 26.9366 27.2087 27.2038 27.1532C27.5377 27.0755 27.738 27.0866 27.816 27.1643C27.8939 27.242 27.8828 27.2753 27.7937 27.2864C27.6156 27.3086 27.5377 27.3308 27.1815 27.4751C27.0034 27.5528 26.5582 27.6194 26.1797 27.6194L25.4896 27.6417L26.1018 27.7083C26.5693 27.7749 26.8476 27.7416 27.2706 27.575C28.0052 27.2975 28.0275 27.2864 27.8716 27.0977C27.7714 26.9756 27.7937 26.9423 27.9829 26.9423C28.1499 26.9423 28.2055 26.9867 28.1499 27.0755C28.0275 27.2864 28.3948 26.9978 29.0181 26.4095C29.5079 25.9433 29.5746 25.91 30.2202 25.8989L30.8992 25.8767L31.4224 26.4428C31.7118 26.7647 32.3462 27.5861 32.836 28.2744C33.3257 28.9737 33.9268 29.8173 34.1605 30.1503C35.0955 31.4713 35.6632 33.1141 35.6743 34.4684C35.6743 34.9457 35.6076 35.1566 35.3404 35.5562C35.1512 35.8226 34.9731 36.0446 34.9397 36.0446C34.9174 36.0446 34.3943 35.3786 33.7932 34.5683C33.181 33.7691 32.4464 32.881 32.1459 32.6035L31.6116 32.104L32.1793 32.7145C32.5021 33.0475 33.2367 33.9689 33.8266 34.757C35.0733 36.411 35.0733 36.1223 33.771 37.6542C32.7135 38.9085 30.6432 40.8844 28.0497 43.1489C24.6437 46.1127 22.8516 47.9332 21.7608 49.5871C21.4936 49.9867 21.2599 50.3198 21.2488 50.342C21.2376 50.3642 20.8369 50.4752 20.3583 50.5973C18.8334 50.9747 15.4719 50.9969 14.0026 50.6306C13.8579 50.5862 13.7466 50.6084 13.7466 50.675C13.7466 50.8526 14.971 51.0413 16.5849 51.1079C18.1433 51.1634 19.2563 51.0635 20.4473 50.7749L21.0818 50.6195L20.9037 51.0191C20.4028 52.1291 19.8685 53.9052 19.7572 54.7821C19.6905 55.3149 19.5791 55.8366 19.5235 55.9476C19.4678 56.0587 19.4456 56.203 19.4901 56.2696C19.5346 56.3362 19.5235 56.3584 19.4456 56.314C19.3009 56.2252 18.7109 57.424 18.4772 58.3009C18.3881 58.6783 18.3214 59.3444 18.3325 59.855L18.3436 60.743L18.4215 59.6885C18.4549 59.1113 18.5551 58.423 18.6219 58.1677C18.8111 57.535 19.312 56.425 19.3788 56.5027C19.4122 56.536 19.3788 56.6692 19.312 56.8135C18.7443 57.868 18.5774 60.0215 18.9781 61.1981C19.2786 62.064 19.6682 62.7411 19.8685 62.7411C20.08 62.7411 20.0912 61.6755 19.8908 58.5562L19.735 56.2585L20.0466 55.7256C20.4807 54.9708 21.0707 54.1494 21.527 53.661C23.0742 52.007 27.3373 48.7324 28.7176 48.1441C29.6192 47.7667 31.055 46.9341 30.966 46.8453C30.9326 46.8231 30.7211 46.9341 30.4874 47.0895C29.9086 47.4892 29.007 47.9443 28.8845 47.8999C28.7955 47.8666 32.2572 45.3801 32.7692 45.1026C33.0475 44.9472 31.99 46.0128 31.5893 46.2903C31.389 46.4235 31.222 46.5789 31.222 46.6233C31.222 46.7565 32.1904 45.9462 33.4148 44.7807C33.9713 44.2478 34.4722 43.8149 34.5056 43.8149C34.5501 43.8149 34.1717 44.5919 33.6708 45.5466C33.1699 46.5012 32.7915 47.3004 32.8137 47.3226C32.8582 47.3781 33.6597 45.9351 34.6726 43.9925C34.8618 43.6262 35.2068 43.2488 35.73 42.827C36.9099 41.8946 38.8912 39.8632 39.5033 38.9641C39.8039 38.52 40.0265 38.1315 40.0042 38.0982C39.9708 38.076 39.6926 38.4423 39.3809 38.9085C38.7576 39.8299 37.4553 41.2063 36.1196 42.3386C35.2625 43.0712 34.9174 43.1045 35.5853 42.3941C35.7856 42.161 36.0305 41.8835 36.1196 41.7502C36.2086 41.6281 36.1196 41.7058 35.9081 41.9168C35.7077 42.1388 35.563 42.2387 35.5964 42.1499C35.6409 42.0611 35.8636 41.4949 36.1196 40.8844C36.3645 40.285 36.6761 39.4081 36.7986 38.9418C36.921 38.4756 37.0657 38.0205 37.1102 37.9317C37.1659 37.8429 37.1881 36.966 37.177 35.9891C37.1659 34.6127 37.1213 34.091 36.9655 33.6803C36.7763 33.1585 36.7763 33.1252 37.0323 32.1817C37.2438 31.3714 37.2883 30.9385 37.2883 29.4954C37.2883 28.2744 37.2438 27.7083 37.1436 27.5528C37.0212 27.3641 37.01 27.4196 37.0768 27.9414C37.2772 29.4843 37.0434 32.2372 36.6872 32.6257C36.6427 32.6701 36.4758 32.4259 36.3088 32.0707C35.897 31.216 34.4945 29.3733 33.1031 27.8526C31.8342 26.4761 31.3222 25.8212 31.4001 25.6991C31.4335 25.6436 31.6005 25.6103 31.7897 25.6103C32.0902 25.6103 32.2794 25.3883 31.9789 25.3883C31.8899 25.3883 31.9232 25.3106 32.0457 25.2218C32.324 25.0109 32.2238 25.0109 31.8231 25.2218C31.3556 25.466 31.133 25.4216 30.9549 25.0664C30.799 24.7666 30.799 24.7444 31.0996 24.5224C31.4335 24.2782 31.8342 23.5678 31.7229 23.3902C31.6895 23.3347 31.4001 23.479 31.0884 23.7232C30.6432 24.0784 30.4985 24.145 30.3761 24.0451C30.287 23.9674 30.2425 23.8897 30.2648 23.8564C30.2981 23.8342 30.2536 23.701 30.1646 23.5678C30.0755 23.4457 29.9976 23.2126 29.9976 23.0572C29.9976 22.9018 29.8974 22.6909 29.7861 22.591C29.519 22.369 29.0738 21.0036 28.8177 19.6494C28.5617 18.3062 28.5729 18.3173 28.1054 18.4061ZM27.7269 23.3569C27.6267 23.4679 27.3262 23.2237 27.3262 23.0239C27.3262 22.813 27.3373 22.813 27.5488 23.0572C27.6713 23.2015 27.7492 23.3347 27.7269 23.3569ZM26.2131 23.2237C26.3244 23.368 26.3133 23.3902 26.1241 23.3902C25.8792 23.3902 25.7234 23.2459 25.8458 23.1238C25.9571 23.0128 26.0684 23.0461 26.2131 23.2237ZM25.3894 23.2459C25.3449 23.3014 25.1446 23.4013 24.9553 23.479C24.6437 23.59 24.6437 23.6011 24.8997 23.5567L25.2002 23.5012L25.1334 24.478C25.0778 25.4105 25.0889 25.4882 25.3783 25.9877C25.5453 26.2652 25.779 26.5649 25.8903 26.6537C26.2243 26.8868 26.0239 26.9423 24.8997 26.9423C23.7866 26.9423 22.3173 26.6648 22.3507 26.4539C22.3619 26.3873 22.2394 26.3207 22.0725 26.2985C21.6829 26.2541 21.6829 26.1653 22.0613 25.6991C22.4954 25.1885 23.6419 24.1672 24.1539 23.8453C24.3209 23.7454 24.332 23.7232 24.1873 23.7676C23.9536 23.8342 23.9202 23.6899 24.1317 23.5345C24.4322 23.2792 25.6121 23.0239 25.3894 23.2459ZM29.7416 23.3569C29.7193 23.4124 29.608 23.6344 29.4967 23.8564C29.3965 24.0895 29.263 24.2782 29.2073 24.2782C29.0292 24.2782 29.1071 24.0451 29.4188 23.6566C29.6971 23.3125 29.8529 23.1682 29.7416 23.3569ZM25.7456 23.8564C25.5453 24.0562 25.3672 24.2227 25.3672 24.2227C25.356 24.2227 25.3783 24.0562 25.4006 23.8564C25.4562 23.5456 25.5008 23.5012 25.7902 23.5012H26.1241L25.7456 23.8564ZM27.393 23.9119C27.4153 24.0562 27.3039 24.2893 27.137 24.4891C26.7697 24.911 26.547 24.9443 26.8698 24.5446C27.0034 24.3781 27.1036 24.1561 27.1036 24.0451C27.1036 23.923 27.1704 23.8342 27.2483 23.8342C27.3373 23.8342 27.3262 23.7898 27.2149 23.7121C27.0813 23.6233 27.0813 23.6011 27.2038 23.6344C27.2928 23.6566 27.3819 23.7898 27.393 23.9119ZM29.8863 23.9452C29.6859 24.0673 29.6414 24.0229 29.7305 23.7898C29.7861 23.6455 29.8418 23.6344 29.9308 23.7232C30.0199 23.812 30.0087 23.8675 29.8863 23.9452ZM26.1241 24.2005C25.9126 24.4225 25.9015 24.478 26.0462 24.6223C26.202 24.7666 26.1909 24.8333 26.0016 25.2218C25.8792 25.466 25.779 25.5992 25.7679 25.5215C25.7679 25.4438 25.7122 25.4105 25.6455 25.4438C25.5787 25.4882 25.5564 25.5992 25.5898 25.688C25.6232 25.7768 25.6121 25.8212 25.5564 25.7768C25.2225 25.577 25.3115 24.3892 25.6455 24.3892C25.7568 24.3892 25.9349 24.2893 26.0462 24.1672C26.1575 24.0451 26.2688 23.9452 26.3022 23.9452C26.3356 23.9452 26.2576 24.0562 26.1241 24.2005ZM30.2202 24.2116C30.2202 24.3004 30.0867 24.4447 29.9308 24.5557C29.6748 24.7222 29.6192 24.7222 29.4745 24.5779C29.3298 24.4447 29.3632 24.3892 29.6748 24.1894C30.0533 23.9563 30.2202 23.9563 30.2202 24.2116ZM31.1107 24.2227C30.966 24.3781 30.7768 24.5002 30.6766 24.5002C30.5875 24.5002 30.6766 24.3781 30.8881 24.2227C31.0996 24.0673 31.2888 23.9452 31.3222 23.9452C31.3444 23.9452 31.2554 24.0673 31.1107 24.2227ZM30.7545 25.1663C30.8658 25.355 30.8658 25.3883 30.6877 25.3883C30.4762 25.3883 30.2202 25.1885 30.2202 25.0331C30.2202 24.8554 30.6209 24.9554 30.7545 25.1663ZM29.8863 25.1552C29.8863 25.355 29.7193 25.3661 29.4411 25.2107L29.1628 25.0664L29.5301 25.0553C29.7193 25.0553 29.8863 25.0997 29.8863 25.1552ZM28.9402 25.3772C28.9736 25.4438 28.9068 25.5437 28.7843 25.5992C28.4727 25.7768 28.417 25.7546 28.5506 25.4993C28.6842 25.2551 28.8289 25.2107 28.9402 25.3772ZM28.9402 25.8323C28.8066 25.9766 28.7843 26.0543 28.8845 26.0543C29.1183 26.0543 28.7955 26.3762 28.3169 26.6204C27.8716 26.8424 27.5711 26.909 27.9161 26.7092C28.0163 26.6426 28.0831 26.5538 28.0497 26.4983C28.0163 26.4539 28.1388 26.3207 28.3057 26.2097C28.5729 26.0432 28.584 26.0432 28.4504 26.1986C28.3725 26.2985 28.3502 26.3873 28.417 26.3873C28.5729 26.3873 28.7843 26.0987 28.6842 26.0099C28.6396 25.9655 28.7064 25.8545 28.8177 25.7657C29.1294 25.5437 29.1739 25.577 28.9402 25.8323ZM27.2149 26.4983C27.1259 26.5538 26.9478 26.5982 26.8253 26.5982C26.6472 26.5871 26.6472 26.576 26.881 26.4983C27.2706 26.3762 27.4153 26.3762 27.2149 26.4983ZM34.706 30.0282C35.5964 31.1494 36.3422 32.3371 36.5092 32.9032C36.5537 33.0697 36.4758 33.3917 36.2754 33.8246C36.1084 34.1909 36.0083 34.5239 36.0305 34.5572C36.0639 34.5905 36.2086 34.3574 36.3533 34.0577C36.4869 33.7469 36.6427 33.4916 36.6761 33.4916C36.9544 33.4916 37.2215 37.3101 36.9766 37.5654C36.9099 37.632 35.73 36.8883 35.6187 36.7218C35.563 36.6219 35.819 35.1344 35.9303 34.9679C35.9749 34.9013 35.9637 34.6016 35.9081 34.3019C35.8524 34.0133 35.7411 33.4583 35.6743 33.0808C35.4629 31.8598 34.9397 30.8275 33.7821 29.2734C33.437 28.8183 33.0475 28.2633 32.9028 28.0524C32.4687 27.3863 33.6485 28.6851 34.706 30.0282ZM35.4962 36.0335C35.4406 36.2889 35.3738 36.3666 35.2514 36.3222C35.1178 36.2778 35.1067 36.2889 35.218 36.4221C35.3961 36.6441 35.2625 37.0881 34.5946 38.4201C33.4927 40.618 31.8676 42.6161 28.2055 46.2792L26.3467 48.133L24.8552 48.8545C23.3748 49.5649 22.4286 49.9756 21.8387 50.1532L21.5159 50.242L21.7163 49.9423C22.2728 49.0765 23.2968 47.8555 24.332 46.812C25.4006 45.7242 26.1463 45.0471 28.328 43.1489C31.8453 40.0852 34.1828 37.6875 35.1957 36.1001C35.3627 35.8337 35.5185 35.6228 35.5296 35.645C35.5519 35.6672 35.5296 35.8337 35.4962 36.0335ZM36.0639 37.1769C36.3199 37.3767 36.6316 37.5987 36.7429 37.6653C36.921 37.7652 36.921 37.8318 36.7986 38.3313C36.409 39.9187 35.3404 42.5828 34.8729 43.1045C34.7616 43.2266 34.6837 43.3487 34.6948 43.382C34.7171 43.4042 34.706 43.4153 34.6837 43.4042C34.6614 43.382 34.4054 43.5818 34.1272 43.8482C33.8489 44.1035 33.437 44.4476 33.2256 44.6141C33.0141 44.7807 32.9362 44.8917 33.0475 44.8473C33.2033 44.7918 33.2367 44.814 33.181 44.9139C33.1254 44.9916 33.0141 45.0249 32.925 44.9916C32.8248 44.9472 32.3907 45.1914 31.8565 45.5799C27.9384 48.3772 27.9829 48.355 26.0462 48.8878C25.8792 48.9322 25.9126 48.8545 26.202 48.5437C26.4135 48.3217 26.6806 48.1108 26.8031 48.0775C26.9144 48.0442 27.0368 47.9221 27.0813 47.8111C27.1259 47.7001 27.9829 46.7676 29.007 45.7353C32.3351 42.3608 33.7487 40.5736 34.8729 38.3202C35.051 37.9539 35.2625 37.4655 35.3293 37.2324C35.4072 37.0104 35.4962 36.8217 35.5185 36.8217C35.5519 36.8217 35.7968 36.9882 36.0639 37.1769ZM25.4896 48.91C25.3672 49.021 25.1446 49.1542 24.9887 49.1986C24.7884 49.243 24.844 49.1875 25.1557 48.9988C25.7011 48.6547 25.7679 48.6436 25.4896 48.91ZM27.2706 48.7879C27.2038 48.8434 26.6584 49.2541 26.0462 49.6981C24.8329 50.5862 23.3191 51.8072 22.5511 52.5176C21.5938 53.4057 22.462 52.3622 24.0315 50.7305C25.4896 49.2208 25.5564 49.1764 26.291 48.9544C27.1259 48.6991 27.4264 48.6436 27.2706 48.7879ZM24.7327 49.687C24.588 49.8646 24.0871 50.4086 23.6196 50.8859C22.6401 51.896 21.7051 52.9949 20.7924 54.216C19.8018 55.548 19.8463 55.5147 19.9242 54.7488C20.0132 53.9718 20.5364 52.2845 21.015 51.23C21.3601 50.4752 21.4936 50.3642 22.1058 50.3642C22.2728 50.3642 22.6958 50.2309 23.052 50.0755C23.7309 49.7758 24.755 49.3873 24.9108 49.3762C24.9665 49.3651 24.8886 49.5094 24.7327 49.687ZM19.8129 60.854L19.8908 62.6301L19.6793 62.2971C18.7777 60.9095 18.6887 58.7116 19.4456 56.9356C19.5903 56.6026 19.6459 57.1465 19.8129 60.854Z" fill="black"/>
<path d="M7.7359 18.8279C7.7359 19.0721 7.79171 19.3052 7.84752 19.3385C7.9145 19.3829 7.95914 19.2053 7.95914 18.9056C7.95914 18.6281 7.9145 18.395 7.84752 18.395C7.79171 18.395 7.7359 18.5948 7.7359 18.8279Z" fill="black"/>
<path d="M26.4914 19.0054C26.3133 19.1498 26.2131 19.2719 26.2799 19.283C26.3467 19.283 26.5137 19.1609 26.6584 19.0054C26.9923 18.6502 26.9255 18.6502 26.4914 19.0054Z" fill="black"/>
<path d="M27.1703 19.1165C27.0924 19.3274 27.226 19.3274 27.5043 19.1165C27.7158 18.9611 27.7158 18.9611 27.482 18.95C27.3484 18.95 27.2149 19.0277 27.1703 19.1165Z" fill="black"/>
<path d="M24.1206 19.1942C23.9091 19.4051 23.9647 19.5161 24.2096 19.3718C24.4322 19.2275 24.5101 19.061 24.3432 19.061C24.2987 19.061 24.1985 19.1165 24.1206 19.1942Z" fill="black"/>
<path d="M6.58974 19.6049C6.54509 19.8048 6.52277 20.16 6.52277 20.382C6.53393 20.715 6.55625 20.6817 6.63439 20.1711C6.75717 19.4939 6.71252 19.0166 6.58974 19.6049Z" fill="black"/>
<path d="M24.6324 19.6605C24.5211 19.7382 24.4321 19.8603 24.4321 19.938C24.4321 20.1045 24.6881 20.0934 24.855 19.9269C24.9997 19.7826 25.0331 19.5051 24.9107 19.5051C24.855 19.5051 24.7326 19.5828 24.6324 19.6605Z" fill="black"/>
<path d="M23.308 19.9046C23.1632 20.06 22.7069 20.4485 22.295 20.7593C21.8721 21.0813 21.5381 21.3699 21.5381 21.4143C21.5381 21.5586 21.7274 21.5142 21.8832 21.3255C21.9611 21.2367 22.117 21.1812 22.2171 21.2034C22.3284 21.2367 22.5065 21.1923 22.6178 21.1035C22.8071 20.9591 22.8071 20.9591 22.5956 20.948C22.4175 20.948 22.462 20.8703 22.8182 20.5817C23.7087 19.8602 23.9424 19.6271 23.7532 19.616C23.6641 19.616 23.4638 19.7492 23.308 19.9046Z" fill="black"/>
<path d="M26.213 19.838C26.124 19.8935 26.0906 19.9712 26.1351 20.0156C26.1796 20.06 26.3021 20.0156 26.4023 19.9157C26.6026 19.7159 26.4913 19.6604 26.213 19.838Z" fill="black"/>
<path d="M21.9501 20.2266C21.772 20.3154 21.4381 20.5374 21.2043 20.7261C20.7925 21.048 20.4697 21.1923 20.7369 20.9259C20.9149 20.7483 20.9038 20.6151 20.7035 20.6151C20.6033 20.6151 20.2916 20.8371 20.0022 21.1035C19.7128 21.3699 19.4345 21.5808 19.3678 21.5808C19.2342 21.5475 18.5886 22.48 18.6776 22.5688C18.7222 22.6132 18.8335 22.5799 18.9448 22.4911C19.1117 22.3579 19.1229 22.3579 19.0561 22.5244C19.0004 22.6687 19.045 22.7242 19.1897 22.7242C19.301 22.7242 19.4234 22.6909 19.4679 22.6465C19.5125 22.6021 19.7128 22.5799 19.902 22.591C20.1692 22.6132 20.3361 22.5577 20.5254 22.3468C20.6923 22.1692 20.9149 22.0582 21.1153 22.0582C21.4381 22.0582 21.4826 21.9916 21.3268 21.7362C21.2489 21.603 21.1264 21.6363 20.6812 21.8806L20.1469 22.1803L20.5922 21.7917C20.837 21.5697 21.0263 21.3366 21.0151 21.2811C20.9817 21.1812 21.1487 21.1257 21.2377 21.1923C21.3045 21.2478 22.4287 20.2599 22.4287 20.16C22.4287 20.0157 22.3063 20.0379 21.9501 20.2266Z" fill="black"/>
<path d="M23.987 20.3375C23.7866 20.5707 23.9536 20.6928 24.1651 20.4819C24.2764 20.3819 24.2987 20.282 24.2319 20.2376C24.1762 20.2043 24.0649 20.2487 23.987 20.3375Z" fill="black"/>
<path d="M23.0854 20.615C22.9407 20.726 22.8739 20.8259 22.9407 20.837C23.0186 20.837 23.1855 20.7371 23.3302 20.615C23.4749 20.504 23.5417 20.4041 23.4749 20.393C23.397 20.393 23.2301 20.4929 23.0854 20.615Z" fill="black"/>
<path d="M19.056 20.9814C18.8 21.2367 18.466 21.6807 18.3213 21.9471C17.9985 22.5576 18.121 22.4355 18.6887 21.5808C19.1116 20.9592 19.4344 20.6706 19.6459 20.7483C19.7127 20.7705 19.6793 20.9259 19.5902 21.1035C19.4901 21.2811 19.4455 21.4476 19.4678 21.4698C19.5569 21.5697 19.8908 20.8149 19.824 20.6595C19.7238 20.4041 19.5569 20.4818 19.056 20.9814Z" fill="black"/>
<path d="M23.3192 20.8371C23.1077 21.0036 23.0855 21.0591 23.219 21.0591C23.3971 21.0591 23.731 20.7594 23.642 20.6706C23.6197 20.6484 23.475 20.7261 23.3192 20.8371Z" fill="black"/>
<path d="M24.4322 20.9925C24.2541 21.2256 24.4433 21.2811 24.7772 21.1035C24.9553 21.0147 25.1 20.9259 25.1 20.9148C25.1 20.8149 24.5324 20.8926 24.4322 20.9925Z" fill="black"/>
<path d="M23.575 21.0924C23.2967 21.2145 23.23 21.3921 23.4748 21.3921C23.6307 21.3921 23.9423 21.0813 23.8644 21.0147C23.8421 20.9925 23.7086 21.0258 23.575 21.0924Z" fill="black"/>
<path d="M22.5957 21.2811C22.5623 21.3366 22.6068 21.3921 22.6959 21.3921C22.8072 21.3921 22.8406 21.4587 22.8072 21.5586C22.7626 21.6585 22.8072 21.7251 22.9185 21.7251C23.13 21.7251 23.1411 21.6252 22.9407 21.3588C22.7738 21.1479 22.6959 21.1257 22.5957 21.2811Z" fill="black"/>
<path d="M21.8721 21.6696C21.7608 21.8139 21.772 21.8361 21.9946 21.8361C22.373 21.8361 22.6179 21.6696 22.373 21.5697C22.1059 21.4698 22.028 21.4809 21.8721 21.6696Z" fill="black"/>
<path d="M30.0534 22.2801C29.9087 22.4467 29.8864 22.5466 29.9643 22.6243C30.0534 22.7131 30.1424 22.6576 30.2649 22.4023C30.4763 22.0137 30.3539 21.9471 30.0534 22.2801Z" fill="black"/>
<path d="M11.91 30.0726C11.7987 30.3945 11.5205 30.9606 11.2867 31.327C10.7524 32.1595 10.5187 32.8144 10.5187 33.4804C10.5187 34.0687 10.7636 34.9568 10.9083 34.9346C10.9639 34.9235 11.0307 34.979 11.0641 35.0567C11.0863 35.1455 11.053 35.1566 10.9528 35.1011C10.8637 35.0456 10.8303 35.0567 10.886 35.1122C10.9416 35.1677 11.0196 35.2121 11.053 35.2121C11.0975 35.2121 11.3535 35.3453 11.6318 35.5118C11.91 35.6672 12.3553 35.867 12.6335 35.9336C12.9118 36.0113 13.2235 36.1445 13.3348 36.2444C13.435 36.3332 13.5574 36.3776 13.6019 36.3332C13.7466 36.2 13.2012 35.867 12.4777 35.6561C12.0102 35.5118 11.6652 35.3231 11.3869 35.0456C10.9973 34.6682 10.9639 34.5683 10.9639 34.0354C10.9639 33.436 11.0975 32.8366 11.4982 31.7155C11.9323 30.4722 12.1994 29.5842 12.1549 29.5287C12.1215 29.5065 12.0102 29.7507 11.91 30.0726ZM11.0084 32.6701C10.6745 33.6136 10.63 33.6913 10.6745 33.2362C10.7302 32.7589 11.2644 31.4269 11.3646 31.5157C11.3869 31.5379 11.2311 32.0596 11.0084 32.6701Z" fill="black"/>
<path d="M27.2483 30.5832C27.1815 30.6276 27.5711 30.6609 28.1165 30.6609C28.6508 30.6609 29.0181 30.6276 28.9068 30.5832C28.6508 30.4833 27.4153 30.4833 27.2483 30.5832Z" fill="black"/>
<path d="M30.7767 31.5268C30.7767 31.5601 30.966 31.7155 31.1886 31.8931C31.4112 32.0596 31.5559 32.1484 31.5114 32.0707C31.4223 31.9264 30.7767 31.4491 30.7767 31.5268Z" fill="black"/>
<path d="M7.43538 32.77C7.43538 33.0142 7.45758 33.103 7.47978 32.9587C7.50199 32.8255 7.50199 32.6257 7.47978 32.5147C7.44648 32.4148 7.42428 32.5258 7.43538 32.77Z" fill="black"/>
<path d="M15.8615 32.4925C15.8615 32.548 15.906 32.6035 15.9505 32.6035C16.1732 32.6035 16.8299 33.3805 16.9412 33.7801C17.0859 34.2686 16.9634 35.6561 16.7631 35.8559C16.5961 36.0224 15.6166 35.5562 15.6945 35.3564C15.7836 35.1455 15.2493 34.6349 14.8486 34.5461C14.6594 34.5017 14.2809 34.5017 14.0138 34.5461C13.3014 34.646 13.3793 34.8902 14.1696 35.0456C14.7707 35.1788 15.0267 35.2787 16.0284 35.8115C16.2622 35.9336 16.5182 36.0446 16.5961 36.0446C16.841 36.0446 16.9968 35.7227 17.097 34.9235C17.1972 34.2131 17.1861 34.0687 16.9634 33.5248C16.6963 32.8588 15.8615 32.0818 15.8615 32.4925Z" fill="black"/>
<path d="M8.09224 35.0123C8.24807 35.3897 8.4039 35.5784 8.4039 35.4119C8.4039 35.1677 8.19241 34.7126 8.06998 34.7126C8.00319 34.7126 8.01432 34.8236 8.09224 35.0123Z" fill="black"/>
<path d="M7.66917 35.1122C7.58013 35.1455 7.72483 35.6228 8.08101 36.4887L8.61529 37.7985L8.40381 38.6754C8.17006 39.6523 7.83614 40.4737 6.86775 42.4829C6.50044 43.2488 6.04407 44.3477 5.84372 44.9249C5.52092 45.8352 5.4764 46.1349 5.46527 47.145C5.44301 49.0321 5.93276 50.0866 7.6803 52.0181C9.1941 53.6943 9.78403 54.7821 9.79516 55.9143C9.79516 56.5249 9.73951 56.7136 9.46124 57.1798C9.28315 57.4795 9.03827 57.868 8.93809 58.0345C8.82678 58.2121 8.70434 58.5118 8.64869 58.7005L8.55964 59.0557L7.07924 57.4573C5.16473 55.3926 4.60819 54.549 4.18522 53.0615C4.06278 52.6508 3.9626 52.4066 3.9626 52.5398C3.95147 52.8395 4.29653 53.8275 4.65272 54.5268C5.07569 55.3593 5.56544 55.992 6.80097 57.313C8.48172 59.1112 8.47059 59.1001 8.54851 59.8106C8.61529 60.5321 8.82678 60.9983 9.27201 61.4201C9.65046 61.7864 10.374 62.1195 10.7747 62.1306C11.0641 62.1306 11.0752 62.1084 10.9528 61.8752C10.8415 61.6643 10.1402 60.7763 9.79516 60.3989C9.73951 60.3323 9.49463 60.0659 9.26088 59.8106C9.02714 59.5442 8.81565 59.3555 8.79339 59.3777C8.77113 59.3999 9.10505 59.8106 9.53915 60.299C10.5632 61.4645 10.8971 61.8974 10.8192 61.9862C10.6968 62.0973 9.81743 61.7087 9.40558 61.3646C8.44833 60.5765 8.41494 58.8448 9.3388 57.6349C10.0178 56.758 10.1402 55.7367 9.69499 54.66C9.34993 53.8275 8.82678 53.0948 7.72483 51.8627C5.87711 49.8091 5.2983 48.2107 5.66562 46.2459C5.87711 45.1248 6.26669 44.1035 7.23507 42.061C8.0031 40.4626 8.62643 38.853 8.62643 38.4534C8.62643 38.0538 8.80452 38.3757 9.16071 39.4303C10.3628 42.9047 10.7413 43.9259 10.7413 43.6817C10.7413 43.6373 9.17184 38.9751 8.78226 37.8762C8.74887 37.7541 8.89357 37.9539 9.11618 38.3202C9.76177 39.3526 10.4853 40.2295 10.5966 40.1074C10.63 40.0741 10.4408 39.8077 10.1847 39.5191C9.42785 38.6643 8.73773 37.3989 8.73773 36.8661C8.73773 36.2444 8.62643 35.7116 8.49286 35.7116C8.39268 35.7116 8.4372 36.1001 8.59303 36.6441C8.62643 36.7773 8.60416 36.8217 8.52625 36.7773C8.45946 36.7329 8.35929 36.4998 8.2925 36.2666C8.22572 36.0224 8.12554 35.8226 8.06988 35.8226C8.01423 35.8226 7.96971 35.7338 7.98084 35.6228C8.02536 35.1011 7.95858 34.9901 7.66917 35.1122Z" fill="black"/>
<path d="M6.57836 37.0991C6.66766 37.5099 6.73463 37.5987 6.73463 37.3101C6.73463 37.199 6.67882 37.0214 6.62301 36.9326C6.53372 36.8105 6.52255 36.8549 6.57836 37.0991Z" fill="black"/>
<path d="M11.6875 39.3969C11.4315 39.6189 11.3536 39.7965 11.2979 40.3071C11.2423 40.8288 11.2645 40.9621 11.4315 41.1175C11.6764 41.3395 11.6875 41.4838 11.4538 41.4838C11.1198 41.4838 11.4093 41.6836 11.8545 41.7613C12.0994 41.8057 12.2997 41.8723 12.2997 41.9167C12.2997 42.0166 12.834 41.9389 13.0232 41.8279C13.09 41.7835 13.8135 41.7613 14.6372 41.7724C19.0561 41.839 19.3678 41.8279 20.0245 41.6503C20.3807 41.5615 20.7592 41.506 20.8593 41.5393C20.9595 41.5615 21.1153 41.5393 21.2044 41.4838C21.2934 41.4283 21.3268 41.3728 21.26 41.3728C21.2044 41.3728 21.2155 41.3284 21.2934 41.284C21.3714 41.2285 21.2155 41.1841 20.8816 41.173C20.5699 41.173 20.2805 41.2174 20.2471 41.284C20.2026 41.3617 20.2249 41.3728 20.2917 41.3284C20.3696 41.284 20.4252 41.2951 20.4252 41.3506C20.4252 41.4061 20.1247 41.5171 19.7463 41.5948C18.9448 41.7724 15.6501 41.6836 15.5277 41.4949C15.4831 41.4061 15.2828 41.4283 14.8709 41.5504C14.3367 41.7058 14.2365 41.7058 13.6577 41.5393C13.3126 41.4394 12.9342 41.284 12.8117 41.1952C12.4778 40.9621 12.3442 41.0065 12.578 41.2618C12.7783 41.4727 12.7672 41.4838 12.5112 41.4838C12.155 41.4838 11.732 41.1841 11.81 40.9954C11.8434 40.9177 11.7877 40.8177 11.6987 40.7844C11.5762 40.74 11.5206 40.5735 11.5206 40.2849C11.5206 39.4857 12.2886 39.1527 13.3015 39.5079C13.602 39.6078 13.858 39.5967 14.6261 39.4413C15.7837 39.2082 16.2846 39.2859 17.0526 39.852C17.342 40.0629 17.7538 40.3182 17.9542 40.4181C18.4439 40.6623 19.8798 41.1508 20.0913 41.1397C20.1804 41.1286 19.9355 41.0176 19.5348 40.8844C18.11 40.3959 17.7872 40.2294 16.9969 39.63C16.4293 39.1971 15.9395 39.0972 15.1047 39.2082C14.3367 39.3192 13.4685 39.3192 12.6225 39.2082C12.066 39.1416 11.9769 39.1527 11.6875 39.3969Z" fill="black"/>
<path d="M6.57835 39.9409C6.53371 40.1962 6.52254 40.4293 6.55603 40.4515C6.57835 40.4737 6.63417 40.2961 6.67881 40.0408C6.72346 39.7855 6.73463 39.5635 6.70114 39.5302C6.67881 39.4969 6.623 39.6856 6.57835 39.9409Z" fill="black"/>
<path d="M6.23326 41.3728C6.18861 41.506 6.17745 41.6392 6.21094 41.6725C6.24442 41.6947 6.30024 41.617 6.34488 41.4838C6.38953 41.3506 6.40069 41.2174 6.36721 41.1841C6.33372 41.1619 6.27791 41.2396 6.23326 41.3728Z" fill="black"/>
<path d="M12.088 42.3275C11.9767 42.4607 11.9656 42.5939 12.0769 43.0157C12.255 43.7372 12.6001 44.2035 13.19 44.5032C13.6241 44.7252 13.8578 44.7585 14.8596 44.7585C15.5052 44.7585 16.2064 44.7252 16.4179 44.6808C16.7519 44.6031 16.7741 44.6142 16.5849 44.7252C16.4625 44.8029 16.0395 44.9805 15.6388 45.1137C15.2269 45.258 15.0711 45.3468 15.2826 45.3135C15.8169 45.2358 16.9522 44.7807 19.1561 43.7483C19.7127 43.4819 20.3137 42.9935 20.3137 42.8048C20.3137 42.6272 20.1468 42.7049 19.312 43.271C18.2768 43.9704 17.8315 44.1702 16.6962 44.4255C15.0934 44.7807 13.6909 44.6586 12.9562 44.1147C12.5778 43.8372 12.2439 43.1267 12.2439 42.5717C12.2439 42.3386 12.2439 42.1499 12.2439 42.1499C12.2439 42.161 12.1771 42.2387 12.088 42.3275Z" fill="black"/>
<path d="M5.89952 42.4828C5.85487 42.616 5.84371 42.7493 5.8772 42.7826C5.91068 42.8048 5.96649 42.7271 6.01114 42.5938C6.05579 42.4606 6.06695 42.3274 6.03347 42.2941C5.99998 42.2719 5.94417 42.3496 5.89952 42.4828Z" fill="black"/>
<path d="M5.53238 43.6262C5.34262 44.1479 5.37611 44.2812 5.57702 43.826C5.66632 43.6151 5.72213 43.3931 5.71097 43.3487C5.68865 43.2932 5.61051 43.4153 5.53238 43.6262Z" fill="black"/>
<path d="M10.7413 43.8815C10.7413 43.9592 10.8195 44.1812 10.9088 44.381C10.9981 44.5919 11.065 44.7029 11.0762 44.6363C11.0762 44.5586 10.9981 44.3366 10.9088 44.1368C10.8195 43.9259 10.7525 43.8149 10.7413 43.8815Z" fill="black"/>
<path d="M5.18726 44.603C5.12028 44.8028 5.0868 44.9805 5.10912 45.0027C5.13145 45.0249 5.20958 44.8916 5.27655 44.6918C5.34353 44.492 5.37701 44.3144 5.35469 44.2922C5.33236 44.27 5.25423 44.4032 5.18726 44.603Z" fill="black"/>
<path d="M37.2884 45.3246C36.7207 45.702 36.5204 45.9018 36.9656 45.6465C37.3552 45.4245 37.8783 45.0471 37.7893 45.036C37.7559 45.036 37.5333 45.1692 37.2884 45.3246Z" fill="black"/>
<path d="M4.7973 45.7686C4.686 46.1127 4.61921 46.4124 4.64147 46.4346C4.67486 46.4568 4.77504 46.2015 4.88635 45.8574C4.99766 45.5133 5.06444 45.2136 5.04218 45.1914C5.00879 45.1692 4.90861 45.4245 4.7973 45.7686Z" fill="black"/>
<path d="M13.6687 45.5133C13.2791 45.5688 12.9674 45.6687 12.9674 45.7353C12.9674 45.7908 13.0787 45.8019 13.2234 45.7686C13.357 45.7242 13.7688 45.6465 14.1361 45.5799C14.5035 45.5133 14.8151 45.4466 14.8485 45.4133C14.9153 45.3467 14.4589 45.38 13.6687 45.5133Z" fill="black"/>
<path d="M36.0416 46.1571C35.7745 46.3458 35.563 46.5123 35.563 46.5456C35.563 46.5789 35.7856 46.4457 36.0639 46.257C36.3421 46.0683 36.5648 45.8907 36.5648 45.8685C36.5648 45.7908 36.5425 45.8019 36.0416 46.1571Z" fill="black"/>
<path d="M4.40822 47.0451C4.33009 47.2893 4.28544 47.5224 4.31893 47.5446C4.34125 47.5668 4.41939 47.3892 4.49752 47.1339C4.57566 46.8897 4.62031 46.6566 4.58682 46.6344C4.56449 46.6122 4.48636 46.7898 4.40822 47.0451Z" fill="black"/>
<path d="M34.2162 47.5558L33.9491 47.8444L34.2496 47.6335C34.4166 47.5224 34.5613 47.3892 34.5613 47.3337C34.5613 47.2005 34.5056 47.2449 34.2162 47.5558Z" fill="black"/>
<path d="M33.4147 48.1995C33.2477 48.3549 33.1141 48.5214 33.1141 48.5547C33.1141 48.5991 33.27 48.4881 33.4481 48.3105C33.7597 48.0219 33.8265 47.922 33.7486 47.922C33.7375 47.922 33.5816 48.0441 33.4147 48.1995Z" fill="black"/>
<path d="M4.00725 48.6991C3.9626 48.9544 3.95144 49.1764 3.98492 49.2097C4.00725 49.243 4.06306 49.0543 4.10771 48.799C4.15236 48.5437 4.16352 48.3106 4.13003 48.2884C4.10771 48.2662 4.0519 48.4438 4.00725 48.6991Z" fill="black"/>
<path d="M31.9122 49.0654C31.6784 49.6426 31.389 50.0755 30.9438 50.5418C30.1423 51.3743 27.9718 54.2493 28.1499 54.2493C28.1722 54.2493 28.5284 53.7831 28.918 53.2169C30.031 51.6296 31.1775 50.2864 31.3 50.4086C31.3333 50.4419 31.2777 50.7194 31.1775 51.0191C31.0773 51.3188 30.9215 52.0625 30.8213 52.673C30.6655 53.6832 30.6655 53.8719 30.8213 54.8043C31.1664 56.7358 32.324 58.423 34.2608 59.7995C34.8507 60.2102 35.1178 60.6209 35.1178 61.076C35.1178 61.2758 35.0622 61.3535 34.8952 61.3535C34.6615 61.3535 33.5261 60.965 31.6561 60.2546C31.0106 60.0104 30.2314 59.7884 29.9309 59.7662C29.6303 59.7329 29.4856 59.744 29.6081 59.7662C30.4429 59.9549 31.4558 60.2768 32.3351 60.632C33.8378 61.2314 34.5613 61.4645 34.9175 61.4645C35.2069 61.4645 35.2291 61.4423 35.2291 60.9983C35.2291 60.5654 35.1735 60.4766 34.5947 59.966C32.1904 57.8458 31.4558 56.869 31.0439 55.2483C30.7323 54.0273 30.9549 51.9071 31.556 50.2975C31.6228 50.1199 31.9901 49.6537 32.3685 49.2541C32.9473 48.6436 32.9696 48.6214 32.4798 49.0876C32.157 49.3873 31.8899 49.5982 31.8899 49.5427C31.8899 49.4983 32.0012 49.2097 32.1236 48.91C32.2572 48.6103 32.3463 48.3328 32.3129 48.2995C32.2795 48.2773 32.1014 48.6214 31.9122 49.0654Z" fill="black"/>
<path d="M3.87347 49.9756C3.87347 50.2753 3.89567 50.3974 3.91788 50.2198C3.94008 50.0533 3.94008 49.8091 3.91788 49.6648C3.89567 49.5316 3.87347 49.6648 3.87347 49.9756Z" fill="black"/>
<path d="M3.87347 51.8072C3.87347 52.0847 3.89567 52.1957 3.91788 52.0514C3.94008 51.9182 3.94008 51.6962 3.91788 51.5519C3.89567 51.4187 3.87347 51.5297 3.87347 51.8072Z" fill="black"/>
<path d="M26.7696 56.214C26.0795 57.2464 25.5897 58.0012 25.6899 57.9124C25.7789 57.8236 26.3243 57.0466 26.9031 56.1918C28.0608 54.4824 28.1387 54.3603 28.0719 54.3603C28.0385 54.3603 27.4597 55.1928 26.7696 56.214Z" fill="black"/>
<path d="M24.5102 59.3888C22.796 61.6754 21.1152 63.1296 20.2136 63.1296C19.5235 63.1296 19.0227 62.5635 18.6331 61.3535C18.5329 61.0205 18.4327 60.8318 18.4327 60.9317C18.4216 61.0427 18.5329 61.409 18.6553 61.7642C18.967 62.5968 19.6126 63.2406 20.1357 63.2406C20.8036 63.2406 21.7497 62.6523 22.7626 61.6088C23.7866 60.5432 25.69 58.1344 25.5119 58.1344C25.4785 58.1344 25.0333 58.7005 24.5102 59.3888Z" fill="black"/>
<path d="M28.3615 59.6552C28.5284 59.6774 28.7733 59.6774 28.918 59.6552C29.0516 59.633 28.918 59.6108 28.6064 59.6108C28.3058 59.6108 28.1834 59.633 28.3615 59.6552Z" fill="black"/>
<path d="M27.0478 59.8661C26.7695 59.9993 26.7584 60.0104 26.9921 59.9549C27.148 59.9216 27.4485 59.855 27.66 59.7995C28.0496 59.7107 28.0496 59.7107 27.7157 59.7107C27.5376 59.6996 27.237 59.7662 27.0478 59.8661Z" fill="black"/>
<path d="M25.8013 60.4765C24.6548 61.2203 23.4416 62.7077 23.4304 63.3738C23.4304 63.5736 24.0537 64.3506 24.2096 64.3506C24.2541 64.3506 24.1317 64.1841 23.9202 63.9732C23.7087 63.7623 23.5417 63.5181 23.5417 63.4182C23.5417 62.7299 24.6548 61.3646 25.8458 60.5876C26.3133 60.2767 26.6584 60.0214 26.5916 60.0214C26.5359 60.0214 26.1797 60.2212 25.8013 60.4765Z" fill="black"/>
<path d="M25.8236 64.7835C26.1687 64.8834 26.959 64.9389 26.8699 64.8612C26.8477 64.839 26.5249 64.7946 26.1576 64.7613C25.7235 64.7169 25.601 64.728 25.8236 64.7835Z" fill="black"/>
<path d="M28.1388 64.9833C28.7287 65.0056 29.7083 65.0056 30.3093 64.9833C30.8993 64.9722 30.4095 64.95 29.2185 64.95C28.0275 64.95 27.5377 64.9722 28.1388 64.9833Z" fill="black"/>
</svg>
