<svg width="45" height="46" viewBox="0 0 45 46" fill="none" xmlns="http://www.w3.org/2000/svg">
<path d="M22.5512 0H22.4488C10.0507 0 0 10.0536 0 22.4554V22.5579C0 34.9596 10.0507 45.0132 22.4488 45.0132H22.5512C34.9493 45.0132 45 34.9596 45 22.5579V22.4554C45 10.0536 34.9493 0 22.5512 0Z" fill="#191D23"/>
<path d="M26.8853 29.0901C21.1261 29.0901 16.4405 24.4015 16.439 18.6406C16.4405 17.1803 17.6293 15.9928 19.086 15.9928C19.2358 15.9928 19.384 16.0054 19.5259 16.0306C19.838 16.0827 20.1344 16.1883 20.4072 16.3476C20.4466 16.3713 20.4734 16.4091 20.4797 16.4533L21.0883 20.2902C21.0961 20.3359 21.082 20.3801 21.052 20.4132C20.7162 20.7854 20.2874 21.0535 19.8097 21.1875L19.5795 21.2522L19.6662 21.4746C20.4513 23.4742 22.05 25.0718 24.0506 25.8603L24.2729 25.9486L24.3376 25.7184C24.4716 25.2405 24.7396 24.8116 25.1117 24.4757C25.1385 24.4504 25.1747 24.4378 25.211 24.4378C25.2189 24.4378 25.2268 24.4378 25.2362 24.4394L29.072 25.0481C29.1177 25.056 29.1556 25.0812 29.1792 25.1207C29.3369 25.3935 29.4425 25.6915 29.4961 26.0038C29.5213 26.1426 29.5324 26.2892 29.5324 26.4422C29.5324 27.901 28.3452 29.0885 26.8853 29.0901Z" fill="white"/>
<path d="M37.0983 21.2427C36.7877 17.7322 35.1796 14.4756 32.5704 12.0738C29.9454 9.6578 26.54 8.32678 22.9785 8.32678C15.1619 8.32678 8.80205 14.6885 8.80205 22.5075C8.80205 25.1316 9.52568 27.688 10.8957 29.9148L7.84033 36.6803L17.6229 35.6378C19.3241 36.3349 21.1245 36.6881 22.977 36.6881C23.4641 36.6881 23.9639 36.6629 24.4653 36.6109C24.9067 36.5636 25.3529 36.4942 25.7912 36.4058C32.3371 35.0827 37.1156 29.2714 37.1535 22.5832V22.5075C37.1535 22.0817 37.1346 21.6559 37.0967 21.2427H37.0983ZM17.9997 32.6683L12.5874 33.2455L14.2034 29.664L13.8802 29.2304C13.8565 29.1988 13.8329 29.1673 13.8061 29.131C12.4029 27.1928 11.6619 24.903 11.6619 22.509C11.6619 16.2671 16.7385 11.1891 22.9785 11.1891C28.8245 11.1891 33.7796 15.7515 34.2573 21.5754C34.2825 21.8877 34.2967 22.2015 34.2967 22.5106C34.2967 22.5989 34.2952 22.6857 34.2936 22.7787C34.1738 28.0003 30.5272 32.4349 25.4254 33.564C25.036 33.6508 24.6371 33.717 24.2398 33.7596C23.8267 33.8069 23.4026 33.8306 22.9817 33.8306C21.4824 33.8306 20.0256 33.5404 18.6493 32.9663C18.4964 32.9048 18.3466 32.8386 18.2063 32.7708L18.0013 32.6714L17.9997 32.6683Z" fill="white"/>
</svg>
